<?xml version="1.0" encoding="utf-8"?>
<!-- Generator: Adobe Illustrator 18.1.1, SVG Export Plug-In . SVG Version: 6.00 Build 0)  -->
<!DOCTYPE svg PUBLIC "-//W3C//DTD SVG 1.1//EN" "http://www.w3.org/Graphics/SVG/1.1/DTD/svg11.dtd">
<svg version="1.1" id="Layer_1" xmlns="http://www.w3.org/2000/svg" xmlns:xlink="http://www.w3.org/1999/xlink" x="0px" y="0px"
	 viewBox="0 0 1511.4 62.1" enable-background="new 0 0 1511.4 62.1" xml:space="preserve">
<g>
	<defs>
		<polygon id="SVGID_1_" points="2.3,14.9 1511.3,0 1511.7,183.4 3.8,151.4 		"/>
	</defs>
	<clipPath id="SVGID_2_">
		<use xlink:href="#SVGID_1_"  overflow="visible"/>
	</clipPath>
	<g clip-path="url(#SVGID_2_)">
		<g>
			<line fill="none" stroke="#00AEEF" stroke-width="3" stroke-miterlimit="10" x1="-1040.5" y1="790" x2="-231.9" y2="-18.6"/>
			<line fill="none" stroke="#00AEEF" stroke-width="3" stroke-miterlimit="10" x1="-1025.1" y1="790" x2="-216.5" y2="-18.6"/>
			<line fill="none" stroke="#00AEEF" stroke-width="3" stroke-miterlimit="10" x1="-1009.8" y1="790" x2="-201.2" y2="-18.6"/>
			<line fill="none" stroke="#00AEEF" stroke-width="3" stroke-miterlimit="10" x1="-994.5" y1="790" x2="-185.9" y2="-18.6"/>
			<polyline fill="none" stroke="#00AEEF" stroke-width="3" stroke-miterlimit="10" points="-979.2,790 -726.6,537.4 -170.6,-18.6 
							"/>
			<line fill="none" stroke="#00AEEF" stroke-width="3" stroke-miterlimit="10" x1="-963.9" y1="790" x2="-155.3" y2="-18.6"/>
			<line fill="none" stroke="#00AEEF" stroke-width="3" stroke-miterlimit="10" x1="-948.5" y1="790" x2="-139.9" y2="-18.6"/>
			<line fill="none" stroke="#00AEEF" stroke-width="3" stroke-miterlimit="10" x1="-933.2" y1="790" x2="-124.6" y2="-18.6"/>
			<line fill="none" stroke="#00AEEF" stroke-width="3" stroke-miterlimit="10" x1="-917.9" y1="790" x2="-109.3" y2="-18.6"/>
			<line fill="none" stroke="#00AEEF" stroke-width="3" stroke-miterlimit="10" x1="-902.6" y1="790" x2="-94" y2="-18.6"/>
			<line fill="none" stroke="#00AEEF" stroke-width="3" stroke-miterlimit="10" x1="-887.3" y1="790" x2="-78.7" y2="-18.6"/>
			<line fill="none" stroke="#00AEEF" stroke-width="3" stroke-miterlimit="10" x1="-872" y1="790" x2="-63.4" y2="-18.6"/>
			<line fill="none" stroke="#00AEEF" stroke-width="3" stroke-miterlimit="10" x1="-856.6" y1="790" x2="-48" y2="-18.6"/>
			<line fill="none" stroke="#00AEEF" stroke-width="3" stroke-miterlimit="10" x1="-841.3" y1="790" x2="-32.7" y2="-18.6"/>
			<line fill="none" stroke="#00AEEF" stroke-width="3" stroke-miterlimit="10" x1="-826" y1="790" x2="-17.4" y2="-18.6"/>
			<line fill="none" stroke="#00AEEF" stroke-width="3" stroke-miterlimit="10" x1="-810.7" y1="790" x2="-2.1" y2="-18.6"/>
			<line fill="none" stroke="#00AEEF" stroke-width="3" stroke-miterlimit="10" x1="-795.4" y1="790" x2="13.2" y2="-18.6"/>
			<line fill="none" stroke="#00AEEF" stroke-width="3" stroke-miterlimit="10" x1="-780.1" y1="790" x2="28.5" y2="-18.6"/>
			<line fill="none" stroke="#00AEEF" stroke-width="3" stroke-miterlimit="10" x1="-764.7" y1="790" x2="43.9" y2="-18.6"/>
			<line fill="none" stroke="#00AEEF" stroke-width="3" stroke-miterlimit="10" x1="-749.4" y1="790" x2="59.2" y2="-18.6"/>
			<line fill="none" stroke="#00AEEF" stroke-width="3" stroke-miterlimit="10" x1="-734.1" y1="790" x2="74.5" y2="-18.6"/>
			<line fill="none" stroke="#00AEEF" stroke-width="3" stroke-miterlimit="10" x1="-718.8" y1="790" x2="89.8" y2="-18.6"/>
			<line fill="none" stroke="#00AEEF" stroke-width="3" stroke-miterlimit="10" x1="-703.5" y1="790" x2="105.1" y2="-18.6"/>
			<line fill="none" stroke="#00AEEF" stroke-width="3" stroke-miterlimit="10" x1="-688.2" y1="790" x2="120.4" y2="-18.6"/>
			<line fill="none" stroke="#00AEEF" stroke-width="3" stroke-miterlimit="10" x1="-672.8" y1="790" x2="135.8" y2="-18.6"/>
			<line fill="none" stroke="#00AEEF" stroke-width="3" stroke-miterlimit="10" x1="-657.5" y1="790" x2="151.1" y2="-18.6"/>
			<line fill="none" stroke="#00AEEF" stroke-width="3" stroke-miterlimit="10" x1="-642.2" y1="790" x2="166.4" y2="-18.6"/>
			<line fill="none" stroke="#00AEEF" stroke-width="3" stroke-miterlimit="10" x1="-626.9" y1="790" x2="181.7" y2="-18.6"/>
			<line fill="none" stroke="#00AEEF" stroke-width="3" stroke-miterlimit="10" x1="-611.6" y1="790" x2="197" y2="-18.6"/>
			<line fill="none" stroke="#00AEEF" stroke-width="3" stroke-miterlimit="10" x1="-596.2" y1="790" x2="212.4" y2="-18.6"/>
			<line fill="none" stroke="#00AEEF" stroke-width="3" stroke-miterlimit="10" x1="-580.9" y1="790" x2="227.7" y2="-18.6"/>
			<line fill="none" stroke="#00AEEF" stroke-width="3" stroke-miterlimit="10" x1="-565.6" y1="790" x2="243" y2="-18.6"/>
			<line fill="none" stroke="#00AEEF" stroke-width="3" stroke-miterlimit="10" x1="-550.3" y1="790" x2="258.3" y2="-18.6"/>
			<line fill="none" stroke="#00AEEF" stroke-width="3" stroke-miterlimit="10" x1="-535" y1="790" x2="273.6" y2="-18.6"/>
			<line fill="none" stroke="#00AEEF" stroke-width="3" stroke-miterlimit="10" x1="-519.7" y1="790" x2="288.9" y2="-18.6"/>
			<line fill="none" stroke="#00AEEF" stroke-width="3" stroke-miterlimit="10" x1="-504.3" y1="790" x2="304.3" y2="-18.6"/>
			<line fill="none" stroke="#00AEEF" stroke-width="3" stroke-miterlimit="10" x1="-489" y1="790" x2="319.6" y2="-18.6"/>
			<line fill="none" stroke="#00AEEF" stroke-width="3" stroke-miterlimit="10" x1="-473.7" y1="790" x2="334.9" y2="-18.6"/>
			<line fill="none" stroke="#00AEEF" stroke-width="3" stroke-miterlimit="10" x1="-458.4" y1="790" x2="350.2" y2="-18.6"/>
			<line fill="none" stroke="#00AEEF" stroke-width="3" stroke-miterlimit="10" x1="-443.1" y1="790" x2="365.5" y2="-18.6"/>
			<line fill="none" stroke="#00AEEF" stroke-width="3" stroke-miterlimit="10" x1="-427.8" y1="790" x2="380.8" y2="-18.6"/>
			<line fill="none" stroke="#00AEEF" stroke-width="3" stroke-miterlimit="10" x1="-412.4" y1="790" x2="396.2" y2="-18.6"/>
			<line fill="none" stroke="#00AEEF" stroke-width="3" stroke-miterlimit="10" x1="-397.1" y1="790" x2="411.5" y2="-18.6"/>
			<line fill="none" stroke="#00AEEF" stroke-width="3" stroke-miterlimit="10" x1="-381.8" y1="790" x2="426.8" y2="-18.6"/>
			<line fill="none" stroke="#00AEEF" stroke-width="3" stroke-miterlimit="10" x1="-351.2" y1="790" x2="457.4" y2="-18.6"/>
			<line fill="none" stroke="#00AEEF" stroke-width="3" stroke-miterlimit="10" x1="-366.5" y1="790" x2="442.1" y2="-18.6"/>
		</g>
		<g>
			<line fill="none" stroke="#00AEEF" stroke-width="3" stroke-miterlimit="10" x1="-335.7" y1="790" x2="472.9" y2="-18.6"/>
			<line fill="none" stroke="#00AEEF" stroke-width="3" stroke-miterlimit="10" x1="-320.4" y1="790" x2="488.2" y2="-18.6"/>
			<line fill="none" stroke="#00AEEF" stroke-width="3" stroke-miterlimit="10" x1="-305.1" y1="790" x2="503.5" y2="-18.6"/>
			<line fill="none" stroke="#00AEEF" stroke-width="3" stroke-miterlimit="10" x1="-289.8" y1="790" x2="518.8" y2="-18.6"/>
			<polyline fill="none" stroke="#00AEEF" stroke-width="3" stroke-miterlimit="10" points="-274.5,790 -21.8,537.4 534.1,-18.6 			
				"/>
			<line fill="none" stroke="#00AEEF" stroke-width="3" stroke-miterlimit="10" x1="-259.2" y1="790" x2="549.4" y2="-18.6"/>
			<line fill="none" stroke="#00AEEF" stroke-width="3" stroke-miterlimit="10" x1="-243.8" y1="790" x2="564.8" y2="-18.6"/>
			<line fill="none" stroke="#00AEEF" stroke-width="3" stroke-miterlimit="10" x1="-228.5" y1="790" x2="580.1" y2="-18.6"/>
			<line fill="none" stroke="#00AEEF" stroke-width="3" stroke-miterlimit="10" x1="-213.2" y1="790" x2="595.4" y2="-18.6"/>
			<line fill="none" stroke="#00AEEF" stroke-width="3" stroke-miterlimit="10" x1="-197.9" y1="790" x2="610.7" y2="-18.6"/>
			<line fill="none" stroke="#00AEEF" stroke-width="3" stroke-miterlimit="10" x1="-182.6" y1="790" x2="626" y2="-18.6"/>
			<line fill="none" stroke="#00AEEF" stroke-width="3" stroke-miterlimit="10" x1="-167.2" y1="790" x2="641.3" y2="-18.6"/>
			<line fill="none" stroke="#00AEEF" stroke-width="3" stroke-miterlimit="10" x1="-151.9" y1="790" x2="656.7" y2="-18.6"/>
			<line fill="none" stroke="#00AEEF" stroke-width="3" stroke-miterlimit="10" x1="-136.6" y1="790" x2="672" y2="-18.6"/>
			<line fill="none" stroke="#00AEEF" stroke-width="3" stroke-miterlimit="10" x1="-121.3" y1="790" x2="687.3" y2="-18.6"/>
			<line fill="none" stroke="#00AEEF" stroke-width="3" stroke-miterlimit="10" x1="-106" y1="790" x2="702.6" y2="-18.6"/>
			<line fill="none" stroke="#00AEEF" stroke-width="3" stroke-miterlimit="10" x1="-90.7" y1="790" x2="717.9" y2="-18.6"/>
			<line fill="none" stroke="#00AEEF" stroke-width="3" stroke-miterlimit="10" x1="-75.3" y1="790" x2="733.3" y2="-18.6"/>
			<line fill="none" stroke="#00AEEF" stroke-width="3" stroke-miterlimit="10" x1="-60" y1="790" x2="748.6" y2="-18.6"/>
			<line fill="none" stroke="#00AEEF" stroke-width="3" stroke-miterlimit="10" x1="-44.7" y1="790" x2="763.9" y2="-18.6"/>
			<line fill="none" stroke="#00AEEF" stroke-width="3" stroke-miterlimit="10" x1="-29.4" y1="790" x2="779.2" y2="-18.6"/>
			<line fill="none" stroke="#00AEEF" stroke-width="3" stroke-miterlimit="10" x1="-14.1" y1="790" x2="794.5" y2="-18.6"/>
			<line fill="none" stroke="#00AEEF" stroke-width="3" stroke-miterlimit="10" x1="1.2" y1="790" x2="809.8" y2="-18.6"/>
			<line fill="none" stroke="#00AEEF" stroke-width="3" stroke-miterlimit="10" x1="16.6" y1="790" x2="825.2" y2="-18.6"/>
			<line fill="none" stroke="#00AEEF" stroke-width="3" stroke-miterlimit="10" x1="31.9" y1="790" x2="840.5" y2="-18.6"/>
			<line fill="none" stroke="#00AEEF" stroke-width="3" stroke-miterlimit="10" x1="47.2" y1="790" x2="855.8" y2="-18.6"/>
			<line fill="none" stroke="#00AEEF" stroke-width="3" stroke-miterlimit="10" x1="62.5" y1="790" x2="871.1" y2="-18.6"/>
			<line fill="none" stroke="#00AEEF" stroke-width="3" stroke-miterlimit="10" x1="77.8" y1="790" x2="886.4" y2="-18.6"/>
			<line fill="none" stroke="#00AEEF" stroke-width="3" stroke-miterlimit="10" x1="93.1" y1="790" x2="901.7" y2="-18.6"/>
			<line fill="none" stroke="#00AEEF" stroke-width="3" stroke-miterlimit="10" x1="108.5" y1="790" x2="917.1" y2="-18.6"/>
			<line fill="none" stroke="#00AEEF" stroke-width="3" stroke-miterlimit="10" x1="123.8" y1="790" x2="932.4" y2="-18.6"/>
			<line fill="none" stroke="#00AEEF" stroke-width="3" stroke-miterlimit="10" x1="139.1" y1="790" x2="947.7" y2="-18.6"/>
			<line fill="none" stroke="#00AEEF" stroke-width="3" stroke-miterlimit="10" x1="154.4" y1="790" x2="963" y2="-18.6"/>
			<line fill="none" stroke="#00AEEF" stroke-width="3" stroke-miterlimit="10" x1="169.7" y1="790" x2="978.3" y2="-18.6"/>
			<line fill="none" stroke="#00AEEF" stroke-width="3" stroke-miterlimit="10" x1="185.1" y1="790" x2="993.6" y2="-18.6"/>
			<line fill="none" stroke="#00AEEF" stroke-width="3" stroke-miterlimit="10" x1="200.4" y1="790" x2="1009" y2="-18.6"/>
			<line fill="none" stroke="#00AEEF" stroke-width="3" stroke-miterlimit="10" x1="215.7" y1="790" x2="1024.3" y2="-18.6"/>
			<line fill="none" stroke="#00AEEF" stroke-width="3" stroke-miterlimit="10" x1="231" y1="790" x2="1039.6" y2="-18.6"/>
			<line fill="none" stroke="#00AEEF" stroke-width="3" stroke-miterlimit="10" x1="246.3" y1="790" x2="1054.9" y2="-18.6"/>
			<line fill="none" stroke="#00AEEF" stroke-width="3" stroke-miterlimit="10" x1="261.6" y1="790" x2="1070.2" y2="-18.6"/>
			<line fill="none" stroke="#00AEEF" stroke-width="3" stroke-miterlimit="10" x1="277" y1="790" x2="1085.6" y2="-18.6"/>
			<line fill="none" stroke="#00AEEF" stroke-width="3" stroke-miterlimit="10" x1="292.3" y1="790" x2="1100.9" y2="-18.6"/>
			<line fill="none" stroke="#00AEEF" stroke-width="3" stroke-miterlimit="10" x1="307.6" y1="790" x2="1116.2" y2="-18.6"/>
			<line fill="none" stroke="#00AEEF" stroke-width="3" stroke-miterlimit="10" x1="322.9" y1="790" x2="1131.5" y2="-18.6"/>
			<line fill="none" stroke="#00AEEF" stroke-width="3" stroke-miterlimit="10" x1="353.5" y1="790" x2="1162.1" y2="-18.6"/>
			<line fill="none" stroke="#00AEEF" stroke-width="3" stroke-miterlimit="10" x1="338.2" y1="790" x2="1146.8" y2="-18.6"/>
		</g>
		<g>
			<line fill="none" stroke="#00AEEF" stroke-width="3" stroke-miterlimit="10" x1="368.9" y1="790" x2="1177.5" y2="-18.6"/>
			<line fill="none" stroke="#00AEEF" stroke-width="3" stroke-miterlimit="10" x1="384.2" y1="790" x2="1192.8" y2="-18.6"/>
			<line fill="none" stroke="#00AEEF" stroke-width="3" stroke-miterlimit="10" x1="399.5" y1="790" x2="1208.1" y2="-18.6"/>
			<line fill="none" stroke="#00AEEF" stroke-width="3" stroke-miterlimit="10" x1="414.9" y1="790" x2="1223.5" y2="-18.6"/>
			<polyline fill="none" stroke="#00AEEF" stroke-width="3" stroke-miterlimit="10" points="430.2,790 682.8,537.4 1238.8,-18.6 			
				"/>
			<line fill="none" stroke="#00AEEF" stroke-width="3" stroke-miterlimit="10" x1="445.5" y1="790" x2="1254.1" y2="-18.6"/>
			<line fill="none" stroke="#00AEEF" stroke-width="3" stroke-miterlimit="10" x1="460.8" y1="790" x2="1269.4" y2="-18.6"/>
			<line fill="none" stroke="#00AEEF" stroke-width="3" stroke-miterlimit="10" x1="476.1" y1="790" x2="1284.7" y2="-18.6"/>
			<line fill="none" stroke="#00AEEF" stroke-width="3" stroke-miterlimit="10" x1="491.4" y1="790" x2="1300" y2="-18.6"/>
			<line fill="none" stroke="#00AEEF" stroke-width="3" stroke-miterlimit="10" x1="506.8" y1="790" x2="1315.4" y2="-18.6"/>
			<line fill="none" stroke="#00AEEF" stroke-width="3" stroke-miterlimit="10" x1="522.1" y1="790" x2="1330.7" y2="-18.6"/>
			<line fill="none" stroke="#00AEEF" stroke-width="3" stroke-miterlimit="10" x1="537.4" y1="790" x2="1346" y2="-18.6"/>
			<line fill="none" stroke="#00AEEF" stroke-width="3" stroke-miterlimit="10" x1="552.7" y1="790" x2="1361.3" y2="-18.6"/>
			<line fill="none" stroke="#00AEEF" stroke-width="3" stroke-miterlimit="10" x1="568" y1="790" x2="1376.6" y2="-18.6"/>
			<line fill="none" stroke="#00AEEF" stroke-width="3" stroke-miterlimit="10" x1="583.4" y1="790" x2="1391.9" y2="-18.6"/>
			<line fill="none" stroke="#00AEEF" stroke-width="3" stroke-miterlimit="10" x1="598.7" y1="790" x2="1407.3" y2="-18.6"/>
			<line fill="none" stroke="#00AEEF" stroke-width="3" stroke-miterlimit="10" x1="614" y1="790" x2="1422.6" y2="-18.6"/>
			<line fill="none" stroke="#00AEEF" stroke-width="3" stroke-miterlimit="10" x1="629.3" y1="790" x2="1437.9" y2="-18.6"/>
			<line fill="none" stroke="#00AEEF" stroke-width="3" stroke-miterlimit="10" x1="644.6" y1="790" x2="1453.2" y2="-18.6"/>
			<line fill="none" stroke="#00AEEF" stroke-width="3" stroke-miterlimit="10" x1="659.9" y1="790" x2="1468.5" y2="-18.6"/>
			<line fill="none" stroke="#00AEEF" stroke-width="3" stroke-miterlimit="10" x1="675.3" y1="790" x2="1483.9" y2="-18.6"/>
			<line fill="none" stroke="#00AEEF" stroke-width="3" stroke-miterlimit="10" x1="690.6" y1="790" x2="1499.2" y2="-18.6"/>
			<line fill="none" stroke="#00AEEF" stroke-width="3" stroke-miterlimit="10" x1="705.9" y1="790" x2="1514.5" y2="-18.6"/>
			<line fill="none" stroke="#00AEEF" stroke-width="3" stroke-miterlimit="10" x1="721.2" y1="790" x2="1529.8" y2="-18.6"/>
			<line fill="none" stroke="#00AEEF" stroke-width="3" stroke-miterlimit="10" x1="736.5" y1="790" x2="1545.1" y2="-18.6"/>
			<line fill="none" stroke="#00AEEF" stroke-width="3" stroke-miterlimit="10" x1="751.8" y1="790" x2="1560.4" y2="-18.6"/>
			<line fill="none" stroke="#00AEEF" stroke-width="3" stroke-miterlimit="10" x1="767.2" y1="790" x2="1575.8" y2="-18.6"/>
			<line fill="none" stroke="#00AEEF" stroke-width="3" stroke-miterlimit="10" x1="782.5" y1="790" x2="1591.1" y2="-18.6"/>
			<line fill="none" stroke="#00AEEF" stroke-width="3" stroke-miterlimit="10" x1="797.8" y1="790" x2="1606.4" y2="-18.6"/>
			<line fill="none" stroke="#00AEEF" stroke-width="3" stroke-miterlimit="10" x1="813.1" y1="790" x2="1621.7" y2="-18.6"/>
			<line fill="none" stroke="#00AEEF" stroke-width="3" stroke-miterlimit="10" x1="828.4" y1="790" x2="1637" y2="-18.6"/>
			<line fill="none" stroke="#00AEEF" stroke-width="3" stroke-miterlimit="10" x1="843.7" y1="790" x2="1652.3" y2="-18.6"/>
			<line fill="none" stroke="#00AEEF" stroke-width="3" stroke-miterlimit="10" x1="859.1" y1="790" x2="1667.7" y2="-18.6"/>
			<line fill="none" stroke="#00AEEF" stroke-width="3" stroke-miterlimit="10" x1="874.4" y1="790" x2="1683" y2="-18.6"/>
			<line fill="none" stroke="#00AEEF" stroke-width="3" stroke-miterlimit="10" x1="889.7" y1="790" x2="1698.3" y2="-18.6"/>
			<line fill="none" stroke="#00AEEF" stroke-width="3" stroke-miterlimit="10" x1="905" y1="790" x2="1713.6" y2="-18.6"/>
			<line fill="none" stroke="#00AEEF" stroke-width="3" stroke-miterlimit="10" x1="920.3" y1="790" x2="1728.9" y2="-18.6"/>
			<line fill="none" stroke="#00AEEF" stroke-width="3" stroke-miterlimit="10" x1="935.7" y1="790" x2="1744.2" y2="-18.6"/>
			<line fill="none" stroke="#00AEEF" stroke-width="3" stroke-miterlimit="10" x1="951" y1="790" x2="1759.6" y2="-18.6"/>
			<line fill="none" stroke="#00AEEF" stroke-width="3" stroke-miterlimit="10" x1="966.3" y1="790" x2="1774.9" y2="-18.6"/>
			<line fill="none" stroke="#00AEEF" stroke-width="3" stroke-miterlimit="10" x1="981.6" y1="790" x2="1790.2" y2="-18.6"/>
			<line fill="none" stroke="#00AEEF" stroke-width="3" stroke-miterlimit="10" x1="996.9" y1="790" x2="1805.5" y2="-18.6"/>
			<line fill="none" stroke="#00AEEF" stroke-width="3" stroke-miterlimit="10" x1="1012.2" y1="790" x2="1820.8" y2="-18.6"/>
			<line fill="none" stroke="#00AEEF" stroke-width="3" stroke-miterlimit="10" x1="1027.6" y1="790" x2="1836.2" y2="-18.6"/>
			<line fill="none" stroke="#00AEEF" stroke-width="3" stroke-miterlimit="10" x1="1058.2" y1="790" x2="1866.8" y2="-18.6"/>
			<line fill="none" stroke="#00AEEF" stroke-width="3" stroke-miterlimit="10" x1="1042.9" y1="790" x2="1851.5" y2="-18.6"/>
		</g>
	</g>
</g>
<polygon fill="#00ABC5" points="1500,286.8 0,286.8 0,24.8 1500,39.8 "/>
</svg>
