<?xml version="1.0" encoding="utf-8"?>
<!-- Generator: Adobe Illustrator 19.0.0, SVG Export Plug-In . SVG Version: 6.00 Build 0)  -->
<svg version="1.1" id="Layer_1" xmlns="http://www.w3.org/2000/svg" xmlns:xlink="http://www.w3.org/1999/xlink" x="0px" y="0px"
	 viewBox="0 0 811.7 505.9" style="enable-background:new 0 0 811.7 505.9;" xml:space="preserve">
<style type="text/css">
	.st0{fill-rule:evenodd;clip-rule:evenodd;fill:#F04C26;}
</style>
<g>
	<path class="st0" d="M434.9,9.7c-0.5-0.5,0.6-1.1,0.9-0.9C436.2,9.3,435.2,9.9,434.9,9.7z"/>
	<path class="st0" d="M335.4,51.1c-0.5-0.5,0.6-1.1,0.9-0.9C336.8,50.6,335.7,51.3,335.4,51.1z"/>
	<path class="st0" d="M533.5,62.5c-0.5-0.5,0.6-1.1,0.9-0.9C534.9,62.1,533.8,62.8,533.5,62.5z"/>
	<path class="st0" d="M431.4,100.4c0-0.9,1.1-0.7,1.8-0.9C433.1,100.3,432.1,100.2,431.4,100.4z"/>
	<path class="st0" d="M673.5,146.1c2.9-3.4,1.5,4.9,6.2,2.6c-1.3,1.7-2,3.9-5.3,3.5c0-0.9,1.1-0.7,1.8-0.9
		C675.5,149.5,675.6,146.7,673.5,146.1z"/>
	<path class="st0" d="M316.9,149.7c0.2-1.1,1.8-0.9,1.8,0C318.3,150.9,317.9,149.6,316.9,149.7z"/>
	<path class="st0" d="M672.6,150.5c-0.5-0.5,0.6-1.1,0.9-0.9C674,150.1,672.9,150.8,672.6,150.5z"/>
	<path class="st0" d="M801.2,168.2c0-0.9,1.1-0.7,1.8-0.9C802.9,168.1,801.8,168,801.2,168.2z"/>
	<path class="st0" d="M355.7,210.4c0.6,0,1.2,0,1.8,0c0,0.6,0,1.2,0,1.8c-0.6,0-1.2,0-1.8,0C355.7,211.6,355.7,211,355.7,210.4z"/>
	<path class="st0" d="M82.8,216.6c3.3,1.6,3.3,6.7,5.3,9.7c-0.3,7.2,1.6,11.8,1.8,20.2c2.7,10.5,7.7,22.5,6.2,34.3
		c7.1,3.4,10.9,1.8,18.5,2.6c3.5,2.4,6.5,5.2,9.7,7.9c3.2,8.2,3.5,19.4,3.5,30.8c-2.5,7.5-3.6,16.4-6.2,23.8
		c-0.7,5.3-0.8,12.5-0.9,15.8c-3.8,0.6-5-1.5-8.8-0.9c0-1.6,2.4-5.1,0-6.2c3.6-14.9,7.6-28.5,7-43.1c-0.4-3.7-2.6-5.6-3.5-8.8
		c-0.7-2.8-4.5-2.5-5.3-5.3c-3.7,0-4.1-2-7.9-3.5c-2.8-0.2-6.5,0.6-7.9-0.9c-2.5,1.3-0.9,6.7-3.5,7.9c2.3,6.1,2.1,13.6,2.6,19.4
		c1.7,4.5,5.3,10,6.2,16.7c1.1,9.1-0.1,18.7-2.6,23.8c-8.5,0.8-6.5-8.7-10.6-12.3c0.6-4.2-1-6.1-0.9-9.7c-0.6-4.4,1.5-6.1,0.9-10.6
		c-2.2-8.3-4.2-21.3-0.9-29.9c-2.8-28.1-10.7-51.1-7.9-77.5c1-0.2,0.6-1.8,1.8-1.8c-0.2-1.4,0.8-1.5,0.9-2.6
		C81,216.6,81.9,216.6,82.8,216.6z"/>
	<path class="st0" d="M216.6,224.5c-0.5-0.5,0.6-1.1,0.9-0.9C217.9,224.1,216.8,224.7,216.6,224.5z"/>
	<path class="st0" d="M227.1,297.6c5.8-0.6,7-5.9,8.8-10.6c3.4-3.3,6.8-6.7,8.8-11.4c4.1-1.5,5.9-5.2,8.8-7.9c2.8,0.1,5.3,0,6.2-1.8
		c2.7,2.5,5.6,5,2.6,8.8c0.6,5.6-3.2,6.8-3.5,11.4c-4.3,2.4-6.1,7.4-11.4,8.8c-0.1,4-2.2,6.1-2.6,9.7c2.5,7.2,7.4,12,10.6,18.5
		c3.4,6,5.5,13.3,10.6,17.6c0.7,1.9,0.8,4.1,1.8,6.2c0.2,0.4,1.6,0.6,1.8,0.9c0.6,1.4,0.1,2.5,0.9,4.4c0.6,1.6,2.2,3.8,2.6,5.3
		c0.6,2.1,0.6,3.3,0.9,5.3c0.3,4.2-7.5,0.8-4.4,3.5c-0.9,2.7-2.4-1-2.6-1.8c0.4-2.1-1.6-1.9-0.9-4.4c-1.1-2.4-3.1-4-3.5-7
		c-1.9-5.4-6.3-8.4-7.9-14.1c-4.6-2.8-5.1-9.6-8.8-13.2c-2.1-5.3-4.1-10.6-8.8-13.2c-3.9,2-8.2,3.6-10.6,7c0,6,0,8.6,0.9,12.3
		c-0.2,14.6,0.2,21,3.5,30.8c-1,0.1-0.7,1.6-0.9,2.6c-1.8,1.7-1.4,3.2-4.4,1.8c-0.5,2.8,3.2,1.2,0.9,3.5c-1.2,0.6-1.6,1.9-1.8,3.5
		c-3.2-0.9-5.3-2.9-7.9-4.4c-2.1-23.4-1.9-48,0-74.8c-1.6-6.1-0.6-14.6-0.9-22c-3.5-14.9-2.4-24.5-4.4-39.6c1.2-2.3,1.7-5.3,2.6-7.9
		c0.6,0,1.2,0,1.8,0c4.2,0.5,5.6,3.8,7.9,6.2c-0.1,2.2-0.1,4.2,0.9,5.3c-0.6,7.6,1.2,15.2,0,18.5
		C226.8,269.8,223.1,283.8,227.1,297.6z M219.2,325.7c0.6,0,1.2,0,1.8,0c0-0.6,0-1.2,0-1.8c-0.6,0-1.2,0-1.8,0
		C219.2,324.6,219.2,325.2,219.2,325.7z"/>
	<path class="st0" d="M146.1,258.8c4.1,6.1,2.4,16.3,0,22.9c-8.9,4-11.5-4.6-15-8.8c0.4-3-0.3-4.9-0.9-7c1.9,0.2,2.8-0.7,2.6-2.6
		C136.5,260.9,139.2,257.8,146.1,258.8z"/>
	<path class="st0" d="M65.7,291.4c-3.5-3-4.5-8.4-7-12.3c-1.3-2.2-3.4-3.6-6.2-4.4c-1.6-1.9-2.6-4.4-5.3-5.3
		c-3.4-0.5-4.3,1.6-7.9,0.9c-8.9,8.7-11.2,24.1-14.1,38.7c1,6.9,2.5,13.4,5.3,18.5c2.5,5.7,8.6,7.8,10.6,14.1
		c1.4,1.3,7.4,0,10.6,1.8c7.5-3.6,12.3-10.1,15-18.5c0.8-4.5-0.3-6.6,0-12.3c-1.7-0.1,0.5-3.4,1.8-3.5c0.1-2.2,2.9-1.7,5.3-1.8
		c3.6,0.8,3.9,4.9,4.4,8.8c0.1,4.5-1.5,7.3-0.9,12.3c-2.2,4-3.9,8.4-5.3,13.2c-2.4,1.4-4.2,3.4-5.3,6.2c-4.6,0.9-6.9,4.3-11.4,5.3
		c-10.9-0.5-16-1.3-23.8-4.4c-4.4-5.9-7.7-12.8-12.3-18.5c-1-4.7-2.1-9.2-3.5-15c-2.1-8.3,1.5-18.4,4.4-26.4c-0.3-9.4,4.2-14,7-20.2
		c5.1-2,8.3-5.8,14.1-7c4.3,0.3,4.9,2.2,8.8,0.9c1,3.1,6,2.2,7.9,4.4c2.9,0.9,4.1,3.5,7,4.4c-1.1,1.9,1.5,3,1.8,4.4
		C67.6,280.6,65.5,286.2,65.7,291.4z M41,263.2c-0.2-0.2-1.3,0.4-0.9,0.9C40.4,264.4,41.5,263.7,41,263.2z M36.6,346
		c-0.2-0.2-1.3,0.4-0.9,0.9C36,347.1,37.1,346.4,36.6,346z M40.1,347.8c-0.7,0.2-1.7,0-1.8,0.9C39.1,348.4,40.1,348.6,40.1,347.8z"
		/>
	<path class="st0" d="M155.8,267.6c0.2-1,0.9-0.5,0.9,0C156.5,268.6,155.8,268.1,155.8,267.6z"/>
	<path class="st0" d="M276.4,269.4c0.1-1,1.6-0.7,2.6-0.9c1.2,0,2.3,0,3.5,0C282.2,270.5,278.3,268.9,276.4,269.4z"/>
	<path class="st0" d="M360.1,272.9c1.7-0.4,2.8,4,0.9,4.4C357.8,278.2,359.4,273.5,360.1,272.9z"/>
	<path class="st0" d="M198.6,310.8c-3.4-1.6-4.2-5.8-5.3-9.7c-3.5-1.2-3.3-6.1-5.3-8.8c-3.3,0.2-5.3-2-7.9-1.8
		c-5.2,0.4-7.1,5-9.7,8.8c1.4,6.2-0.7,11.9,0,18.5c1.1,9.9,7.2,18.5,7.9,28.2c11.5,9,22.1-3.6,22-16.7c2.8-0.1,3.9-2,7-1.8
		c1.3,12.3-0.5,26.2-7.9,32.6c-3.2,0.1-4.3,2.2-7,2.6c-9.3,0.2-13-5.2-18.5-8.8c-2.3-6.5-6.1-14.5-7.9-22.9
		c-0.9-4.4-0.9-9.3-1.8-14.1c-0.8-4.2-2.6-8.5-2.6-12.3c-0.1-5,2.3-9.9,2.6-15c2.7-1.4,3.8-4.5,5.3-7c5.4,0,9.7-2.9,16.7-3.5
		c7.7,5.5,13.1,13.3,15.8,23.8c-2.2-0.4,2.1,4-0.9,4.4C201,309.1,198.8,309,198.6,310.8z"/>
	<path class="st0" d="M476.3,282.6c-1.4,0.7,0.2,4.3-2.6,3.5C473.4,283.8,474,282.3,476.3,282.6z"/>
	<path class="st0" d="M10.6,289.6c-1.5,1.4-6.1,1-6.2-1.8C7.6,288.5,10.5,285.1,10.6,289.6z"/>
	<path class="st0" d="M132.1,291.4c-0.5-0.5,0.6-1.1,0.9-0.9C133.4,291,132.3,291.7,132.1,291.4z"/>
	<path class="st0" d="M140.9,291.4c5.5-0.2,4.3,6.3,7,8.8c0.1,4,0.7,3.5,0,7c5.2,14.5,7.2,32.1,12.3,46.7c-0.7,3.7-4.1,4.7-6.2,7
		c-5-0.3-5.9-1.9-9.7-1.8c-2-6.5-2.9-14.2-5.3-20.2c-0.8-13.4-0.1-24.4-3.5-36.1C137.2,298.9,136.4,292.6,140.9,291.4z"/>
	<path class="st0" d="M310.8,293.2c1.1,0.4,1.8,1.1,1.8,2.6C311.5,295.4,310.7,294.7,310.8,293.2z"/>
	<path class="st0" d="M324.9,297.6c0.6,2.6,1,5.5,2.6,7c7.5-1.3,8.6,3.7,15,3.5c0.8,3,1.5,6.1,3.5,7.9c1.2,8.6,0.6,14.3,1.8,22
		c-2,3-0.8,9.1-5.3,9.7c0.2-2.2-2-2.1-2.6-3.5c0-2.1,0-4.1,0-6.2c-1-2.6-0.8-6.2-1.8-8.8c0.3-3,1.4-5.1,0.9-8.8
		c-1.8-5.2-6.2-7.9-10.6-10.6c-2.5,0.1-1.9,2.7-2.6,4.4c-1.5,3.5-2.1,5.7-0.9,11.4c0.9,4.3,2.4,12.9,2.6,17.6
		c-0.2,2.5-1.6,3.7-1.8,6.2c2.6,1-3.2,0.8-1.8,3.5c-2.5-0.7-3-3.5-4.4-5.3c-0.6-2.7,0.9-3.2,0.9-5.3c-4.2-11.7-2.5-29.7-5.3-40.5
		c1.5-2.1,1.9-5.1,4.4-6.2C321.2,296.5,322.8,297.3,324.9,297.6z"/>
	<path class="st0" d="M7,305.5c-3.2,0.2-4.2-1.6-7-1.8C1.4,301.2,8.7,299.2,7,305.5z"/>
	<path class="st0" d="M368,304.6c2.3-0.3,2.9,1.2,2.6,3.5c-0.9,0-1.8,0-2.6,0C368,307,368,305.8,368,304.6z"/>
	<path class="st0" d="M369.8,323.1c0.6,0,1.2,0,1.8,0c0,0.6,0,1.2,0,1.8c-0.6,0-1.2,0-1.8,0C369.8,324.3,369.8,323.7,369.8,323.1z"
		/>
	<path class="st0" d="M378.6,323.1c1.1,0.4,1.8,1.1,1.8,2.6C378.4,326.2,378.7,324.5,378.6,323.1z"/>
	<path class="st0" d="M369.8,337.2c0-0.9,1.1-0.7,1.8-0.9C371.5,337.2,370.4,337,369.8,337.2z"/>
	<path class="st0" d="M18.5,350.4c-0.5-0.5,0.6-1.1,0.9-0.9C19.8,350,18.7,350.6,18.5,350.4z"/>
	<path class="st0" d="M237.7,375c-0.4,1.1-1.1,1.8-2.6,1.8C235.4,375.7,236.2,375,237.7,375z"/>
	<path class="st0" d="M280,384.7c2.4-2.6,6.5,0.5,9.7,0c3.1,2.2,4.5,6.1,8.8,7c2.7,5.2,6.8,9,9.7,14.1c3.4,15,3.6,32.9,2.6,51.9
		c-2.6,3.9-4.5,8.4-7.9,11.4c-4.2,1.9-4.9,7.4-10.6,7.9c-8.8,0.5-13.1-7-18.5-12.3c-4.9-14.2-6.8-33.4-7.9-51.1
		c1.9-6,2.4-13.4,3.5-20.2c2.7-2.6,3.7-6.8,7-8.8C277.6,384.7,278.8,384.7,280,384.7z M285.2,397.9c-5.4,0.8-9.2,4.6-10.6,9.7
		c-1,3.9,0.1,9.1,0,13.2c-0.1,4.7-0.9,8,0,10.6c4.1,0.2,3.9-3.7,7-4.4c1.6-2.2,2.7-5,5.3-6.2c2.7-5.2,6.3-9.6,9.7-14.1
		C294.6,402.1,291.2,398.8,285.2,397.9z M297.6,424.3c-3,4.3-6.3,8.3-10.6,11.4c-2,5.6-7.8,7.4-8.8,14.1c1.9,4.5,3.3,9.6,8.8,10.6
		c5.9,0.9,4.8-5.2,9.7-5.3c0.7-4.2,3.7-6.3,4.4-10.6c0.5-8.4-2.1-14.9,0.9-21.1c-0.2-0.7-0.7-1-1.8-0.9
		C299.9,423.7,299.1,424.4,297.6,424.3z"/>
	<path class="st0" d="M336.3,464c-6.4-1.2-7-8.2-14.1-8.8c-0.7-4.3-3.7-6.3-5.3-9.7c-0.3-5.8-0.3-6.8-0.9-11.4
		c-0.5-4.9,0.9-9.6,0-12.3c2.7-9.7,2.8-16.8,3.5-27.3c1.6-1.3,2.1-3.8,3.5-5.3c5.2-0.5,7.8,1.5,13.2,0.9c1.2,2.9,5,3.2,7,5.3
		c1,6,3.3,10.8,5.3,15.8c0.7,16.9,2.5,27.8,0.9,42.3c-1.6,1.9-3.4,3.6-4.4,6.2C341.5,460.4,339,462.3,336.3,464z M329.3,402.3
		c-9.8-0.1-7.7,16.2-7,26.4c5.5,0.8,6.6-2.8,8.8-5.3c3.7-1,4.5-4.9,7-7C336.4,409.1,335.2,402.4,329.3,402.3z M335.4,429.6
		c-3.9,3.7-6.4,8.9-8.8,14.1c1.9,2.5,2.1,6.7,6.2,7c4.4,0,6.1-2.7,8.8-4.4C340.4,440.1,343.7,430.5,335.4,429.6z"/>
	<path class="st0" d="M246.5,479.8c-3.9-1.8-7.2,0.9-11.4-0.9c-3.6-3.2-4.5-9-9.7-10.6c-0.3-4.7-2.7-7.3-4.4-10.6
		c0.6-1.5,2-0.5,1.8,0.9c1.9-0.4,1.2-5.2-1.8-3.5c-0.6-2.4,1.8-1.8,1.8-3.5c-0.2-1.8-2.3,1.3-3.5-0.9c0.1-1,1.6-0.7,2.6-0.9
		c0.4-1.9-1.3-1.7-2.6-1.8c1.8-10.2,0.1-21.1-0.9-32.6c0.9-3.8,2.3-7.1,1.8-12.3c2.8-2.5,5.2-5.4,5.3-10.6c2.2-0.1,3.1-1.6,4.4-2.6
		c4.9-0.7,8.3,1.4,11.4,0c1.8,2,4.5,3.1,7,4.4c4.7,8.4,8.7,20.2,10.6,31.7c0.4,2.6,0.7,5.9,0.9,8.8c0.3,4.9,0.3,10.3-0.9,14.1
		c3.1,9-1.8,15.9-4.4,22C250.9,473.1,246.7,474.5,246.5,479.8z M228.9,407.6c-1.9,8.1-2.8,21.8-0.9,30.8c7.1,1.2,7.6-4.1,8.8-8.8
		c3.8-4.1,7.2-8.7,7.9-15.8C243.1,407.2,236,404,228.9,407.6z M238.6,442c-0.1,0.3-1.5,0.5-1.8,0.9c-0.7,1.1-0.2,2.5-0.9,3.5
		c-0.5,0.7-2.3,1-2.6,1.8c-1,2-0.4,5.2-1.8,7c3,3.5,3.4,9.5,8.8,10.6c3.4-1.3,5.9-3.5,5.3-8.8c2-0.9,3.2-2.7,3.5-5.3
		c-1.3-6.1,0.8-13.8,0-22c-0.2-0.7-0.7-1-1.8-0.9C244,432.7,240.5,437.6,238.6,442z M237.7,467.5c0-0.5-0.7-1-0.9,0
		C236.8,468,237.5,468.5,237.7,467.5z"/>
	<path class="st0" d="M380.3,392.7c-0.4,1.1-1.1,1.8-2.6,1.8C377.3,392.5,378.9,392.7,380.3,392.7z"/>
	<path class="st0" d="M426.1,404.1c0-0.9,1.1-0.7,1.8-0.9C427.8,404.1,426.8,403.9,426.1,404.1z"/>
	<path class="st0" d="M395.3,413.8c0,3.8-4.6-0.6-7.9,0.9c-2.8-1.2,3.1-0.9,4.4-0.9C392.3,413.5,395.2,411.6,395.3,413.8z"/>
	<path class="st0" d="M486.9,434c2.2-1.5,8.5,0.2,11.4,0.9C496.4,438.7,488.9,435.7,486.9,434z"/>
	<path class="st0" d="M376.8,453.4c0.2-1,0.9-0.5,0.9,0C377.5,454.4,376.8,453.9,376.8,453.4z"/>
	<path class="st0" d="M375.9,456.9c0.2-1,0.9-0.5,0.9,0C376.6,457.9,375.9,457.4,375.9,456.9z"/>
	<path class="st0" d="M498.3,487.7c0.2-1.1,1.8-0.9,1.8,0C499.7,489,499.3,487.6,498.3,487.7z"/>
	<path class="st0" d="M157.6,505.3c0.2-1,0.9-0.5,0.9,0C158.3,506.3,157.6,505.8,157.6,505.3z"/>
	<path class="st0" d="M214.1,488.6c-1.4,0.7,0.2,4.3-2.6,3.5C211.2,489.8,211.8,488.3,214.1,488.6z"/>
	<g>
		<path class="st0" d="M670,132.1c9.4,0.6,7.4-10.2,12.3-14.1c2.8-5.7,7.1-9.9,9.7-15.8c4.9-3.6,8.6-8.4,12.3-13.2
			c1.6-0.5,3.7-0.5,4.4-1.8c5.8-0.2,10.5,0.6,14.1,2.6c0.4,5.4-3.4,6.6-4.4,10.6c-1.5,1.6-5.7-1.9-3.5,2.6c-2.8,0.4-3.4-1.9-5.3,0
			c-0.4,1.7,0.6,3.2,0.9,1.8c2.7,2.2-3.1,3.3-4.4,4.4c-0.5,3.6-3,5.2-2.6,9.7c-2.9,2.7-4.4,6.7-7,9.7c-1.9,0.7-1.1,4.1-3.5,4.4
			c-1.7,1.4,0.9,3.1-2.6,3.5c-4.2-0.2,0.3-3.5-0.9-6.2c-4.3,0.7-1.9,4-1.8,7c-2.5,0.7-2.4,4-5.3,4.4c-0.7,2.5,1.2,2.3,0.9,4.4
			c-2.4,2.4-2.2-2.3-5.3-1.8c-3.4,0.2-0.3-0.7-0.9-2.6c-2.5-0.7-2.3,1.2-4.4,0.9c-2.9-0.3-1,4.3-5.3,2.6c-3.4,0.2-0.3-0.7-0.9-2.6
			c-1.8,0.4-2.3-0.6-3.5-0.9c-3.9,1.3,1.4,3,0.9,6.2c-2.4,0.3-3.4,2.1-6.2,2.6c-3.6,0.7-7.6-0.3-10.6,0.9c-0.4,0.2,0.1,0.9-0.9,0.9
			c-0.4,0-1.3-0.7-0.9-0.9c-2.3,1-1.9,2.3-3.5,2.6c2.5,5.4,11.6,0.9,16.7,0.9c2.9,0,3-2.9,6.2-2.6c3.9,1.1,3.9,6,7.9,7
			c4.4,0.6,7.1-0.5,9.7-1.8c4.1,2.9,3.2,10.9,7,14.1c-0.3,4.2,0.3,7.4,0.9,10.6c0.7,2.8,0.7,1.8-0.9,3.5c2.7,1.1,4.7,3,5.3,6.2
			c2,2.4,5.7,3.1,7,6.2c0.4,4.2-0.6,7-2.6,8.8c2.4,4.4-3.3,5.3-1.8,11.4c-3.9,3.1-5.8,8.2-5.3,15.8c-3.3,2.3-3.6,7.6-7.9,8.8
			c0.4,2.1-1.6,1.9-0.9,4.4c-4.9,1.8-8.1,5.4-12.3,7.9c-0.6,2-0.8,4.5-1.8,6.2c-4.2,2-9.5,2.8-13.2,5.3c-6.9,8.6-7.8,23.3-15,31.7
			c0.7,4.8-3.9,4.3-3.5,8.8c-2.2,1.6-2.2,5.4-4.4,7c-1.8,5.8-5.1,10.1-7,15.8c-7.2,4.6-15.8,7.6-24.6,10.6c-4.2-1.4-10.5-0.7-15-1.8
			c-5.5,1-4.9,8-10.6,8.8c-0.7,4.6-5.2,5.4-6.2,9.7c-2.8,0.4-3.1,3.3-6.2,3.5c0.2,2.6-2,2.7-1.8,5.3c-4.4-0.9-6.4,3.8-8.8,6.2
			c-1.7,1.7-5.1,2.6-6.2,6.2c1.2,4.1,4.8,5.8,3.5,12.3c0.1,3.1-3.1,2.8-4.4,4.4c-0.7,3.1-2.3,5.4-4.4,7
			c-1.6,12.5-8.4,19.8-10.6,31.7c-3.6,1.4-3.5,6.5-5.3,9.7c1.2,1.1,0.5,4.2,1.8,5.3c4.9,2.8,8.9,6.4,15.8,7c0.6,3.3,2.4,5.2,1.8,9.7
			c-6-0.8-7.9,2.7-11.4,4.4c-17.7-2.4-31,2.5-42.3,8.8c-12.8,0.7-20.2,6.8-29.9,10.6c-5.4-1.7-3.9-10.1-8.8-12.3
			c4.6-2.2,12.4-1.1,15.8-4.4c5.9,2,12.5-0.3,14.1-7c-2.6-4.2-11.2-2.3-16.7-3.5c-3,0.1,0.2-3.1-2.6-4.4c-2.9-1.1-7.6-3.4-8.8,0.9
			c1.3,2.6,5.2,2.4,7.9,3.5c-3.8,1.7-12.8,1.1-16.7,0c0.9-2.6,2.5-4.5,1.8-8.8c3.1-1.1,7.4-6,10.6-1.8c2.9-1.5,3.5-5.3,6.2-7
			c7.6,0.4,11.6,0.8,17.6,0c4.9,3,11.2,4.6,17.6,6.2c4.2-0.5,3.7-5.7,7.9-6.2c0.5-1.6,0.5-3.7,1.8-4.4c0-4.1,0-8.2,0-12.3
			c3.3-5.8,6.8-11.4,9.7-17.6c-1-6.1-1.6-8.2-1.8-14.1c-1.6-3.4-6.3-3.7-6.2-8.8c-2.4-1.2-4.7-2.4-7-3.5
			c-0.2-8.6-4.4-13.2-12.3-14.1c-3.2,3.4-8,8.5-5.3,15c-2.8,1.6-1,7.8-3.5,9.7c1.6,3.4,0.8,8.8,0,12.3c-5.7-0.7-6.4,3.6-9.7,5.3
			c-5.7-2.8-13.2-3.8-17.6-7.9c-2.1-2.1,1-2,1.8-3.5c-2.5-4.5-13-4.4-17.6-1.8c-6.1-1-11.6-2.5-17.6-3.5c-1-2.7-5.3-5.3-3.5-7.9
			c3.2-0.2,4.2,1.6,7,1.8c2.6-1.2,3.7-4,5.3-6.2c-0.2-2.7-1.9-4-2.6-6.2c-4.9-1.9-9.7,1.5-12.3-2.6c-4,0.8,0.4,5.5-1.8,7
			c-2.5,0.8-4.5-1-6.2-0.9c-1.8,0.2-2.3,1.6-4.4,1.8c-3.3,0.9-2.5-2.2-5.3-1.8c-3.1,1-2.3,5.9-3.5,8.8c1.5,3.8,4,6.6,7,8.8
			c2.9,0,0.9-5,2.6-6.2c-0.8-0.6-5.3,0.2-4.4-4.4c0-3.3,3.9-2.5,7-2.6c1.2-1.7,5.4-0.5,7-1.8c-4.4,12.5,7.3,15.3,7,26.4
			c-3.4,1.3-9.8-1.1-12.3-3.5c-2.9,0-5.9,0-8.8,0c-1.7-2.4-2-3.9-3.5-6.2c-0.2-0.4-0.5-1.2-0.9-1.8c-2.4-3.4-5.1-5-6.2-10.6
			c0.7-4.2,0.4-3.9,0.9-7.9c2.3-1,4.2-2.2,5.3-4.4c5.8,0.8,5.8-4.1,10.6-4.4c1-2.8,2.7-4.9,4.4-7c11.1,1.1,17.7-0.7,26.4,0.9
			c3.9,0.9,2.9-3,6.2-2.6c3.2,10.6,9.3,18.3,18.5,22.9c2.4,0.6,1.8-1.7,3.5-1.8c-0.2-8.9-5.7-12.5-9.7-17.6
			c0.1-5.7-2.8-8.4-4.4-12.3c-4.6-1.3-7.4-4.3-10.6-7c-2.8-1.1-0.7,2.8-3.5,1.8c-6.2-2.3-13.6-3.4-20.2-5.3c-3.8-4.2-8.3-7.5-15-8.8
			c-0.7-1.9-3.1-2.2-4.4-3.5c-2.2-5.7-5.5-10.4-9.7-14.1c-2.3-7.6-6-13.9-9.7-20.2c-3.5-15-6.5-30.4-9.7-45.8
			c-0.7-5.7,1.1-11.4,0-15c2.1-3.8,2.2-9.5,2.6-15c1-0.2,0.5-0.9,0-0.9c2.8-3.7,5.4-7.5,7-12.3c2.4-4.1,5.9-7,6.2-13.2
			c3-2.6,4.3-6.8,6.2-10.6c-0.9-4.9,0.2-11.9-3.5-14.1c-8.3,3.4-13.6,9.9-19.4,15.8c-2.8,3-6.5,5.3-8.8,8.8
			c-1.8,1.1-3.3,2.6-4.4,4.4c-1.8,0-3.3,4.8-4.4,2.6c0.1-3.4,3.6-3.5,5.3-5.3c1.4-2.1,3.2-3.9,5.3-5.3c3.7-8,11.1-12.4,14.1-21.1
			c2.9-1.5,4.2-4.6,7-6.2c-0.7-2.5,1.2-2.3,0.9-4.4c2.4-2.3,5.4-4,6.2-7.9c0.2-4.2-4.2-4.8-1.8-8.8c-2.7-0.9-1.6,2-1.8,3.5
			c-5.3,0.6-7.2,4.5-11.4,6.2c-2.1,1.4-3.9,3.1-5.3,5.3c-3.4-0.5-3.6,2.2-6.2,2.6c-1.6,0.8-2.7,2-3.5,3.5c-9,3-14,10.1-23.8,12.3
			c-1-7.5,6.3-6.6,7.9-11.4c5.6-1.4,9.8-4.3,12.3-8.8c5-2.1,9.3-4.8,13.2-7.9c3-3.7,9.2-4.3,10.6-9.7c0.2-2.6-1.7-3-2.6-4.4
			c-6.9,1.9-11.7,5.9-19.4,7c-4,4.8-13.1,4.5-17.6,8.8c-2-3,4.5-4.9,5.3-7.9c7.6-1.5,13.9-4.3,18.5-8.8c-1.7-4.8-0.9-10.4,3.5-11.4
			c-2.3-4.8-9.6-4.4-10.6-10.6c3-1.7,7.6-1.8,7.9-6.2c-0.7-5.2-4.8-7-8.8-8.8c2.3-2.7,5-1,8.8-0.9c3.2,1.5,3.5,5.9,8.8,5.3
			c1.7-4.9-5.7-8.4-9.7-10.6c-11.6-1.1-21.2,2.4-28.2,0.9c-1-3.6,1.8-3.4,1.8-6.2c9-4.5,18.1-8.9,24.6-15.8
			c6.6-0.6,8.5-0.5,13.2,1.8c3.1,0.7,3.4-1.3,6.2-0.9c2.8,0.4,2.3-2.4,4.4-2.6c5.6-1.4,11.4-1.2,15.8-1.8c2.7-0.8,4.8-2.2,7-3.5
			c0.9-2.6,2.5-4.5,1.8-8.8c5.4-0.2,5.1-6.1,9.7-7c2-4.2,2.5-9.8,4.4-14.1c-0.7-4.2,1.4-5.7,0.9-9.7c1.7-3.5,2-8.4,2.6-10.6
			c-0.4-3.5-3.1-8.1-1.8-10.6c5.4,6.9,8.9,15.8,16.7,20.3c0.6,3.3,0.6,7,3.5,7.9c2.7,0.9,1.6-2,1.8-3.5c1.9,2,6.1,5.1,3.5,8.8
			c1,3.7,5,4.4,3.5,10.6c0.2,3.1-4.1,1.7-3.5,5.3c-2.1,2-1.1,3.1-0.9,6.2c6.7,0.3,5.7-4.6,5.3-9.7c5.6-0.3,5.4,5.2,10.6,5.3
			c5.4-0.1,5.5-9.5,10.6-7c0.9,5.3-2.8,6-2.6,10.6c-0.1,5.6,7.4,3.7,11.4,5.3c-1,3-3.1,6.5,0,8.8c2.8,0.1,2.9-2.3,6.2-1.8
			c12.4-7.3,29.7-9.7,39.6-19.4c2.5,2.3-3.4,3.6-2.6,7c-5.8,3.1-10.8,5.4-17.6,7.9c-1.8,0.7-3.8,1-5.3,2.6c-2.6-0.7-4.3,1.8-6.2,2.6
			c-2,0.8-4.4,0.9-6.2,1.8c-1.4,0.7-2.8,2.7-4.4,3.5c-2,1-3.6,2-6.2,1.8c-0.6,3.3,1.4,3.9,4.4,3.5c-1,4-6.3,3.7-7,7.9
			c0.1,5.2,7,3.5,9.7,6.2c2.7,2.8-2.1,3.1-1.8,6.2c4.3,2.2,9.4-1.5,12.3-3.5c4.2-1.6,8.7-3.1,11.4-6.2c7.4-4.1,17-5.9,23.8-10.6
			c7.5,1.1,10.7,2,17.6,0.9c-4.1,2.6-9.2,4.3-15,5.3c-7.2,3.9-14.8,7.5-22,11.4c-4.5,1-6.5,4.7-11.4,5.3c-2.1,3.2-7.5,3-9.7,6.2
			c-0.6,4.4,3.8,4.4,1.8,7.9c4.3,3.6,13.3,2.5,21.1,2.6c2.2-0.1,2.7,1.4,4.4,1.8c16.5,1.1,30,4.1,45.8,3.5c-0.1,4.6-5.6,3.7-8.8,5.3
			c-11.2,0.2-18.4-1.7-29.9-2.6c-2.1-0.3-3.6-1.1-5.3-1.8c-4.7,1.1-6.2,0.1-11.4,0c-5,1.4-10.2,2.7-13.2,6.2
			c0.4,5.4,2.2,9.5,6.2,11.4c11.1,0.1,17.9,4.4,26.4,7c1.1,2.7,3,4.6,4.4,7c2.3,0,4.7,0,7,0c3.5,0.4,3.8,3.9,7,4.4
			c10.6-1.1,17.1,0.8,24.7,4.4c1.2,1.8,1.7,4.2,2.6,6.2c4.7,1.7,9.2,3.7,15.8,3.5c5.7-1.6,6.3-8.3,9.7-12.3c5.2-1.7,8-1,13.2-1.8
			c3.7-2.1,5.4-6.3,7.9-9.7c0-3.2,0-6.5,0-9.7c5.8-3.6,13.2-5.6,12.3-15.8c9-5.4,13.3-15.4,14.1-29.1c0.9-3.5,3.4-5.4,5.3-7.9
			c0.4-4.9,2.4-8.1,2.6-13.2c4.7-5.9,9.7-11.4,15-16.7c5,0,8.4-3.7,12.3-5.3c2.5-1,5.5-0.7,7.9-1.8c4.3-1.8,9.6-6.1,19.4-4.4
			c5-1.7,9.6-3.9,13.2-7c10.3,1.1,18.9-2.6,28.2-0.9c1.8,0.3,3.6,1.5,5.3,1.8c5.9,1,6.2,0.1,10.6,2.6c1.3,0.7,2.6,2.2,4.4,2.6
			c0.7,1,1.2,2.4,0.9,4.4c2.2,3.1,6.1,4.5,9.7,6.2c0.4,1.7,1.9,2.2,1.8,4.4c2.1,2,4.5,3.7,7,5.3c-0.1,1.6,1.1,1.9,0.9,3.5
			c3.1,3.1,4.7,7.7,8.8,9.7c-0.1,1.2-0.1,2.5,0.9,2.6c2.5,10.8-1.3,22.5,0,31.7c-1.6,0.1-0.5,3-1.8,3.5c1.3,2.5,1.5,6.1,4.4,7
			c-0.3,3.8,4.1,2.9,4.4,6.2c-2.4,2.3-2.7,6.7-5.3,8.8c-6.6,1.6-7.4-2.6-11.4-3.5c-3,0-3.8,2-5.3,3.5c0.4,8.8,2.3,21.5-0.9,30.8
			c-1.9,0.8-3.9,1.4-5.3,2.6c0,1.5-0.7,2.3-1.8,2.6c-2.1,8.2-6.2,14.4-7.9,22.9c-4.5,2.5-4.6,9.5-7.9,13.2c-2.7-1.1-4.7-2.9-6.2-5.3
			c3-6.4,2.2-19.8,0-26.4c2.1-5.6,5.4-9.8,5.3-17.6c2.2-1.6,2.2-4.6,3.5-7c0.2-0.4,1.6-0.6,1.8-0.9c0.3-0.7-0.4-2,0-2.6
			c0.5-0.9,2.2-1.5,2.6-2.6c0.9-2.4,0.3-5.5,0.9-7.9c0.7-2.6,2.6-4.3,2.6-7c-6.2-0.1-5,7.3-8.8,9.7c0,1.8,0,3.5,0,5.3
			c-4.7,4.1-8.5,9.1-7.9,18.5c-1.9,2.7-3.5,5.9-4.4,9.7c-2.2-0.1-2.7,1.4-4.4,1.8c-1.6,3.7-1.9,8.6-5.3,10.6
			c-3.3,0.4-4.1-1.7-6.2-2.6c2-10.4,4.6-20,10.6-26.4c0.3-3.5,1.2-6.4,2.6-8.8c-0.4-3,0.3-4.9,0.9-7c-2-6.8-2.8-14.8-7.9-18.5
			c-1.1-2.8,2.8-0.7,1.8-3.5c-0.7-0.8-0.9-2-0.9-3.5c3.6,0.7,3-2.8,7-1.8c2.3,1.9-2.7,2.9,0,5.3c3.1-0.1,1.5-5,3.5-6.2
			c-0.1-1.9-3.7-0.4-5.3-0.9c-1.2-8.2-4.7-14.1-9.7-18.5c2.3-8.2-4.2-14.3-6.2-21.1c-3,0.1-6.1,2.7-9.7,3.5c-0.7,0.1-3.1-0.4-3.5,0
			c-1.2,1.2-7.9-0.3-11.4-1.8c-4.9,1.6-9.1,3.8-10.6,8.8c-1.9,0.8-2.6,2.7-5.3,2.6c-0.3,2.6-1.5,4.3-3.5,5.3c-1.5,1.4-1.8,4-4.4,4.4
			c-4.8,9.3-10.7,17.5-15,27.3c-0.7,0.2-0.8-0.3-0.9-0.9c-1.7-2.2-0.1,1.5,0,2.6C670.4,128.4,669.8,129.9,670,132.1z M703.4,106.5
			c-0.2,1.9,0.7,2.8,2.6,2.6C706.2,107.3,705.3,106.4,703.4,106.5z M686.7,128.5c-2.4-0.6-1.7,1.8-2.6,2.6c0.9,0,1.8,0,2.6,0
			C686.7,130.3,686.7,129.4,686.7,128.5z M476.3,406.7c-0.9,0-1.8,0-2.6,0c0,1.5,0.7,2.3,1.8,2.6
			C475.5,408.3,476.5,408.2,476.3,406.7z M397.1,325.7c0-0.6,0-1.2,0-1.8c-0.6,0-1.2,0-1.8,0c0,0.6,0,1.2,0,1.8
			C395.9,325.7,396.5,325.7,397.1,325.7z M432.3,23.8c-5.2,6.9-1.2,17.6-6.2,24.7c0.7,2.8,1.2,5.8,2.6,7.9c4.6,0.2,3.4-5.4,3.5-9.7
			c2.3-2.7,0.8-9.1,2.6-12.3c1.4,1.9,3.2,3.3,4.4,5.3c-0.6,1.8-2.8,3.5-0.9,5.3c3.2,1.6,6.9-2.8,8.8-5.3
			c-2.3-6.5-6.3-11.3-10.6-15.8C435.2,23.8,433.7,23.8,432.3,23.8z M754.5,65.2c-2-3-5.4-4.6-9.7-5.3c-1.5-2.5-5.6-3.4-8.8-1.8
			c-0.7,7.2,7.5,5.4,12.3,7c1.3,1.6,3.7,2.2,4.4,4.4c6.2-1.2,5.4,4.5,11.4,3.5c-1.6-1.9,0.1-5.7-0.9-6.2
			C761.1,69.1,759.5,63.1,754.5,65.2z M689.3,62.5c-4.2,2.6-7.6,5.9-12.3,7.9c-2.4,3.8-6.2,6.1-8.8,9.7c-2.7,9.1-5.2,18.3-10.6,24.6
			c0.1,9.8-6.2,12.3-7.9,22c3.2,0.6,3.4-1.9,6.2-1.8c3.6-5.5,5.6-12.6,7-20.2c3.6-2.8,3.8-9.1,7-12.3c0.3-3.6,1.5-6.1,1.8-9.7
			c3.8-4.1,6.6-9.2,11.4-12.3c2.4-2.8,8.2-2.4,8.8-7C690.9,63.3,690.8,62.3,689.3,62.5z M751,79.2c-0.2-1.4-1.9-0.6-2.6,0
			c0,1.2,0.4,1.9,0.9,2.6c3,2.3,5.8,4.8,9.7,6.2c0.6,3.2,3.3,4.3,4.4,7c0,3.9,3.2,4.4,2.6,8.8c2.5,1.3,1.4,6.3,5.3,6.2
			c2.1-5.2,1.4-13.2,2.6-19.4C766.4,86.7,758.7,82.9,751,79.2z M780.9,87.2c2.8,3.1,4.5,7.3,6.2,11.4c0,2.9,0,5.9,0,8.8
			c0.3,3-1.2,7.6,2.6,7c2-11.6,0.4-22.7-3.5-30.8c-1.2,0-1.9-0.4-2.6-0.9C782.8,84.3,781.4,85.3,780.9,87.2z M452.5,96.8
			c1.2-4.8,0.4-7.3-1.8-10.6c-3.9-1.3-5.2,0-9.7,0c0,6.2,1.6,10.8,3.5,15C449.8,102.3,447.5,95.9,452.5,96.8z M692,91.6
			c0.6,0,1.2,0,1.8,0c0-0.9,0-1.8,0-2.6c-0.9,0-1.8,0-2.6,0C691.1,90.1,691.5,90.9,692,91.6z M418.2,92.4c2.6,1.3,2.6-3.9,0-2.6
			C418.2,90.7,418.2,91.6,418.2,92.4z M403.2,93.3c0-1.5-0.7-2.3-1.8-2.6C401.5,92.1,401.3,93.7,403.2,93.3z M427.9,105.6
			c4-1.6,9.9-1.2,14.1-2.6c-3.1-3.9-7.1-7-8.8-12.3c-0.9,0-1.8,0-2.6,0C429.7,95.9,423.2,100.3,427.9,105.6z M386.5,93.3
			c0.6,0,1.2,0,1.8,0c0-0.6,0-1.2,0-1.8c-0.6,0-1.2,0-1.8,0C386.5,92.1,386.5,92.7,386.5,93.3z M418.2,95.1c-0.7,0.2-1.7,0-1.8,0.9
			C417.1,95.8,418.2,95.9,418.2,95.1z M419.1,96.8c1.5,0,2.3-0.7,2.6-1.8C420.2,95,419.4,95.8,419.1,96.8z M391.8,96.8
			c-0.2-0.2-1.3,0.4-0.9,0.9C391.1,98,392.2,97.3,391.8,96.8z M404.1,103c-1.3,2.6-4.6-2.3-4.4,1.8c0.2,1.7,1.5-0.5,1.8,0.9
			c1.9,2.8,2.1,7.3,4.4,9.7c4.7,0,6.4-3,7.9-6.2c-3.7-2.5-8.2-4.2-8.8-9.7c-0.9,0-1.8,0-2.6,0C401.3,102.3,403.7,101.6,404.1,103z
			 M786.2,101.2c-1,0.1-1.4-1.3-1.8,0C784.4,102.1,786,102.4,786.2,101.2z M782.7,103C780.5,106,785.6,100.9,782.7,103L782.7,103z
			 M390,108.3c1.3,0,1.9-6.5-0.9-5.3C390.4,105.6,386,108.4,390,108.3z M393.5,103.9c0-0.9-1.5-1.1-1.8,0
			C392,105,392.8,104.4,393.5,103.9z M758,108.3c0.1-0.5,0.1-1,0.9-0.9c-0.1-1.1-0.3-2.1-1.8-1.8C757.3,106.7,757,108.1,758,108.3z
			 M802.9,110.9c-0.2-1.3,0.3-3.2-0.9-3.5C800.9,108.6,800.9,110.7,802.9,110.9z M388.3,109.2c0.3,5.6-2.6,8,0,14.1
			c4.9,0.2,6.7-2.7,10.6-3.5c-0.4-4.9-3.3-7.3-4.4-11.4C390.6,107.9,391.5,111,388.3,109.2z M428.8,108.3c-2,2.4-2,6.8-4.4,8.8
			c2.4,0.8-1.2,2.8,0,5.3c1.8,2.9,3.8-2.2,4.4,0c0,1.8,0,3.5,0,5.3c2.4,0.9,1.1,5.4,4.4,5.3c2-1.5,0.3-6.7,0.9-9.7
			c1.6-0.8,2.2-2.5,5.3-1.8c2.1-1.7,3.7-3.9,7.9-3.5c-5,7.4-6.9,17.8-14.1,22.9c-5.8,1.4-7.7,1.6-14.1,1.8c0.2-2-0.2-3.3-1.8-3.5
			c-1.8,2.4-4.2-2.2-7-1.8c-1.6-2.2-5.4-2.3-5.3-6.2c3.2,0.6,3.4-1.9,6.2-1.8c0.7,4.3,4,6,7.9,7c3.3-5.4-3.7-7.3-4.4-11.4
			c2.7,1.2,5.4-0.4,6.2-3.5c-1.3-1.3-3.9-1.4-6.2-1.8c-1.4-0.6,0.2-4.3-2.6-3.5c-3.1,0-5.8,3.6-9.7,5.3c-0.6,5.9-5.5,7.4-7,12.3
			c0,1.8,2.4,1.1,1.8,3.5c8.5,0.5,12.5,5.7,19.4,7.9c-0.8,3.4,2.2,3.1,2.6,5.3c3.3,0.8,7.5,0.8,10.6,1.8c6.2-1.7,9.6-6.2,14.1-9.7
			c3.1-9.3,10.3-14.3,9.7-27.3c-2.1-2.6-6-3.4-7.9-6.2c-0.7,1.9-1.8,3.5-4.4,3.5C436.1,112.1,435.3,107.3,428.8,108.3z M415.5,115.3
			c2.7,3.2,6.8,2.7,7.9-1.8C421.1,112.2,415.2,110,415.5,115.3z M482.5,116.2c0-0.9-1.5-1.1-1.8,0
			C480.9,117.3,481.7,116.8,482.5,116.2z M671.7,117.1c1.1,0.1,1.2,1.1,2.6,0.9c0-1.5-0.7-2.3-1.8-2.6
			C672.6,116.2,671.9,116.4,671.7,117.1z M479.8,118c-0.2-0.2-1.3,0.4-0.9,0.9C479.2,119.1,480.3,118.4,479.8,118z M476.3,124.1
			c0.1-2.8-2.3-3-4.4-3.5C472.2,122.9,474.6,123.2,476.3,124.1z M388.3,125c-0.7,0.2-1.7,0-1.8,0.9
			C387.2,125.7,388.2,125.9,388.3,125z M659.4,125c-0.7,0.2-1.7,0-1.8,0.9C658.3,125.7,659.4,125.9,659.4,125z M383,131.2
			c2.8,0.1,3-2.3,3.5-4.4c-1,0.1-2.5-0.2-2.6,0.9C386.4,128.4,381.8,129,383,131.2z M381.2,133.8c1.7-0.4,5.3,1.2,4.4-1.8
			C383.4,131.9,381.3,131.9,381.2,133.8z M387.4,135.6c-0.2-0.2-1.3,0.4-0.9,0.9C386.7,136.7,387.8,136,387.4,135.6z M474.5,136.5
			c-4.3,3.4,0.8,11,5.3,7.9c-0.1,1.5,0.2,2.7,0.9,3.5C490.3,146.3,482.8,130.7,474.5,136.5z M659.4,137.3c1.1,0,1.2,1.1,2.6,0.9
			c0-0.6,0-1.2,0-1.8C662,134.3,659.1,136.3,659.4,137.3z M680.5,139.1c0.1,1.1,0.3,2.1,1.8,1.8c0.2-1.7-1-1.9-0.9-3.5
			c-1.5,0-2.9,0-4.4,0C676.1,140,679,138.9,680.5,139.1z M389.1,138.2c-0.2-0.2-1.3,0.4-0.9,0.9
			C388.5,139.3,389.6,138.7,389.1,138.2z M395.3,140.9c0.6,0,1.2,0,1.8,0c0-0.6,0-1.2,0-1.8c-0.6,0-1.2,0-1.8,0
			C395.3,139.7,395.3,140.3,395.3,140.9z M486.9,142.6c1.2,1.1,3.3,1.2,3.5-0.9C489.2,140.6,487.1,140.6,486.9,142.6z M452.4,160.5
			c1,4.2,7.7,1.6,8.6-0.7c1-8.8-7.8-12.3-12.2-7.9c0,2.4,0,4.8,0,7.2C450.2,159.4,450.1,161.1,452.4,160.5z M390,154.1
			c0.6,0,1.2,0,1.8,0c0.5,0,1-0.1,0.9-0.9c-2.3-0.2,1.2-1.5,0-3.5c-4.3,0.4,3.1-3.7-1.8-4.4C387.8,149.1,391.8,150.1,390,154.1z
			 M396.2,147c0.6,0,1.2,0,1.8,0c1.4-2.2-3-2.6-2.6-0.9C395.8,146.2,396.3,146.3,396.2,147z M394.4,150.5c3-1,3.8,0.6,5.3-0.9
			c-0.7-0.2-1-0.7-0.9-1.8C396.3,147.7,394,147.8,394.4,150.5z M401.5,147.9c-0.2-0.2-1.3,0.4-0.9,0.9
			C400.8,149,401.9,148.4,401.5,147.9z M405.9,150.5c2.6,1.3,2.6-3.9,0-2.6C405.9,148.8,405.9,149.7,405.9,150.5z M765.1,148.8
			c-0.7,0.2-1.7,0-1.8,0.9C764,149.5,765,149.6,765.1,148.8z M368.9,151.4c1.4-0.1,3.1,0.1,2.6-1.8c-0.6,0-1.2,0-1.8,0
			C369.8,150.5,369,150.7,368.9,151.4z M398.8,157.6c2.9-0.6,3.7-7.1-0.9-6.2C398.8,154.7,399.8,153.7,398.8,157.6z M513.3,156.7
			c0.6,0,1.2,0,1.8,0c0-0.9,0-1.8,0-2.6c-0.9,0-1.8,0-2.6,0C512.3,155.3,512.8,156,513.3,156.7z M786.2,154.9c-1,0.1-1.4-1.3-1.8,0
			C784.4,155.8,786,156.1,786.2,154.9z M787.9,154.1c-0.2-0.2-1.3,0.4-0.9,0.9C787.3,155.2,788.4,154.5,787.9,154.1z M422.6,154.9
			c-0.2-0.2-1.3,0.4-0.9,0.9C422,156.1,423,155.4,422.6,154.9z M415.5,157.6c0.9,0,1.8,0,2.6,0c0.1-1.6-0.9-2.1-2.6-1.8
			C415.5,156.4,415.5,157,415.5,157.6z M474.5,160.2c-3.1,1.3-4.7,4.1-5.3,7.9c2.1,3.2,4.5,6.1,8.8,7c2.3-3,6.3-4.3,9.7-6.2
			c-0.1-7.2-7.5-7.2-12.3-9.7c1.2-0.1,0.9-2.2-0.9-1.8C474.5,158.5,474.5,159.4,474.5,160.2z M403.2,161.1c-1.2-0.3-1.7-1.2-3.5-0.9
			C398.3,162.7,403.5,162.7,403.2,161.1z M424.2,174.5c2.4,6.9,13.5,4.3,14.4-2.2c-2-1.6-2.9-4.3-4.3-6.5
			C427.4,165.2,425.4,169.4,424.2,174.5z M403.4,174.3c1.9,1.6,2.4,4.5,5.2,5.2c2.4-0.1,2.9-2.1,4.6-2.9c-0.8-3.2,0.5-3.5,0.6-6.9
			c-0.7-1.8-3.2-1.8-4-3.5c-1.9-0.5-5,0.7-5.2,0c0-0.4-0.1-0.7-0.6-0.6C402.8,167.6,403.6,171.5,403.4,174.3z M628.6,169
			c0.6,0,1.2,0,1.8,0c0-0.9,0-1.8,0-2.6c-0.9,0-1.8,0-2.6,0C627.7,167.6,628.1,168.3,628.6,169z M633,167.3c0-0.5-0.7-1-0.9,0
			C632.1,167.8,632.8,168.3,633,167.3z M493.9,170.8c0.9,0,1.8,0,2.6,0c0.1-1.6-0.9-2.1-2.6-1.8
			C493.9,169.6,493.9,170.2,493.9,170.8z M546.7,178.7c-2.4-2.3-5.2-4.2-7.9-6.2c-6.1,1.4-15.1-1.8-19.4,0c-3.4,0.1-2.6,3.9-1.8,6.2
			c14.1-3.4,22.9,5.7,36.1,6.2C552.4,181.9,549.6,180.3,546.7,178.7z M626,175.2c0-1.2,0-2.3,0-3.5c-0.9,0-1.8,0-2.6,0
			C623.7,173.4,623.6,175.5,626,175.2z M676.1,178.7c3.3,0.6,3.9-1.4,3.5-4.4c-0.9,0-1.8,0-2.6,0
			C677.7,176.8,675.8,176.6,676.1,178.7z M677,174.3C680.2,170.2,671.9,173.1,677,174.3L677,174.3z M614.5,176.1
			c0.9,2.6,3.5,3.5,4.4,6.2c2.6-2.8-1-4.8-2.6-6.2c2.6,0.9,1.6-2,1.8-3.5C615.8,172.7,614.6,173.8,614.5,176.1z M449.9,173.4
			c-4.4,3.3-4.4,9.1-4.4,15c3.5,3.2,9.8,0.3,14.1-0.9c1-2.5,1.6-5.5,1.8-8.8c-1-1.3-2.5-2.1-2.6-4.4
			C455.2,174.6,453.8,172.8,449.9,173.4z M493.9,175.2c0.6,0,1.2,0,1.8,0c0-0.6,0-1.2,0-1.8c-0.6,0-1.2,0-1.8,0
			C493.9,174,493.9,174.6,493.9,175.2z M619.8,176.1c2.6,1.3,2.6-3.9,0-2.6C619.8,174.3,619.8,175.2,619.8,176.1z M621.6,178.7
			c1.4-0.1,3.1,0.1,2.6-1.8c-0.6,0-1.2,0-1.8,0C622.4,177.8,621.7,178,621.6,178.7z M633,177c-0.7,0.2-1.7,0-1.8,0.9
			C631.9,177.6,633,177.8,633,177z M508,181.4c0.6,0,1.2,0,1.8,0c0-0.6,0-1.2,0-1.8c-0.6,0-1.2,0-1.8,0
			C508,180.2,508,180.8,508,181.4z M629.5,181.4c1.5,0,2.3-0.7,2.6-1.8C630.7,179.7,629.1,179.5,629.5,181.4z M633,182.2
			c0.6,0,1.2,0,1.8,0c0-0.6,0-1.2,0-1.8c-0.6,0-1.2,0-1.8,0C633,181.1,633,181.7,633,182.2z M598.7,184c0-0.5-0.7-1-0.9,0
			C597.8,184.5,598.5,185,598.7,184z M616.3,186.6c2.3,0.3,2.9-1.2,2.6-3.5C616.6,182.9,616.6,185,616.3,186.6z M628.6,184
			c0,1.2,0,2.3,0,3.5c4,1.1,3.5-2.4,7-1.8C635.8,181.3,631.3,184,628.6,184z M510.6,185.8c0.6,0,1.2,0,1.8,0c0-0.6,0-1.2,0-1.8
			c-0.6,0-1.2,0-1.8,0C510.6,184.6,510.6,185.2,510.6,185.8z M765.1,184.9c-0.5,3.9,4.8,3,3.5-0.9
			C766.9,183.8,766.6,185,765.1,184.9z M507.1,187.5c0.6,0,1.2,0,1.8,0c0-0.9,0-1.8,0-2.6c-0.9,0-1.8,0-2.6,0
			C506.2,186.1,506.6,186.8,507.1,187.5z M404.1,187.5c0.6,0,1.2,0,1.8,0c1.4-2.2-3-2.6-2.6-0.9
			C403.8,186.7,404.3,186.8,404.1,187.5z M515,186.6c0-0.5-0.7-1-0.9,0C514.1,187.1,514.9,187.6,515,186.6z M596,189.3
			c1.2,0,2.4,0,3.5,0c-0.2-1.3,0.3-3.3-0.9-3.5C598.3,187.5,594.6,185.8,596,189.3z M655,189.3c0.1,1.1,0.3,2.1,1.8,1.8
			c1-2.8-1.4-2.1-1.8-3.5c-0.3-2.4-3.1-1.9-2.6,0.9C653.4,188.5,654.9,188.3,655,189.3z M414.7,191.9c-0.7,8.4,5.5,9.8,12.3,10.6
			c1.7-2.4,3.4-4.9,3.5-8.8C429.8,186.6,416.4,183.4,414.7,191.9z M664.7,187.5c-1,0.1-1.4-1.3-1.8,0
			C662.9,188.4,664.5,188.6,664.7,187.5z M667.3,187.5c0-0.9-1.5-1.1-1.8,0C665.8,188.6,666.6,188.1,667.3,187.5z M405,193.7
			c3.3-1,4,0.8,5.3-1.8c-0.7-0.2-1.7,0-1.8-0.9c0.1-2.2,1.7-2.8-0.9-3.5C407.4,190.3,404.7,190.5,405,193.7z M557.3,213.1
			c-0.6,0-1.2,0-1.8,0c0,0.6,0,1.2,0,1.8c0.6,0,1.2,0,1.8,0C557.3,214.2,557.3,213.6,557.3,213.1z M562.6,212.2
			c-3.6,0.5-5.6,2.6-6.2,6.2c6.3-1.5,9.6-2.5,16.7-1.8c1.5-2.6,4.9-3.3,4.4-7.9c-3.5-0.9-6-2.8-7-6.2c2.7-4.8-2.5-8.7,0-14.1
			c-5.1-0.4-4.6,4.8-6.2,7.9c-2.3,0.9-3,3.5-5.3,4.4c-1.7,1.5-5.4,1-5.3,4.4c3.3,1.7,9.4,0.6,12.3,2.6
			C564.4,208.8,564.2,211.2,562.6,212.2z M412,190.2c0-0.5-0.7-1-0.9,0C411.1,190.7,411.9,191.2,412,190.2z M512.4,189.3
			c-0.2-0.2-1.3,0.4-0.9,0.9C511.7,190.4,512.8,189.7,512.4,189.3z M651.5,191c0.6,0,1.2,0,1.8,0c0-0.6,0-1.2,0-1.8
			c-0.6,0-1.2,0-1.8,0C651.5,189.9,651.5,190.5,651.5,191z M460.4,191.9c1.1,0,1.2,1.1,2.6,0.9c0-0.6,0-1.2,0-1.8
			C463,188.9,460.2,190.9,460.4,191.9z M665.6,192.8c2.6,1.3,2.6-3.9,0-2.6C665.6,191,665.6,191.9,665.6,192.8z M515.9,191.9
			c-0.2-0.2-1.3,0.4-0.9,0.9C515.3,193,516.4,192.4,515.9,191.9z M612.8,196.3c-4.8-3.1-15.5-3.5-21.1-0.9c-0.8,5.4-2.7,12.8,0,16.7
			c11.7,1.2,17.2-3.9,24.6-7c0.2-3.7,5.1-6.1,3.5-8.8C617.6,194.2,616,197,612.8,196.3z M402.3,195.4c0-0.5-0.7-1-0.9,0
			C401.5,195.9,402.2,196.4,402.3,195.4z M409.4,195.4c0-0.5-0.7-1-0.9,0C408.5,195.9,409.2,196.4,409.4,195.4z M434,197.2
			c2.6,1.3,2.6-3.9,0-2.6C434,195.4,434,196.3,434,197.2z M632.1,196.3c0.6,0,1.2,0,1.8,0c0-0.6,0-1.2,0-1.8c-0.6,0-1.2,0-1.8,0
			C632.1,195.2,632.1,195.7,632.1,196.3z M447.2,195.4C444,199.6,452.4,196.6,447.2,195.4L447.2,195.4z M436.7,197.2
			c0,0.6,0,1.2,0,1.8c2.2,1.4,2.6-3,0.9-2.6C437.5,196.9,437.4,197.4,436.7,197.2z M627.7,198.1c0.9,0,1.8,0,2.6,0
			c0.1-1.6-0.9-2.1-2.6-1.8C627.7,196.9,627.7,197.5,627.7,198.1z M675.3,199.8c0.9,0,1.8,0,2.6,0c0.1-1.6-0.9-2.1-2.6-1.8
			C675.3,198.7,675.3,199.3,675.3,199.8z M479.8,203.4c2,2.1,2.8-1.6,2.6-4.4c-0.9,0-1.8,0-2.6,0c-0.6,2.4,1.7,1.8,1.8,3.5
			C480.9,202.7,479.8,202.5,479.8,203.4z M390.9,215.7c1.2,2.3,3,4.1,4.4,6.2c3.7,0.2,3.7-3.3,7-3.5c-2-3.1-1.2-4.9,0.9-7.9
			c0.9,0,1.8,0,2.6,0c0.4-1,0.9-2,1.8-2.6c-1.3-3.9,1.2-6.4-1.8-7.9c0.2,6.4-4.6-1.6-5.3,2.6c-0.1-1,0.2-2.5-0.9-2.6
			C396.2,204.6,391.9,208.5,390.9,215.7z M621.6,200.7c0,0.6,0,1.2,0,1.8c0.9,0,1.8,0,2.6,0c0-0.9,0-1.8,0-2.6c-0.6,0-1.2,0-1.8,0
			C622.4,200.4,622.3,200.9,621.6,200.7z M634.8,199.8c-0.2-0.2-1.3,0.4-0.9,0.9C634.1,201,635.2,200.3,634.8,199.8z M640,201.6
			c-0.7,0.2-1.7,0-1.8,0.9C639,202.3,640,202.5,640,201.6z M437.6,202.5c-0.2-0.2-1.3,0.4-0.9,0.9
			C436.9,203.6,438,202.9,437.6,202.5z M545.8,209.5c-2.7,1.4-3.8,4.4-7,5.3c-1.2,0-0.8-1.5-1.8-1.8c-1.6,1.5,0.8,2.9,0,6.2
			c3.1,1.5,7.2,0.7,10.6,0c2.5-5.4,4.1-12.2,0-16.7C546.6,204.4,545.3,206.1,545.8,209.5z M634.8,202.5c-0.2-0.2-1.3,0.4-0.9,0.9
			C634.1,203.6,635.2,202.9,634.8,202.5z M431.4,206.9c0.6,0,1.2,0,1.8,0c2.9-0.5-1-5.8-1.8-2.6C432.8,204.5,432,206.2,431.4,206.9z
			 M521.2,206c0-0.9,0-1.8,0-2.6c-1,0.1-2.5-0.1-2.6,0.9C519.8,204.5,520,205.7,521.2,206z M674.4,205.1c0.6,0,1.2,0,1.8,0
			c0-0.6,0-1.2,0-1.8c-0.6,0-1.2,0-1.8,0C674.4,204,674.4,204.5,674.4,205.1z M671.7,204.3c-0.2-0.2-1.3,0.4-0.9,0.9
			C671.1,205.4,672.2,204.7,671.7,204.3z M423.5,209.5c0.4-2.8-2.2-2.5-3.5-3.5C420.1,208.2,421.2,209.4,423.5,209.5z M640.9,206
			c-2.9,1.1-4.2-1.1-4.4,1.8c0.9,0.6,3,0.5,6.2,0.9c1.4,0.7,1.3,2.8,3.5,2.6C646.2,207.8,642.1,208.4,640.9,206z M664.7,207.8
			c0.6,0,1.2,0,1.8,0c0-0.6,0-1.2,0-1.8c-0.6,0-1.2,0-1.8,0C664.7,206.6,664.7,207.2,664.7,207.8z M424.3,210.4
			c1.4,1.1,5.8,0,5.3-3.5C426,206.2,426.3,209.5,424.3,210.4z M622.4,210.4c-2.2,1.1-4.3-2-4.4,0c2.2,0.4,0.1,3.4-1.8,2.6
			c0.3-0.5,2.2-3.4,0-3.5c-0.4,2-1.9,2.8-2.6,4.4c-3.2,2.1-8,2.5-11.4,4.4c0-0.6,0-1.2,0-1.8c-2.8-0.4-2.3,2.4-4.4,2.6
			c-2.9,0.9-6,1.6-8.8,2.6c-0.1-1.1-0.3-2.1-1.8-1.8c-2.7,0.8-5.4,1.7-7,3.5c-0.7,5.4,2.5,6.9,2.6,11.4c-1.7,3.8-6.7,4.4-9.7,7
			c-3.7-0.5-4.1,2.4-5.3,4.4c2.6,2.1,6,3.4,10.6,3.5c3.2-0.6,4.6-3.1,7.9-3.5c0-1.5,0.7-2.3,1.8-2.6c6.1-3.3,10.8-8,15.8-12.3
			c2.7,0.6,2.6-1.5,5.3-0.9c4.8-7.6,16.1-13.2,15-23.8C620,206,624.7,210.8,622.4,210.4z M671.7,207.8
			C668.8,205.1,669.1,211,671.7,207.8L671.7,207.8z M680.5,207.8c-0.3-0.7-2.3-1.1-2.6,0C677.3,209.8,681.3,209.7,680.5,207.8z
			 M437.6,223.6c2.7,0.6,3.2-0.9,5.3-0.9c2-3.3,4.1-6.4,3.5-12.3c-1.3-0.5-2.1-1.4-2.6-2.6c-5.1-0.4-9.3,0.1-11.4,2.6
			c0.2,2.5-0.2,4.5-1.8,5.3c-1.8,2.4-3.3-3.1-4.4,0.9C431,217.8,432.3,222.7,437.6,223.6z M489.5,208.7c0,0.6,0,1.2,0,1.8
			c0.6,0,1.2,0,1.8,0c1-1.3,0.9-2.1-0.9-2.6C490.3,208.3,490.2,208.8,489.5,208.7z M589,208.7c0-0.5-0.7-1-0.9,0
			C588.1,209.1,588.8,209.7,589,208.7z M514.1,212.2c3.9,0.2,2.1-3,0-3.5C514.1,209.8,514.1,211,514.1,212.2z M655.9,212.2
			c0.3-0.5,2.2-3.4,0-3.5C655.6,209.2,653.7,212,655.9,212.2z M459.6,227.1c4.1,6.2,13.3,6.8,22,6.2c-1-3.1-4.3-3.9-6.2-6.2
			c-1.4-2.7-4.3-3.9-6.2-6.2c-0.2-1.3-1.5-1.5-1.8-2.6c-1.1-2.7-2.6-5.1-3.5-7.9c-0.2-0.7-0.7-1-1.8-0.9
			C458.8,212.9,461.7,222.6,459.6,227.1z M683.2,211.3c0.4,1.7,0.3,3.8,2.6,3.5C686.1,212.5,685.5,211,683.2,211.3z M687.6,212.2
			c1.4-2.4-2.3-4-2.6-1.8C686.3,210.5,685.6,212.7,687.6,212.2z M631.2,212.2c1.2,0.3,1.7,1.2,3.5,0.9c0-0.9,0-1.8,0-2.6
			C632.8,210.2,631.5,210.6,631.2,212.2z M422.6,215.7c0.9,0,1.8,0,2.6,0c0.2-2.3-0.3-3.8-2.6-3.5
			C422.6,213.3,422.6,214.5,422.6,215.7z M590.7,213.1c0-0.5-0.7-1-0.9,0C589.9,213.5,590.6,214.1,590.7,213.1z M638.3,214.8
			c0.6,0,1.2,0,1.8,0c0-0.9,0-1.8,0-2.6c-0.9,0-1.8,0-2.6,0C637.4,213.4,637.8,214.1,638.3,214.8z M406.7,216.6
			c2.2-0.1,3.4-1.3,3.5-3.5C407.5,212.6,406.3,213.8,406.7,216.6z M513.3,216.6c2.6,1.3,2.6-3.9,0-2.6
			C513.3,214.8,513.3,215.7,513.3,216.6z M640.9,221c2.8,0.4,2.8-1.9,2.6-4.4C640.1,215.5,640.9,218.7,640.9,221z M643.6,213.9
			c-0.6,0.1-0.9,2.3,0,2.6C646.1,217.5,645.6,213.7,643.6,213.9z M661.2,218.3c0.2-2.8-1.5-3.8-3.5-4.4
			C658.4,215.8,657.7,219.2,661.2,218.3z M590.7,215.7c-1.2-0.3-1.7-1.3-3.5-0.9C586.6,217.8,590.6,218.2,590.7,215.7z M678.8,217.5
			c0-1.5-0.7-2.3-1.8-2.6C675.8,216.1,675.7,218.2,678.8,217.5z M648.8,218.3c0.6,0,1.2,0,1.8,0c0-0.6,0-1.2,0-1.8
			c-0.6,0-1.2,0-1.8,0C648.8,217.2,648.8,217.8,648.8,218.3z M405.9,218.3c0,0.6,0,1.2,0,1.8c0.9,0,1.8,0,2.6,0c0-0.9,0-1.8,0-2.6
			c-0.6,0-1.2,0-1.8,0C406.7,218,406.6,218.5,405.9,218.3z M677.9,220.1c1.1,0,1.2,1.1,2.6,0.9c0-0.6,0-1.2,0-1.8
			C680.4,217.1,677.6,219,677.9,220.1z M412.9,223.6c-0.5-1.6-0.5-3.7-1.8-4.4C411,221.4,411,223.5,412.9,223.6z M667.3,221.9
			c1.2,0.3,1.7,1.3,3.5,0.9c0.2-2.3-0.3-3.8-2.6-3.5C668.3,220.4,667.8,221.2,667.3,221.9z M633,221c0-0.9-1.5-1.1-1.8,0
			C631.4,222,632.2,221.5,633,221z M394.4,223.6c0-1.5-0.7-2.3-1.8-2.6C391.4,222.3,391.4,224.4,394.4,223.6z M386.5,224.5
			c0.9-2.2-3-3.9-3.5-1.8C384.7,222.8,384.1,225.1,386.5,224.5z M426.1,222.7c0-0.5-0.7-1-0.9,0
			C425.2,223.2,425.9,223.7,426.1,222.7z M516.8,228c1.8,4.3,6.3,6,12.3,6.2c3.8-1.5,5.7-7.5,3.5-12.3
			C526,222.6,521.6,225.5,516.8,228z M570.5,226.3c-1.1-1.2-3.4-3.3-5.3-3.5c-2.5,0.1-5.8-0.5-7,0.9c0.2,1.7-1,1.9-0.9,3.5
			c6.4,0.4,7.3,6.2,13.2,7c1.3-0.2,1.5-1.5,2.6-1.8C574.3,228.6,571.9,227.8,570.5,226.3z M406.7,224.5c0-0.9-1.5-1.1-1.8,0
			C406,224.4,406.3,225.8,406.7,224.5z M629.5,225.4c0.9,0,1.8,0,2.6,0c0.1-1.6-0.9-2.1-2.6-1.8
			C629.5,224.2,629.5,224.8,629.5,225.4z M400.6,225.4c0,0.6,0,1.2,0,1.8c2.2,1.4,2.6-3,0.9-2.6C401.4,225,401.3,225.5,400.6,225.4z
			 M551.1,225.4c-3.5-2.2-6.8,2.3-11.4,1.8c-1.3,2.8-2.6,5.6-3.5,8.8c2.9,0.6,4.4-0.9,9.7,0c1.8-1.7,5.8-1.2,6.2-4.4
			C553.7,230.9,549.6,228.7,551.1,225.4z M380.3,226.3c-1,0.1-1.4-1.3-1.8,0C378.6,227.2,380.1,227.4,380.3,226.3z M622.4,225.4
			c-2.3,2.6-4.3,5.7-8.8,6.2c-1.7,5.1-5.1,8.4-11.4,8.8c0.1,4.5-4.3,4.5-6.2,7c-5.1,1.4-8.1,4.8-14.1,5.3c-4.2,4-10.6,5.8-15.8,8.8
			c-4.6,3.7-8.8,7.6-15,9.7c-2.8,0.8-2.7-1.4-4.4-1.8c0.3,3.2,1.8,5.3,2.6,7.9c-0.4,2.5-4.6,1.3-3.5,5.3c3.2-0.1,7.2,0.7,7.9-1.8
			c0.1,1.1,0.3,2.1,1.8,1.8c12.5-1.9,23-5.7,35.2-7.9c9.1-4.1,14.5-11.9,22-17.6c3.3-6.3,6.2-13.1,10.6-18.5
			c-0.5-4.9,3.8-8.7,1.8-12.3C623.9,226.2,623.9,225.1,622.4,225.4z M662.1,227.1c0.6,0,1.2,0,1.8,0c0-0.6,0-1.2,0-1.8
			c-0.6,0-1.2,0-1.8,0C662.1,226,662.1,226.6,662.1,227.1z M514.1,230.7c-0.5-1.6-0.5-3.7-1.8-4.4
			C511,227.6,511.1,231.3,514.1,230.7z M629.5,226.3c-0.7,0.2-1.7,0-1.8,0.9C628.4,226.9,629.5,227.1,629.5,226.3z M402.3,232.4
			c-0.3-2,0.1-3.4,0.9-4.4c-1.7-0.3-1.7,1.2-2.6,1.8c-0.9-0.8-0.3-3.2-2.6-2.6C397.7,230.6,400.4,231.2,402.3,232.4z M497.4,232.4
			c-0.1-3.3-1-2.5,0-5.3c-0.9,0-1.8,0-2.6,0C494.3,230.3,495.5,231.7,497.4,232.4z M438.4,228c-0.7,0.2-1.7,0-1.8,0.9
			C437.4,228.7,438.4,228.9,438.4,228z M632.1,229.8c2,2,2.6-3.5,0-0.9C631.5,229.5,631.3,229,632.1,229.8z M405,235.1
			c2.7-0.6,1.7-0.6,4.4,0c0.7-2.5-1.2-2.3-0.9-4.4c-2.2,1.2-2.1-4.1-3.5-0.9C408.1,230.4,406.2,233.9,405,235.1z M442.8,229.8
			c0-0.5-0.7-1-0.9,0C442,230.3,442.7,230.8,442.8,229.8z M630.4,229.8c0-0.5-0.7-1-0.9,0C629.5,230.3,630.2,230.8,630.4,229.8z
			 M633,235.1c3.4,1.4,1.8-2.3,3.5-2.6c0.8-1.6,2.9-2.7,0-3.5C635.5,231.1,633,231.9,633,235.1z M439.3,229.8
			c-0.7,0.2-1.7,0-1.8,0.9C438.2,230.5,439.3,230.6,439.3,229.8z M493,229.8c-0.2-0.2-1.3,0.4-0.9,0.9
			C492.4,230.9,493.5,230.2,493,229.8z M404.1,230.7C401.4,233.6,407.4,233.3,404.1,230.7L404.1,230.7z M499.2,237.7
			c-2.2-2.4-6.4,0.6-7,2.6c3.7,3.6,9.8,2.2,15.8,1.8c-0.9-4.3-1.9-3.9,0-7.9c-2.2-0.5-3.1-2.1-4.4-3.5
			C501.4,232.3,501.7,236.4,499.2,237.7z M416.4,233.3c0.6,0,1.2,0,1.8,0c0-0.6,0-1.2,0-1.8c-0.6,0-1.2,0-1.8,0
			C416.4,232.1,416.4,232.7,416.4,233.3z M432.3,235.1c1.6-1.5-0.3-3.5-2.6-3.5C430,233.2,430,235.3,432.3,235.1z M677,233.3
			c0.6,0,1.2,0,1.8,0c0-0.6,0-1.2,0-1.8c-0.6,0-1.2,0-1.8,0C677,232.1,677,232.7,677,233.3z M434,234.2c0.6,0,1.2,0,1.8,0
			c0-0.6,0-1.2,0-1.8c-0.6,0-1.2,0-1.8,0C434,233,434,233.6,434,234.2z M514.1,240.3c0.1-2.7-0.4-4.9-1.8-6.2
			C512.2,236,510.4,239.7,514.1,240.3z M648.8,241.2c0.9,0,1.8,0,2.6,0c-0.9-5.5,1.5-2.7,2.6-5.3c-1.7-0.4-1.6-2.5-4.4-1.8
			C650.4,237.4,648.2,238,648.8,241.2z M683.2,235.9c0-0.9-0.4-2.2-0.9-0.9C682.3,236,682.7,237.3,683.2,235.9z M400.6,235.9
			c-0.3,1.7,1.2,1.7,1.8,2.6c-1.8,0.5-1.9,1.4-0.9,2.6c2.8,0.4,2.5-2.2,3.5-3.5C402.9,237.3,402.6,233.8,400.6,235.9z M516.8,238.6
			c-5,9.9,12.2,14.3,16.7,7c-1.9-1.9-3.3-4.4-5.3-6.2c-6.1,1.1-6.8-3.2-11.4-3.5C516.4,237.2,515.7,237.4,516.8,238.6z M377.7,236.8
			c-0.2-0.2-1.3,0.4-0.9,0.9C377,237.9,378.1,237.3,377.7,236.8z M384.7,240.3c0.5-2.5-5.7-5.9-6.2-1.8
			C382.2,236.4,381.9,239.6,384.7,240.3z M384.7,245.6c1.5,0,2.9,0,4.4,0c0.8-2.8-2.3-1.8-2.6-3.5c0.2-1.1,2.6-4.3,0.9-4.4
			C385.4,239.2,384.4,241.8,384.7,245.6z M390,242.1C387.3,245.1,393.3,244.8,390,242.1L390,242.1z M435.8,238.6
			c0-0.9-1.5-1.1-1.8,0C434.2,239.6,435,239.1,435.8,238.6z M476.3,241.2c-3-0.5-9.8-3.7-11.4,0c3.2,2.4,4.6,6.5,9.7,7
			c3,0,3.8-2.1,5.3-3.5c1.5-1.2,4.2-3.6,2.6-5.3C479.7,239.4,478.2,240.5,476.3,241.2z M553.8,239.5c-3.9,2.2-6.4,0.7-11.4,0.9
			c1.3,5.2,8.1,4.8,10.6,8.8c3.5-0.6,5,0.8,7.9,0.9c1.4-3,5.4-3.4,6.2-7C562.4,242,558.5,240.3,553.8,239.5z M634.8,241.2
			c0-0.9-0.4-2.2-0.9-0.9C633.8,241.3,634.3,242.6,634.8,241.2z M379.4,243c0.2-1.9-0.7-2.8-2.6-2.6
			C376.6,242.3,377.5,243.1,379.4,243z M404.1,243c0-0.5-0.7-1-0.9,0C403.2,243.5,403.9,244,404.1,243z M664.7,245.6
			c1.2,0,1.9,0.4,2.6,0.9c-0.9-3.3,3.3-1.4,2.6-4.4C667.2,242.3,664.7,242.7,664.7,245.6z M412.9,245.6c-7.6-5.5-13,3.9-12.3,14.1
			c5,1.3,10.1-1.4,14.1-3.5C415,251.8,414.1,248.5,412.9,245.6z M449,243.9c-2.2,0.2-2.4,0.9-3.5,1.8c-2.4,1.8-5.5,3.5-6.2,6.2
			c1.3,5.2,5.7,7.2,13.2,6.2c1.3-2.8,4.5-3.8,4.4-7.9C455.4,246.9,453.7,243.9,449,243.9z M543.2,243.9c-0.2-0.2-1.3,0.4-0.9,0.9
			C542.6,245,543.7,244.3,543.2,243.9z M639.2,247.4c0-1.5-0.7-2.3-1.8-2.6C637.5,246.1,637.3,247.8,639.2,247.4z M388.3,247.4
			c0-0.5-0.7-1-0.9,0C387.4,247.9,388.1,248.4,388.3,247.4z M494.8,247.4c0-0.5-0.7-1-0.9,0C493.9,247.9,494.6,248.4,494.8,247.4z
			 M655.9,250.9c2.1,0,2.6-1.5,5.3-0.9C661.7,244.7,655.4,246.8,655.9,250.9z M495.7,249.1c0.6,0,1.2,0,1.8,0c0-0.6,0-1.2,0-1.8
			c-0.6,0-1.2,0-1.8,0C495.7,248,495.7,248.6,495.7,249.1z M538.8,252.7c-1.2,0-2.3,0-3.5,0c0.2,2.6-2,2.7-1.8,5.3
			c1.6,1.6,5.4,1.1,6.2,3.5c0.4,2.8-3,2.3-0.9,4.4c4.7-0.1,1.5-3.6,4.4-4.4c6.9,0.7,10.2-2.1,12.3-6.2c-4-1.9-8.8-2.9-11.4-6.2
			c-2.7-0.7-1.7,2.4-4.4,1.8c0.3-1.2,1.2-1.7,0.9-3.5c-0.9,0-1.8,0-2.6,0C537.3,250.1,538.8,250.6,538.8,252.7z M387.4,250.9
			c0.6,0,1.2,0,1.8,0c0-0.6,0-1.2,0-1.8c-0.6,0-1.2,0-1.8,0C387.4,249.7,387.4,250.3,387.4,250.9z M433.2,249.1
			c-0.2-0.2-1.3,0.4-0.9,0.9C432.5,250.3,433.6,249.6,433.2,249.1z M511.5,253.6c-4.3,3.4-6-0.9-12.3,0c2.2,5.1,8.6,6.1,15.8,6.2
			c0.8-1.9,2.7-2.6,2.6-5.3c-1.7-2.4-4-4.2-7-5.3C510.3,251.2,510.8,252.5,511.5,253.6z M469.2,253.6c1.1,0,1.2,1.1,2.6,0.9
			c0-1.5-0.7-2.3-1.8-2.6C470.1,252.7,469.4,252.8,469.2,253.6z M626,252.7c0-0.5-0.7-1-0.9,0C625.1,253.2,625.8,253.7,626,252.7z
			 M431.4,257.1c-2.6-1,3.2-0.8,1.8-3.5c-1.2,0-2.4,0-3.5,0C429.1,255.4,429.9,260.2,431.4,257.1z M483.3,264.1c2.8,1,4.7,3,7.9,3.5
			c3.8-1.4,8.4-2.2,7-8.8c-6.2-0.8-14.3-4.5-20.3-2.6C481.3,257.3,481.7,261.4,483.3,264.1z M390,260.6c0.5-2.8-1.7-2.7,0-4.4
			C386.3,255.5,387,260.9,390,260.6z M628.6,256.2c-0.2-0.2-1.3,0.4-0.9,0.9C628,257.3,629.1,256.6,628.6,256.2z M430.5,260.6
			c-1.4-0.1-0.7-2.2-2.6-1.8C426.5,261.3,430.2,262.8,430.5,260.6z M635.6,262.4c0.1-1.4,2.2-0.7,1.8-2.6c-0.9,0-1.8,0-2.6,0
			C634.9,260.8,634.6,262.2,635.6,262.4z M514.1,266.8c-3.5-0.6-4.9-3.3-8.8-3.5c1.3,8.6,12,8,16.7,13.2c-2.4,0.8,0.7,3.2,1.8,3.5
			c0.5-1.5-1.1-5.2,0.9-5.3c3.2,0.3,4.2,1.3,7,0c1.1-3.5-2.6-2.1-2.6-4.4c0.4-1.7,1.9-2.2,1.8-4.4c-2.2-2.2-3-5.8-7.9-5.3
			C522.2,266.8,516,262.6,514.1,266.8z M394.4,262.4c0-0.5-0.7-1-0.9,0C393.5,262.8,394.2,263.4,394.4,262.4z M472.8,265
			c-1.7,0-1.1-2.4-3.5-1.8C468.3,265.5,472.2,267.1,472.8,265z M633.9,265c-1.6,1.6-6.2-0.8-4.4,0.9
			C630.8,267.3,634,268.9,633.9,265z M626.8,270.3c3.4,0.7,3.4-4.2,0-3.5C626.8,267.9,626.8,269.1,626.8,270.3z M532.6,270.3
			c0-0.9-1.5-1.1-1.8,0C531.9,270.2,532.2,271.6,532.6,270.3z M647.1,273.8c0.6,0,1.2,0,1.8,0c0-0.6,0-1.2,0-1.8c-0.6,0-1.2,0-1.8,0
			C647.1,272.6,647.1,273.2,647.1,273.8z M463.1,272.9c-0.7,0.2-1.7,0-1.8,0.9C462,273.6,463.1,273.8,463.1,272.9z M628.6,276.4
			c0.6-2.2-3.8-3.7-4.4-1.8C625.9,275.1,625.8,277.2,628.6,276.4z M390.9,275.6c-2.5,2.8-4.4,8.9-2.6,13.2c1.8,1.3,3.9,1.1,6.2,1.8
			c5.8,1.6,5.9,1.3,9.7-0.9c1.8-1,3.7-0.8,4.4-2.6c0.5-4.3-3.5-4.1-4.4-7c-2.9-1.2-2.4-5.9-7-5.3C395,275,393.8,276.1,390.9,275.6z
			 M424.3,285.2c0.2,3.3,1.4,5.7,3.5,7c3,0.8,0.8,6.8,5.3,6.2c9-1.8,13.8-7.9,13.2-19.4C440.8,270.9,424.3,274.9,424.3,285.2z
			 M618.9,278.2c0-0.9-1.5-1.1-1.8,0C617.3,279.3,618.1,278.7,618.9,278.2z M482.5,279.1c-4.2,1.5-4-1.2-8.8-0.9
			c-0.6,1.2-1.9,1.6-3.5,1.8c1.2,3.6-4.3,5-1.8,7c0-0.9,1.1-0.7,0.9,0.9c1.2,0.2,1,1.9,1.8,2.6c3.8-0.5,3.6,2.9,7,2.6
			c4.9-1,9.5-2.3,10.6-7C487.9,282.4,484.5,281.4,482.5,279.1z M411.1,284.4c1.7,0.2,1.9-1,3.5-0.9c0.2-1.9-0.7-2.8-2.6-2.6
			C412.2,282.5,411,282.8,411.1,284.4z M508,292.3c2.5-2.4-1.6-2.8-1.8-5.3c-1.2,0-2.3,0-3.5,0C502.3,292.5,506.4,288.4,508,292.3z
			 M545.8,293.2c-0.7,0.2-1.7,0-1.8,0.9C544.8,293.9,545.8,294,545.8,293.2z M406.7,298.5c1.2,0,2.3,0,3.5,0
			C411,295.1,406,295.1,406.7,298.5z M533.5,296.7C536.5,299.4,536.2,293.4,533.5,296.7L533.5,296.7z M391.8,302
			C388.2,298.9,389.7,304.8,391.8,302L391.8,302z M471,302.9c-0.6,0-1.2,0-1.8,0c-0.8,4.7-7.5,3.7-7.9,8.8
			c2.4,7.8,16.6,9.2,20.3,1.8c-2.6-0.7,0.5-2.8,0-4.4C478.1,306.9,476.3,303.1,471,302.9z M514.1,308.1c-2.2,0.1-2.1,3.3-0.9,4.4
			c2.2,0.1,2.7-1.4,4.4-1.8c0-1.8,0-3.5,0-5.3c-2-0.9-2.8-3-6.2-2.6C510.7,306.3,513.7,306,514.1,308.1z M517.7,304.6
			c1.5,0,2.3-0.7,2.6-1.8C518.9,302.9,517.3,302.7,517.7,304.6z M433.2,309.9c0.9,0,1.8,0,2.6,0c0-0.9,0-1.8,0-2.6
			c-0.9,0-1.8,0-2.6,0C433.2,308.1,433.2,309,433.2,309.9z M389.1,314.3c0.6,0,1.2,0,1.8,0c0-1.1,1.1-1.2,0.9-2.6
			c-0.9,0-1.8,0-2.6,0C389.1,312.5,389.1,313.4,389.1,314.3z M411.1,314.3c2.3-0.7-0.6-4.9-1.8-1.8
			C409.2,313.1,410.7,314.4,411.1,314.3z M415.5,318.7c0.4-1.7,2.5-1.6,1.8-4.4c-2.8-0.5-2.7,1.7-4.4,0
			C412.5,317.1,414,317.9,415.5,318.7z M437.6,322.2c-0.1,2.2,1.4,2.7,1.8,4.4c5.3,0.7,8.3-4.8,6.2-8.8
			C441.5,318,441.6,322.2,437.6,322.2z M419.1,327.5c-0.5,2.3,5.1,3,5.3,1.8c-1.7-0.4-0.7-3.4-3.5-2.6
			C420.6,327.3,420.1,327.6,419.1,327.5z M413.8,339c0.6,0,1.2,0,1.8,0c0-0.6,0-1.2,0-1.8c-0.6,0-1.2,0-1.8,0
			C413.8,337.8,413.8,338.4,413.8,339z M437.6,338.1C435.4,341,440.5,335.9,437.6,338.1L437.6,338.1z M456,340.7
			c1.3,0.2,1.5,1.5,2.6,1.8c0-1.2,0.4-1.9,0.9-2.6C458.4,338.7,456.3,338.7,456,340.7z M439.3,343.4c0.3-0.5,2.2-3.4,0-3.5
			C439.1,340.4,437.1,343.2,439.3,343.4z M473.6,358.3c1.1-2.5,0.8-6-2.6-6.2C471.1,355,470.1,358.9,473.6,358.3z M471.9,351.3
			c0-0.6,0-1.2,0-1.8c-0.6,0-1.2,0-1.8,0c-0.1,0.5-0.1,1-0.9,0.9c0,0.6,0,1.2,0,1.8c0.6,0,1.2,0,1.8,0
			C471.1,351.6,471.1,351.1,471.9,351.3z M486.9,354.8c0.9,0,1.8,0,2.6,0c0.1-1.6-0.9-2.1-2.6-1.8
			C486.9,353.6,486.9,354.2,486.9,354.8z M435.8,366.2c-6.6,0.5-15.8-1.7-17.6,3.5c3.7,4.6,11.7,4,17.6,4.4
			c4.8,8.1-8.5,18.5,2.6,20.3c1.9-7.9,3.5-16.4,1.8-25.5C437.9,368.8,437.1,367.3,435.8,366.2z M468.4,383.9
			c4.4-1.7,6.8-0.1,10.6,0.9c2.2-4,2.5-12-2.6-13.2C474.5,376.5,468.3,377,468.4,383.9z M447.2,389.1c1.2-3.4,4.5-13.6-1.8-14.1
			C443.9,380,440.7,387.3,447.2,389.1z M411.1,379.4c0-0.5-0.7-1-0.9,0C410.3,379.9,411,380.4,411.1,379.4z M453.4,393.5
			c4.5-0.1,5.3-5.9,3.5-9.7c-0.9,0-1.8,0-2.6,0C452.7,385.6,451.5,391,453.4,393.5z M468.4,386.5c0.2,3.9,3.4,4.9,5.3,7
			c-0.4,3.6,0.9,5.6,4.4,5.3c2.3-3.6-1.1-7.9-1.8-11.4C473.4,387.3,470.8,384.3,468.4,386.5z M442.8,389.1c-0.7,0.2-1.7,0-1.8,0.9
			C441.8,389.8,442.8,390,442.8,389.1z M405.9,397.1c1-1.5,3.7,2.7,3.5,5.3c1.5,0,2.9,0,4.4,0c-1-5.2-1.8-10.6-6.2-12.3
			C408.1,392.9,403.5,395.2,405.9,397.1z M459.6,400.6c4.1-0.6,3.7-5.7,4.4-9.7c-1.1,0-1.2-1.1-2.6-0.9
			C459.8,392.9,457.9,397,459.6,400.6z M445.5,393.5c0.6,0,1.2,0,1.8,0c0-0.6,0-1.2,0-1.8c-0.6,0-1.2,0-1.8,0
			C445.5,392.4,445.5,392.9,445.5,393.5z M521.2,398.8c2.5,0.8,3.6,2.8,7,2.6c0.5-2.1,1.3-4,0.9-7
			C525.2,392.3,522.1,395.3,521.2,398.8z M469.2,404.1c4.7,0.1,2.9-10.1-0.9-9.7C468.7,397.6,467.6,402.2,469.2,404.1z M534.4,400.6
			c0-0.5-0.7-1-0.9,0C533.5,401.1,534.2,401.6,534.4,400.6z M522.1,405.9c-0.4,2.8,1.3,3.4,1.8,5.3c2.7,0,4.5-0.8,5.3-2.6
			c2.1-0.9,5.6-0.3,5.3-3.5C531.5,403.4,525.5,405.1,522.1,405.9z M414.7,405.9c-1,0.1-2.5-0.2-2.6,0.9
			C413.1,406.6,414.5,406.9,414.7,405.9z M465.7,407.6c1.3,1,2.1,0.9,2.6-0.9c-1.2,0-1.9-0.4-2.6-0.9
			C465.7,406.4,465.7,407,465.7,407.6z M517.7,418.2c0.5,3.8,2.3,2.9,0.9,7c1,1,3.1,1,5.3,0.9c2.1-3.1,1.1-4.1,1.8-7.9
			C523.5,417.5,519.5,416.4,517.7,418.2z M513.3,433.2c-0.2,1.9,3.1,0.4,4.4,0.9c0,1.8-2.4,1.1-1.8,3.5c1.8,0,3.5,0,5.3,0
			c0-2.9,2.5-3.4,1.8-7C520,428.6,513.7,429.7,513.3,433.2z M511.5,434c0-1.5-0.7-2.3-1.8-2.6C509.8,432.8,509.6,434.4,511.5,434z
			 M511.5,444.6c0.7,0.2,1,0.7,0.9,1.8c3.3,0.4,5.2-0.7,5.3-3.5c-1.3-0.2-1.5-1.4-2.6-1.8C514.2,442.6,511.8,442.5,511.5,444.6z
			 M516.8,450.8c-8.8-0.9-9.7,6.1-14.1,9.7c-2,1-4.4,1.5-6.2,2.6c-0.4,2.1,1.6,1.9,0.9,4.4c2.5,1.1,6.1,1,9.7,0.9
			c2.5-2.2,5.3-4.1,10.6-3.5c2.6-3.2,6.8-4.9,7-10.6C520.5,454.6,520.4,451,516.8,450.8z M471,460.4c3,1.5,6.5,0.6,9.7,0
			c-0.3-4.4-4-5.4-7.9-6.2C473.6,457.8,470.1,456.9,471,460.4z M487.7,463.1c2.3,0,5.2,0.5,5.3-1.8c-2.5-3.8-5.3-4.2-9.7-4.4
			C483.6,460.1,487.1,460.2,487.7,463.1z M526.5,464c3.6,1.7,10.3,0,11.4-3.5C534.6,456.7,526.6,459.1,526.5,464z M491.3,473.6
			c0.8-1.6,2.5-2.2,1.8-5.3c-1.8-0.5-2.5-2.2-5.3-1.8C488.6,469.3,488.4,473,491.3,473.6z M482.5,478.9c0.6-3.6-0.8-5-4.4-4.4
			C477.3,478.2,479.4,479,482.5,478.9z M464,483.3c1.3,0.2,1.5,1.4,2.6,1.8c1.9-1.9,6.3-1.4,6.2-5.3
			C469.9,478.1,462.8,478.2,464,483.3z"/>
		<path class="st0" d="M731.6,115.3c0.7,1.7,6.5,1.3,6.2-0.9c2.3,0.7-1.7,3.9,0.9,5.3c0.2,2.2-1.3,2.8-2.6,3.5
			c0.6,2.7-0.9,3.2-0.9,5.3c-6.9,5.4-9.9,14.8-15,22c-1.2,2.7,0.4,3.1,0,7c-1.7,3.3-3.5,6.5-2.6,12.3c-5.6,0.3-3.2,8.5-7.9,9.7
			c-0.4,2.1,1.6,1.9,0.9,4.4c-1.4,2.2-6.6,4-9.7,1.8c-0.8-2.8,2.9-1.2,2.6-3.5c-0.3-1-4.2-3.4-3.5,0c-2.3-1.2-2.5-4.5-3.5-7
			c1,0.1,1.6-0.2,1.8-0.9c-3.4-1.3-1.1-8.3-4.4-9.7c1.3-2.8,0.3-3.9,0-7c-1.7-1.2-3.2-2.7-4.4-4.4c0.6-3.2,2.9-4.7,3.5-7.9
			c0.7,0.2,0.9,0.9,1.8,0.9c5.3-9.1,12.4-16.4,18.5-24.7c1.2-7.4,5.1-12,9.7-15.8c-0.4-2.8,1.1-3.6,2.6-4.4
			c-0.1-3.3,0.9-5.6,1.8-7.9c2.8-0.1,3,2.3,3.5,4.4c2-0.3,3.4,0.1,4.4,0.9c2.1,3.2,2.7,7.9,6.2,9.7c1,0.1,1.6-0.2,1.8-0.9
			c2.3,1.2-0.5,1.2-0.9,1.8c-0.7,0.9-1.3,2.5-1.8,3.5c-2.5-0.2-4.5,0.2-5.3,1.8C734,113.3,731.8,113.3,731.6,115.3z M737.8,109.2
			c-3.2-1.9-4,4.5-0.9,3.5C736.8,111.2,737.1,110,737.8,109.2z M725.4,109.2c0-0.5-0.7-1-0.9,0C724.6,109.7,725.3,110.2,725.4,109.2
			z M730.7,118c-1-0.1-2-1.6-2.6,0C729.1,118.1,730.1,119.5,730.7,118z M729.8,122.4c0.6,0,1.2,0,1.8,0c0-0.6,0-1.2,0-1.8
			c-0.6,0-1.2,0-1.8,0C729.8,121.2,729.8,121.8,729.8,122.4z M721.9,123.3c0.6,0,1.2,0,1.8,0c0-0.6,0-1.2,0-1.8c-0.6,0-1.2,0-1.8,0
			C721.9,122.1,721.9,122.7,721.9,123.3z M727.2,125.9c-3-0.6-2.9,1.8-4.4,2.6C724.1,129.9,727.3,128.6,727.2,125.9z M722.8,125.9
			c-2.1,0.4-1.9-1.6-4.4-0.9c-0.3,1.7,1.2,1.7,1.8,2.6c-0.3,1.3-1.1,1.5,0,2.6c0.9,0,1.8,0,2.6,0
			C722.7,128.1,721.1,127.6,722.8,125.9z M722.8,133.8c0.6,0,1.2,0,1.8,0c0-0.9,0-1.8,0-2.6c-0.9,0-1.8,0-2.6,0
			C721.9,132.4,722.3,133.1,722.8,133.8z M714,136.5c-0.4,3.6,0.9,5.6,4.4,5.3c-0.1-1.3,0.3-3.2-0.9-3.5c-0.2,1.3-1.5,0.1-1.8-0.9
			c0.7-0.2,1.7,0,1.8-0.9C715.8,135,716.4,136.5,714,136.5z M721,139.1c0-1.7,2.4-1.1,1.8-3.5C720.6,134.7,718.9,138.5,721,139.1z
			 M716.6,142.6c-0.2-0.2-1.3,0.4-0.9,0.9C716,143.7,717.1,143.1,716.6,142.6z M703.4,152.3c-1.2,0.1-2.7-3.6-3.5-0.9
			C701.1,151.3,702.6,155,703.4,152.3z M704.3,156.7c2.6,1.3,2.6-3.9,0-2.6C704.3,154.9,704.3,155.8,704.3,156.7z M702.5,157.6
			c-1,0.1-1.4-1.3-1.8,0C700.8,158.5,702.3,158.7,702.5,157.6z M710.5,161.1C708.1,163.8,713.2,158.7,710.5,161.1L710.5,161.1z
			 M708.7,169c0.4-1.7,2.5-1.6,1.8-4.4c-2.7,0.6-1.7,0.6-4.4,0C706.4,166.6,708,167.4,708.7,169z"/>
	</g>
	<path class="st0" d="M261.5,308.1c3-0.2,7.1,0.7,8.8-0.9c1.5-2,0.4-6.6,1.8-8.8c3.5-2.1,6.7-4.5,9.7-7c3.6,1,3.4-1.9,6.2-1.8
		c1.8,1.7,4.2,2.8,7,3.5c4.5,7.8,12.1,12.6,11.4,25.5c-4.1-0.3-8.9,0.1-10.6-2.6c-3.3,1.4-10.2-1.6-13.2,1.8c0.8,10.3,0,22.3,7,26.4
		c10.2,1.1,11-7.2,21.1-6.2c0.6,3.5,1.9,6.3,1.8,10.6c-4.7,5-10.2,9.2-21.1,7.9c-4.8-4.3-8.7-9.5-14.1-13.2
		c-0.3-2.9-2.1-4.4-3.5-6.2C272.6,324.6,265,318.4,261.5,308.1z M305.5,351.3c-0.8,1.6-3.2,1.5-3.5,3.5
		C303.9,354.8,308,352.7,305.5,351.3z M281.7,309.9c3.4,1.6,11.4,1.1,15,0C299.1,299.1,276.3,299.5,281.7,309.9z M293.2,355.7
		c1.5,0,2.3-0.7,2.6-1.8C294.3,353.9,293.6,354.6,293.2,355.7z M301.1,353.9c-0.7,0.2-1.7,0-1.8,0.9
		C300,354.6,301.1,354.8,301.1,353.9z"/>
	<path class="st0" d="M151.4,451.6c2.3-2.2,4.2,0.9,5.3,2.6c1.2,1.8,4.7,1.2,5.3,3.5c3.7,0.1,5.2,2.4,8.8,2.6
		c-0.1,3.1,3.1,2.8,4.4,4.4c1.3,1.3,1.6,3.7,3.5,4.4c4.1,0,8.2,0,12.3,0c5.5-3,10.4-6.6,14.1-11.4c0.5-5.1,1-10.2,1.8-15
		c-1.7-13.3-18.1-11.8-29.1-15.8c0.7-2.8,3.8-3.3,6.2-4.4c0.9-2.6,4-3.1,6.2-4.4c2.9-3.2,6.6-5.7,7.9-10.6
		c-0.4-5.1-2.9-8.3-6.2-10.6c0.5-3.4-0.8-5.1-1.8-7c-2-2.7-5.6-3.8-8.8-5.3c-6.7-1.1-8.5,2.7-15,1.8c-3.3,0.5-3.6,4-7,4.4
		c-1.1,5.9-2.6,11.5-3.5,17.6c-3,1.5-4.5-0.6-8.8,0c1.5-3.1,0.7-7.2,0-10.6c1-3.7,3.1-6.3,3.5-10.6c3.8-4.1,7.4-8.4,11.4-12.3
		c8.1-0.2,10.8-0.8,18.5-1.8c6.3,1.7,10.4,5.5,16.7,7c0.4,2.8,1.9,4.5,4.4,5.3c-1.4,5.2,2.4,11.2,4.4,15.8c0.1,10-2.4,19.7-7.9,26.4
		c1,1.3,4.3,2.4,7,2c1.6,0.8,1.1,3.6,4.4,2.6c0.7,2.6,2.3,5.8,3.7,7.7c-0.1,5.7,0.6,8.8,0.9,12.3c-0.5,3.1-0.6,2.2-1,5.3
		c0,2.1,0,4.1,0,6.2c-1.3,4.6-7.1,4.7-8.8,8.8c-3.8,1.8-7.5,3.6-11.4,5.3c-5.1-1-10-0.1-14.1-0.9c-6.2-1.2-8.7-3.3-12.3-7
		c-1-1-4.4-1.5-6.2-2.6c-1.9-2.5-4.2-4.6-5.3-7.9c-1.8-0.6-0.2-4.4-3.5-3.5C150.3,454.9,150.3,452.8,151.4,451.6z M169.9,471.9
		c0.7-2-3.2-3.6-3.5-1.8C168.1,470.1,167.5,472.5,169.9,471.9z M176.1,471.9c-0.4-2.2-3.4-0.1-2.6,1.8c3.7,0.2,7.4,0.3,7.9-2.6
		C179.6,469.1,177.9,471.3,176.1,471.9z M184,471.9c0.9,0,1.8,0,2.6,0c0.1-1.6-0.9-2.1-2.6-1.8C184,470.7,184,471.3,184,471.9z"/>
	<path class="st0" d="M328.4,412.9C331.1,410.5,326,415.6,328.4,412.9L328.4,412.9z"/>
	<path class="st0" d="M378.6,445.5c2.2-1.7-0.5,4,0,6.2C375.9,450.3,379.3,447.8,378.6,445.5z"/>
</g>
</svg>
