<?xml version="1.0" encoding="utf-8"?>
<!-- Generator: Adobe Illustrator 19.0.0, SVG Export Plug-In . SVG Version: 6.00 Build 0)  -->
<svg version="1.1" id="Layer_1" xmlns="http://www.w3.org/2000/svg" xmlns:xlink="http://www.w3.org/1999/xlink" x="0px" y="0px"
	 viewBox="0 0 78 80" style="enable-background:new 0 0 78 80;" xml:space="preserve">
<style type="text/css">
	.st0{fill-rule:evenodd;clip-rule:evenodd;fill:#F04C26;}
</style>
<g id="XMLID_2_">
	<path id="XMLID_325_" class="st0" d="M16.4,1.6c-0.1-0.1,0.1-0.2,0.1-0.1C16.7,1.5,16.5,1.6,16.4,1.6z"/>
	<path id="XMLID_324_" class="st0" d="M0.2,8.3C0.1,8.3,0.3,8.2,0.3,8.2C0.4,8.3,0.2,8.4,0.2,8.3z"/>
	<path id="XMLID_323_" class="st0" d="M32.6,10.2c-0.1-0.1,0.1-0.2,0.1-0.1C32.8,10.1,32.6,10.3,32.6,10.2z"/>
	<path id="XMLID_322_" class="st0" d="M15.9,16.4c0-0.1,0.2-0.1,0.3-0.1C16.1,16.4,16,16.4,15.9,16.4z"/>
	<path id="XMLID_321_" class="st0" d="M55.4,23.9c0.5-0.6,0.2,0.8,1,0.4c-0.2,0.3-0.3,0.6-0.9,0.6c0-0.1,0.2-0.1,0.3-0.1
		C55.8,24.4,55.8,24,55.4,23.9z"/>
	<path id="XMLID_319_" class="st0" d="M55.3,24.6c-0.1-0.1,0.1-0.2,0.1-0.1C55.5,24.5,55.3,24.6,55.3,24.6z"/>
	<path id="XMLID_318_" class="st0" d="M76.3,27.5c0-0.1,0.2-0.1,0.3-0.1C76.6,27.5,76.4,27.4,76.3,27.5z"/>
	<path id="XMLID_317_" class="st0" d="M3.5,34.4c0.1,0,0.2,0,0.3,0c0,0.1,0,0.2,0,0.3c-0.1,0-0.2,0-0.3,0
		C3.5,34.6,3.5,34.5,3.5,34.4z"/>
	<path id="XMLID_315_" class="st0" d="M4.2,44.6c0.3-0.1,0.5,0.7,0.1,0.7C3.8,45.5,4.1,44.7,4.2,44.6z"/>
	<path id="XMLID_314_" class="st0" d="M23.2,46.2c-0.2,0.1,0,0.7-0.4,0.6C22.7,46.4,22.8,46.1,23.2,46.2z"/>
	<path id="XMLID_313_" class="st0" d="M5.5,49.8c0.4,0,0.5,0.2,0.4,0.6c-0.1,0-0.3,0-0.4,0C5.5,50.2,5.5,50,5.5,49.8z"/>
	<path id="XMLID_312_" class="st0" d="M5.8,52.8c0.1,0,0.2,0,0.3,0c0,0.1,0,0.2,0,0.3c-0.1,0-0.2,0-0.3,0C5.8,53,5.8,52.9,5.8,52.8z
		"/>
	<path id="XMLID_311_" class="st0" d="M7.2,52.8c0.2,0.1,0.3,0.2,0.3,0.4C7.2,53.3,7.2,53,7.2,52.8z"/>
	<path id="XMLID_310_" class="st0" d="M5.8,55.1C5.8,55,6,55,6.1,55C6.1,55.1,5.9,55.1,5.8,55.1z"/>
	<path id="XMLID_309_" class="st0" d="M7.5,64.2c-0.1,0.2-0.2,0.3-0.4,0.3C7,64.2,7.3,64.2,7.5,64.2z"/>
	<path id="XMLID_308_" class="st0" d="M15,66c0-0.1,0.2-0.1,0.3-0.1C15.3,66,15.1,66,15,66z"/>
	<path id="XMLID_307_" class="st0" d="M10,67.6c0,0.6-0.8-0.1-1.3,0.1c-0.5-0.2,0.5-0.1,0.7-0.1C9.5,67.6,9.9,67.3,10,67.6z"/>
	<path id="XMLID_306_" class="st0" d="M24.9,70.9c0.4-0.3,1.4,0,1.9,0.1C26.5,71.7,25.3,71.2,24.9,70.9z"/>
	<path id="XMLID_305_" class="st0" d="M26.8,79.7c0-0.2,0.3-0.1,0.3,0C27,79.9,27,79.7,26.8,79.7z"/>
	<g id="XMLID_3_">
		<path id="XMLID_22_" class="st0" d="M54.9,21.6c1.5,0.1,1.2-1.7,2-2.3c0.5-0.9,1.2-1.6,1.6-2.6c0.8-0.6,1.4-1.4,2-2.2
			c0.3-0.1,0.6-0.1,0.7-0.3c0.9,0,1.7,0.1,2.3,0.4c0.1,0.9-0.6,1.1-0.7,1.7c-0.2,0.3-0.9-0.3-0.6,0.4c-0.5,0.1-0.6-0.3-0.9,0
			c-0.1,0.3,0.1,0.5,0.1,0.3c0.4,0.4-0.5,0.5-0.7,0.7c-0.1,0.6-0.5,0.8-0.4,1.6c-0.5,0.4-0.7,1.1-1.2,1.6c-0.3,0.1-0.2,0.7-0.6,0.7
			c-0.3,0.2,0.1,0.5-0.4,0.6c-0.7,0,0.1-0.6-0.1-1c-0.7,0.1-0.3,0.6-0.3,1.2c-0.4,0.1-0.4,0.7-0.9,0.7c-0.1,0.4,0.2,0.4,0.1,0.7
			c-0.4,0.4-0.4-0.4-0.9-0.3c-0.6,0-0.1-0.1-0.1-0.4c-0.4-0.1-0.4,0.2-0.7,0.1c-0.5,0-0.2,0.7-0.9,0.4c-0.6,0-0.1-0.1-0.1-0.4
			c-0.3,0.1-0.4-0.1-0.6-0.1c-0.6,0.2,0.2,0.5,0.1,1c-0.4,0.1-0.5,0.3-1,0.4c-0.6,0.1-1.2-0.1-1.7,0.1c-0.1,0,0,0.1-0.1,0.1
			c-0.1,0-0.2-0.1-0.1-0.1c-0.4,0.2-0.3,0.4-0.6,0.4c0.4,0.9,1.9,0.1,2.7,0.1c0.5,0,0.5-0.5,1-0.4c0.6,0.2,0.6,1,1.3,1.2
			c0.7,0.1,1.2-0.1,1.6-0.3c0.7,0.5,0.5,1.8,1.2,2.3c-0.1,0.7,0,1.2,0.1,1.7c0.1,0.5,0.1,0.3-0.1,0.6c0.4,0.2,0.8,0.5,0.9,1
			c0.3,0.4,0.9,0.5,1.2,1c0.1,0.7-0.1,1.1-0.4,1.4c0.4,0.7-0.5,0.9-0.3,1.9c-0.6,0.5-1,1.3-0.9,2.6c-0.5,0.4-0.6,1.2-1.3,1.4
			c0.1,0.3-0.3,0.3-0.1,0.7c-0.8,0.3-1.3,0.9-2,1.3c-0.1,0.3-0.1,0.7-0.3,1c-0.7,0.3-1.6,0.5-2.2,0.9c-1.1,1.4-1.3,3.8-2.4,5.2
			c0.1,0.8-0.6,0.7-0.6,1.4c-0.4,0.3-0.4,0.9-0.7,1.2C48.5,52.3,48,53,47.7,54c-1.2,0.7-2.6,1.2-4,1.7c-0.7-0.2-1.7-0.1-2.4-0.3
			c-0.9,0.2-0.8,1.3-1.7,1.4c-0.1,0.8-0.8,0.9-1,1.6c-0.5,0.1-0.5,0.5-1,0.6c0,0.4-0.3,0.4-0.3,0.9c-0.7-0.1-1,0.6-1.4,1
			c-0.3,0.3-0.8,0.4-1,1c0.2,0.7,0.8,0.9,0.6,2c0,0.5-0.5,0.5-0.7,0.7c-0.1,0.5-0.4,0.9-0.7,1.2c-0.3,2-1.4,3.2-1.7,5.2
			c-0.6,0.2-0.6,1.1-0.9,1.6c0.2,0.2,0.1,0.7,0.3,0.9c0.8,0.5,1.4,1,2.6,1.2c0.1,0.5,0.4,0.9,0.3,1.6c-1-0.1-1.3,0.4-1.9,0.7
			c-2.9-0.4-5.1,0.4-6.9,1.4c-2.1,0.1-3.3,1.1-4.9,1.7c-0.9-0.3-0.6-1.7-1.4-2c0.7-0.4,2-0.2,2.6-0.7c1,0.3,2,0,2.3-1.2
			c-0.4-0.7-1.8-0.4-2.7-0.6c-0.5,0,0-0.5-0.4-0.7c-0.5-0.2-1.2-0.6-1.4,0.1c0.2,0.4,0.9,0.4,1.3,0.6c-0.6,0.3-2.1,0.2-2.7,0
			c0.2-0.4,0.4-0.7,0.3-1.4c0.5-0.2,1.2-1,1.7-0.3c0.5-0.2,0.6-0.9,1-1.2c1.2,0.1,1.9,0.1,2.9,0c0.8,0.5,1.8,0.8,2.9,1
			c0.7-0.1,0.6-0.9,1.3-1c0.1-0.3,0.1-0.6,0.3-0.7c0-0.7,0-1.3,0-2c0.5-0.9,1.1-1.9,1.6-2.9c-0.2-1-0.3-1.3-0.3-2.3
			c-0.3-0.6-1-0.6-1-1.4c-0.4-0.2-0.8-0.4-1.2-0.6c0-1.4-0.7-2.2-2-2.3c-0.5,0.5-1.3,1.4-0.9,2.4c-0.5,0.3-0.2,1.3-0.6,1.6
			c0.3,0.6,0.1,1.4,0,2c-0.9-0.1-1,0.6-1.6,0.9c-0.9-0.5-2.2-0.6-2.9-1.3c-0.4-0.3,0.2-0.3,0.3-0.6c-0.4-0.7-2.1-0.7-2.9-0.3
			c-1-0.2-1.9-0.4-2.9-0.6c-0.2-0.4-0.9-0.9-0.6-1.3c0.5,0,0.7,0.3,1.2,0.3c0.4-0.2,0.6-0.6,0.9-1c0-0.4-0.3-0.6-0.4-1
			c-0.8-0.3-1.6,0.3-2-0.4c-0.7,0.1,0.1,0.9-0.3,1.2c-0.4,0.1-0.7-0.2-1-0.1c-0.3,0-0.4,0.3-0.7,0.3c-0.5,0.2-0.4-0.4-0.9-0.3
			c-0.5,0.2-0.4,1-0.6,1.4c0.2,0.6,0.6,1.1,1.2,1.4c0.5,0,0.1-0.8,0.4-1c-0.1-0.1-0.9,0-0.7-0.7c0-0.5,0.6-0.4,1.2-0.4
			c0.2-0.3,0.9-0.1,1.2-0.3c-0.7,2,1.2,2.5,1.2,4.3c-0.6,0.2-1.6-0.2-2-0.6c-0.5,0-1,0-1.4,0c-0.3-0.4-0.3-0.6-0.6-1
			c0-0.1-0.1-0.2-0.1-0.3c-0.4-0.6-0.8-0.8-1-1.7C9.1,62.6,9,62.7,9.1,62c0.4-0.2,0.7-0.4,0.9-0.7c0.9,0.1,1-0.7,1.7-0.7
			c0.2-0.5,0.4-0.8,0.7-1.2c1.8,0.2,2.9-0.1,4.3,0.1c0.6,0.2,0.5-0.5,1-0.4c0.5,1.7,1.5,3,3,3.7c0.4,0.1,0.3-0.3,0.6-0.3
			c0-1.5-0.9-2-1.6-2.9c0-0.9-0.5-1.4-0.7-2c-0.7-0.2-1.2-0.7-1.7-1.2c-0.5-0.2-0.1,0.5-0.6,0.3c-1-0.4-2.2-0.6-3.3-0.9
			c-0.6-0.7-1.4-1.2-2.4-1.4c-0.1-0.3-0.5-0.4-0.7-0.6c-0.4-0.9-0.9-1.7-1.6-2.3c-0.4-1.2-1-2.3-1.6-3.3c-0.6-2.5-1.1-5-1.6-7.5
			c-0.1-0.9,0.2-1.9,0-2.4c0.3-0.6,0.4-1.6,0.4-2.4c0.2,0,0.1-0.1,0-0.1c0.5-0.6,0.9-1.2,1.2-2c0.4-0.7,1-1.1,1-2.2
			c0.5-0.4,0.7-1.1,1-1.7c-0.2-0.8,0-1.9-0.6-2.3c-1.4,0.6-2.2,1.6-3.2,2.6c-0.5,0.5-1.1,0.9-1.4,1.4c-0.3,0.2-0.5,0.4-0.7,0.7
			c-0.3,0-0.5,0.8-0.7,0.4c0-0.6,0.6-0.6,0.9-0.9c0.2-0.3,0.5-0.6,0.9-0.9c0.6-1.3,1.8-2,2.3-3.5c0.5-0.2,0.7-0.8,1.2-1
			c-0.1-0.4,0.2-0.4,0.1-0.7c0.4-0.4,0.9-0.7,1-1.3c0-0.7-0.7-0.8-0.3-1.4c-0.4-0.1-0.3,0.3-0.3,0.6c-0.9,0.1-1.2,0.7-1.9,1
			C6,25,5.7,25.3,5.5,25.6c-0.6-0.1-0.6,0.4-1,0.4c-0.3,0.1-0.4,0.3-0.6,0.6c-1.5,0.5-2.3,1.7-3.9,2c-0.2-1.2,1-1.1,1.3-1.9
			c0.9-0.2,1.6-0.7,2-1.4C4.2,25,4.9,24.5,5.5,24C6,23.4,7,23.3,7.2,22.4c0-0.4-0.3-0.5-0.4-0.7c-1.1,0.3-1.9,1-3.2,1.2
			c-0.7,0.8-2.1,0.7-2.9,1.4c-0.3-0.5,0.7-0.8,0.9-1.3c1.2-0.2,2.3-0.7,3-1.4c-0.3-0.8-0.2-1.7,0.6-1.9C4.8,18.9,3.6,19,3.5,18
			c0.5-0.3,1.2-0.3,1.3-1c-0.1-0.8-0.8-1.1-1.4-1.4c0.4-0.4,0.8-0.2,1.4-0.1c0.5,0.2,0.6,1,1.4,0.9c0.3-0.8-0.9-1.4-1.6-1.7
			c-1.9-0.2-3.5,0.4-4.6,0.1c-0.2-0.6,0.3-0.6,0.3-1c1.5-0.7,3-1.4,4-2.6C5.4,11,5.7,11,6.5,11.4c0.5,0.1,0.6-0.2,1-0.1
			c0.5,0.1,0.4-0.4,0.7-0.4c0.9-0.2,1.9-0.2,2.6-0.3c0.4-0.1,0.8-0.4,1.2-0.6c0.2-0.4,0.4-0.7,0.3-1.4c0.9,0,0.8-1,1.6-1.2
			c0.3-0.7,0.4-1.6,0.7-2.3c-0.1-0.7,0.2-0.9,0.1-1.6C15,2.9,15,2.1,15.1,1.7c-0.1-0.6-0.5-1.3-0.3-1.7c0.9,1.1,1.5,2.6,2.7,3.3
			c0.1,0.5,0.1,1.1,0.6,1.3c0.4,0.1,0.3-0.3,0.3-0.6c0.3,0.3,1,0.8,0.6,1.4c0.2,0.6,0.8,0.7,0.6,1.7c0,0.5-0.7,0.3-0.6,0.9
			c-0.3,0.3-0.2,0.5-0.1,1c1.1,0,0.9-0.7,0.9-1.6c0.9,0,0.9,0.9,1.7,0.9c0.9,0,0.9-1.6,1.7-1.2c0.2,0.9-0.5,1-0.4,1.7
			c0,0.9,1.2,0.6,1.9,0.9c-0.2,0.5-0.5,1.1,0,1.4c0.5,0,0.5-0.4,1-0.3c2-1.2,4.8-1.6,6.5-3.2c0.4,0.4-0.6,0.6-0.4,1.2
			c-0.9,0.5-1.8,0.9-2.9,1.3c-0.3,0.1-0.6,0.2-0.9,0.4c-0.4-0.1-0.7,0.3-1,0.4c-0.3,0.1-0.7,0.1-1,0.3c-0.2,0.1-0.5,0.4-0.7,0.6
			c-0.3,0.2-0.6,0.3-1,0.3c-0.1,0.5,0.2,0.6,0.7,0.6c-0.2,0.7-1,0.6-1.2,1.3c0,0.8,1.1,0.6,1.6,1c0.4,0.5-0.3,0.5-0.3,1
			c0.7,0.4,1.5-0.2,2-0.6c0.7-0.3,1.4-0.5,1.9-1c1.2-0.7,2.8-1,3.9-1.7c1.2,0.2,1.7,0.3,2.9,0.1c-0.7,0.4-1.5,0.7-2.4,0.9
			c-1.2,0.6-2.4,1.2-3.6,1.9c-0.7,0.2-1.1,0.8-1.9,0.9c-0.3,0.5-1.2,0.5-1.6,1c-0.1,0.7,0.6,0.7,0.3,1.3c0.7,0.6,2.2,0.4,3.5,0.4
			c0.4,0,0.4,0.2,0.7,0.3c2.7,0.2,4.9,0.7,7.5,0.6c0,0.8-0.9,0.6-1.4,0.9c-1.8,0-3-0.3-4.9-0.4c-0.3,0-0.6-0.2-0.9-0.3
			c-0.8,0.2-1,0-1.9,0c-0.8,0.2-1.7,0.4-2.2,1c0.1,0.9,0.4,1.6,1,1.9c1.8,0,2.9,0.7,4.3,1.2c0.2,0.4,0.5,0.8,0.7,1.2
			c0.4,0,0.8,0,1.2,0c0.6,0.1,0.6,0.6,1.2,0.7c1.7-0.2,2.8,0.1,4,0.7c0.2,0.3,0.3,0.7,0.4,1c0.8,0.3,1.5,0.6,2.6,0.6
			c0.9-0.3,1-1.4,1.6-2c0.9-0.3,1.3-0.2,2.2-0.3c0.6-0.3,0.9-1,1.3-1.6c0-0.5,0-1.1,0-1.6c0.9-0.6,2.2-0.9,2-2.6
			c1.5-0.9,2.2-2.5,2.3-4.7c0.1-0.6,0.6-0.9,0.9-1.3c0.1-0.8,0.4-1.3,0.4-2.2c0.8-1,1.6-1.9,2.4-2.7c0.8,0,1.4-0.6,2-0.9
			c0.4-0.2,0.9-0.1,1.3-0.3c0.7-0.3,1.6-1,3.2-0.7c0.8-0.3,1.6-0.6,2.2-1.2c1.7,0.2,3.1-0.4,4.6-0.1c0.3,0.1,0.6,0.2,0.9,0.3
			c1,0.2,1,0,1.7,0.4c0.2,0.1,0.4,0.4,0.7,0.4c0.1,0.2,0.2,0.4,0.1,0.7c0.4,0.5,1,0.7,1.6,1C73.8,9.5,74,9.6,74,9.9
			c0.3,0.3,0.7,0.6,1.2,0.9c0,0.3,0.2,0.3,0.1,0.6c0.5,0.5,0.8,1.3,1.4,1.6c0,0.2,0,0.4,0.1,0.4c0.4,1.8-0.2,3.7,0,5.2
			c-0.3,0-0.1,0.5-0.3,0.6c0.2,0.4,0.2,1,0.7,1.2c0,0.6,0.7,0.5,0.7,1c-0.4,0.4-0.4,1.1-0.9,1.4c-1.1,0.3-1.2-0.4-1.9-0.6
			c-0.5,0-0.6,0.3-0.9,0.6c0.1,1.4,0.4,3.5-0.1,5c-0.3,0.1-0.6,0.2-0.9,0.4c0,0.2-0.1,0.4-0.3,0.4c-0.3,1.3-1,2.4-1.3,3.7
			c-0.7,0.4-0.7,1.6-1.3,2.2c-0.4-0.2-0.8-0.5-1-0.9c0.5-1,0.4-3.2,0-4.3c0.3-0.9,0.9-1.6,0.9-2.9c0.4-0.3,0.4-0.7,0.6-1.2
			c0-0.1,0.3-0.1,0.3-0.1c0.1-0.1-0.1-0.3,0-0.4c0.1-0.2,0.4-0.2,0.4-0.4c0.1-0.4,0-0.9,0.1-1.3c0.1-0.4,0.4-0.7,0.4-1.2
			c-1,0-0.8,1.2-1.4,1.6c0,0.3,0,0.6,0,0.9c-0.8,0.7-1.4,1.5-1.3,3c-0.3,0.4-0.6,1-0.7,1.6c-0.4,0-0.4,0.2-0.7,0.3
			c-0.3,0.6-0.3,1.4-0.9,1.7c-0.5,0.1-0.7-0.3-1-0.4c0.3-1.7,0.8-3.3,1.7-4.3c0.1-0.6,0.2-1,0.4-1.4c-0.1-0.5,0.1-0.8,0.1-1.2
			c-0.3-1.1-0.5-2.4-1.3-3c-0.2-0.5,0.5-0.1,0.3-0.6c-0.1-0.1-0.2-0.3-0.1-0.6c0.6,0.1,0.5-0.5,1.2-0.3c0.4,0.3-0.4,0.5,0,0.9
			c0.5,0,0.2-0.8,0.6-1c0-0.3-0.6-0.1-0.9-0.1c-0.2-1.3-0.8-2.3-1.6-3c0.4-1.3-0.7-2.3-1-3.5c-0.5,0-1,0.4-1.6,0.6
			c-0.1,0-0.5-0.1-0.6,0c-0.2,0.2-1.3-0.1-1.9-0.3c-0.8,0.3-1.5,0.6-1.7,1.4c-0.3,0.1-0.4,0.4-0.9,0.4c-0.1,0.4-0.2,0.7-0.6,0.9
			c-0.3,0.2-0.3,0.7-0.7,0.7C57,17.6,56,19,55.3,20.6c-0.1,0-0.1-0.1-0.1-0.1c-0.3-0.4,0,0.2,0,0.4C54.9,21,54.8,21.2,54.9,21.6z
			 M60.3,17.4c0,0.3,0.1,0.5,0.4,0.4C60.8,17.5,60.6,17.4,60.3,17.4z M57.6,21c-0.4-0.1-0.3,0.3-0.4,0.4c0.1,0,0.3,0,0.4,0
			C57.6,21.3,57.6,21.2,57.6,21z M23.2,66.5c-0.1,0-0.3,0-0.4,0c0,0.2,0.1,0.4,0.3,0.4C23.1,66.7,23.2,66.7,23.2,66.5z M10.3,53.2
			c0-0.1,0-0.2,0-0.3c-0.1,0-0.2,0-0.3,0c0,0.1,0,0.2,0,0.3C10.1,53.2,10.2,53.2,10.3,53.2z M16,3.9c-0.9,1.1-0.2,2.9-1,4
			c0.1,0.5,0.2,1,0.4,1.3c0.8,0,0.6-0.9,0.6-1.6c0.4-0.4,0.1-1.5,0.4-2c0.2,0.3,0.5,0.5,0.7,0.9C17.1,6.8,16.7,7,17,7.3
			c0.5,0.3,1.1-0.5,1.4-0.9c-0.4-1.1-1-1.8-1.7-2.6C16.5,3.9,16.2,3.9,16,3.9z M68.7,10.6c-0.3-0.5-0.9-0.8-1.6-0.9
			c-0.2-0.4-0.9-0.6-1.4-0.3c-0.1,1.2,1.2,0.9,2,1.2c0.2,0.3,0.6,0.4,0.7,0.7c1-0.2,0.9,0.7,1.9,0.6c-0.3-0.3,0-0.9-0.1-1
			C69.7,11.3,69.5,10.3,68.7,10.6z M58,10.2c-0.7,0.4-1.2,1-2,1.3c-0.4,0.6-1,1-1.4,1.6c-0.4,1.5-0.8,3-1.7,4c0,1.6-1,2-1.3,3.6
			c0.5,0.1,0.6-0.3,1-0.3c0.6-0.9,0.9-2.1,1.2-3.3c0.6-0.5,0.6-1.5,1.2-2c0-0.6,0.2-1,0.3-1.6c0.6-0.7,1.1-1.5,1.9-2
			c0.4-0.5,1.3-0.4,1.4-1.2C58.3,10.4,58.3,10.2,58,10.2z M68.1,13c0-0.2-0.3-0.1-0.4,0c0,0.2,0.1,0.3,0.1,0.4
			c0.5,0.4,0.9,0.8,1.6,1c0.1,0.5,0.5,0.7,0.7,1.2c0,0.6,0.5,0.7,0.4,1.4c0.4,0.2,0.2,1,0.9,1c0.3-0.9,0.2-2.2,0.4-3.2
			C70.6,14.2,69.4,13.6,68.1,13z M73,14.2c0.5,0.5,0.7,1.2,1,1.9c0,0.5,0,1,0,1.4c0,0.5-0.2,1.2,0.4,1.2c0.3-1.9,0.1-3.7-0.6-5
			c-0.2,0-0.3-0.1-0.4-0.1C73.3,13.8,73.1,13.9,73,14.2z M19.3,15.8c0.2-0.8,0.1-1.2-0.3-1.7c-0.6-0.2-0.8,0-1.6,0
			c0,1,0.3,1.8,0.6,2.4C18.9,16.7,18.5,15.7,19.3,15.8z M58.5,15c0.1,0,0.2,0,0.3,0c0-0.1,0-0.3,0-0.4c-0.1,0-0.3,0-0.4,0
			C58.3,14.7,58.4,14.8,58.5,15z M13.7,15.1c0.4,0.2,0.4-0.6,0-0.4C13.7,14.8,13.7,15,13.7,15.1z M11.3,15.3c0-0.2-0.1-0.4-0.3-0.4
			C11,15,11,15.3,11.3,15.3z M15.3,17.3c0.7-0.3,1.6-0.2,2.3-0.4c-0.5-0.6-1.2-1.1-1.4-2c-0.1,0-0.3,0-0.4,0
			C15.6,15.7,14.5,16.4,15.3,17.3z M8.5,15.3c0.1,0,0.2,0,0.3,0c0-0.1,0-0.2,0-0.3c-0.1,0-0.2,0-0.3,0C8.5,15.1,8.5,15.2,8.5,15.3z
			 M13.7,15.5c-0.1,0-0.3,0-0.3,0.1C13.5,15.7,13.7,15.7,13.7,15.5z M13.8,15.8c0.2,0,0.4-0.1,0.4-0.3C14,15.5,13.9,15.7,13.8,15.8z
			 M9.4,15.8c0,0-0.2,0.1-0.1,0.1C9.3,16,9.5,15.9,9.4,15.8z M11.4,16.8c-0.2,0.4-0.7-0.4-0.7,0.3c0,0.3,0.2-0.1,0.3,0.1
			c0.3,0.5,0.3,1.2,0.7,1.6c0.8,0,1-0.5,1.3-1c-0.6-0.4-1.3-0.7-1.4-1.6c-0.1,0-0.3,0-0.4,0C10.9,16.7,11.3,16.6,11.4,16.8z
			 M73.8,16.5c-0.2,0-0.2-0.2-0.3,0C73.6,16.7,73.8,16.7,73.8,16.5z M73.3,16.8C72.9,17.3,73.8,16.5,73.3,16.8L73.3,16.8z M9.1,17.7
			c0.2,0,0.3-1.1-0.1-0.9C9.2,17.3,8.5,17.7,9.1,17.7z M9.7,17c0-0.1-0.3-0.2-0.3,0C9.4,17.2,9.5,17.1,9.7,17z M69.2,17.7
			c0-0.1,0-0.2,0.1-0.1c0-0.2,0-0.3-0.3-0.3C69.1,17.4,69.1,17.7,69.2,17.7z M76.6,18.1c0-0.2,0.1-0.5-0.1-0.6
			C76.3,17.7,76.2,18.1,76.6,18.1z M8.8,17.8c0.1,0.9-0.4,1.3,0,2.3c0.8,0,1.1-0.4,1.7-0.6c-0.1-0.8-0.5-1.2-0.7-1.9
			C9.2,17.6,9.3,18.1,8.8,17.8z M15.4,17.7c-0.3,0.4-0.3,1.1-0.7,1.4c0.4,0.1-0.2,0.5,0,0.9c0.3,0.5,0.6-0.4,0.7,0
			c0,0.3,0,0.6,0,0.9c0.4,0.1,0.2,0.9,0.7,0.9c0.3-0.2,0.1-1.1,0.1-1.6c0.3-0.1,0.4-0.4,0.9-0.3c0.4-0.3,0.6-0.6,1.3-0.6
			c-0.8,1.2-1.1,2.9-2.3,3.7c-1,0.2-1.3,0.3-2.3,0.3c0-0.3,0-0.5-0.3-0.6c-0.3,0.4-0.7-0.4-1.2-0.3c-0.3-0.4-0.9-0.4-0.9-1
			c0.5,0.1,0.6-0.3,1-0.3c0.1,0.7,0.6,1,1.3,1.2c0.5-0.9-0.6-1.2-0.7-1.9c0.4,0.2,0.9-0.1,1-0.6c-0.2-0.2-0.6-0.2-1-0.3
			c-0.2-0.1,0-0.7-0.4-0.6c-0.5,0-0.9,0.6-1.6,0.9c-0.1,1-0.9,1.2-1.2,2c0,0.3,0.4,0.2,0.3,0.6c1.4,0.1,2,0.9,3.2,1.3
			c-0.1,0.6,0.4,0.5,0.4,0.9c0.5,0.1,1.2,0.1,1.7,0.3c1-0.3,1.6-1,2.3-1.6c0.5-1.5,1.7-2.3,1.6-4.5c-0.3-0.4-1-0.6-1.3-1
			c-0.1,0.3-0.3,0.6-0.7,0.6C16.6,18.3,16.5,17.5,15.4,17.7z M13.3,18.8c0.4,0.5,1.1,0.4,1.3-0.3C14.2,18.3,13.2,18,13.3,18.8z
			 M24.2,19c0-0.1-0.3-0.2-0.3,0C24,19.2,24.1,19.1,24.2,19z M55.1,19.1c0.2,0,0.2,0.2,0.4,0.1c0-0.2-0.1-0.4-0.3-0.4
			C55.3,19,55.2,19,55.1,19.1z M23.8,19.3c0,0-0.2,0.1-0.1,0.1C23.7,19.5,23.9,19.4,23.8,19.3z M23.2,20.3c0-0.5-0.4-0.5-0.7-0.6
			C22.5,20.1,22.9,20.1,23.2,20.3z M8.8,20.4c-0.1,0-0.3,0-0.3,0.1C8.6,20.5,8.8,20.6,8.8,20.4z M53.1,20.4c-0.1,0-0.3,0-0.3,0.1
			C53,20.5,53.1,20.6,53.1,20.4z M7.9,21.4c0.5,0,0.5-0.4,0.6-0.7c-0.2,0-0.4,0-0.4,0.1C8.5,21,7.8,21.1,7.9,21.4z M7.7,21.9
			c0.3-0.1,0.9,0.2,0.7-0.3C8,21.6,7.7,21.6,7.7,21.9z M8.7,22.2c0,0-0.2,0.1-0.1,0.1C8.6,22.3,8.7,22.2,8.7,22.2z M22.9,22.3
			c-0.7,0.6,0.1,1.8,0.9,1.3c0,0.3,0,0.4,0.1,0.6C25.5,23.9,24.3,21.4,22.9,22.3z M53.1,22.4c0.2,0,0.2,0.2,0.4,0.1
			c0-0.1,0-0.2,0-0.3C53.5,21.9,53.1,22.3,53.1,22.4z M56.6,22.7c0,0.2,0,0.3,0.3,0.3c0-0.3-0.2-0.3-0.1-0.6c-0.2,0-0.5,0-0.7,0
			C55.9,22.9,56.3,22.7,56.6,22.7z M9,22.6c0,0-0.2,0.1-0.1,0.1C8.9,22.8,9,22.7,9,22.6z M10,23c0.1,0,0.2,0,0.3,0
			c0-0.1,0-0.2,0-0.3c-0.1,0-0.2,0-0.3,0C10,22.8,10,22.9,10,23z M24.9,23.3c0.2,0.2,0.5,0.2,0.6-0.1C25.3,23,25,23,24.9,23.3z
			 M19.3,26.2c0.2,0.7,1.3,0.3,1.4-0.1c0.2-1.4-1.3-2-2-1.3c0,0.4,0,0.8,0,1.2C18.9,26.1,18.9,26.3,19.3,26.2z M9.1,25.2
			c0.1,0,0.2,0,0.3,0c0.1,0,0.2,0,0.1-0.1c-0.4,0,0.2-0.2,0-0.6c-0.7,0.1,0.5-0.6-0.3-0.7C8.7,24.4,9.4,24.5,9.1,25.2z M10.1,24
			c0.1,0,0.2,0,0.3,0c0.2-0.4-0.5-0.4-0.4-0.1C10.1,23.9,10.1,23.9,10.1,24z M9.8,24.6c0.5-0.2,0.6,0.1,0.9-0.1
			c-0.1,0-0.2-0.1-0.1-0.3C10.1,24.1,9.8,24.2,9.8,24.6z M11,24.2c0,0-0.2,0.1-0.1,0.1C10.9,24.4,11,24.2,11,24.2z M11.7,24.6
			c0.4,0.2,0.4-0.6,0-0.4C11.7,24.3,11.7,24.5,11.7,24.6z M70.4,24.3c-0.1,0-0.3,0-0.3,0.1C70.2,24.4,70.4,24.5,70.4,24.3z
			 M5.6,24.7c0.2,0,0.5,0,0.4-0.3c-0.1,0-0.2,0-0.3,0C5.8,24.6,5.7,24.6,5.6,24.7z M10.5,25.8c0.5-0.1,0.6-1.2-0.1-1
			C10.5,25.3,10.7,25.1,10.5,25.8z M29.2,25.6c0.1,0,0.2,0,0.3,0c0-0.1,0-0.3,0-0.4c-0.1,0-0.3,0-0.4,0
			C29.1,25.4,29.2,25.5,29.2,25.6z M73.8,25.3c-0.2,0-0.2-0.2-0.3,0C73.6,25.5,73.8,25.5,73.8,25.3z M74.1,25.2c0,0-0.2,0.1-0.1,0.1
			C74,25.4,74.2,25.3,74.1,25.2z M14.4,25.3c0,0-0.2,0.1-0.1,0.1C14.3,25.5,14.5,25.4,14.4,25.3z M13.3,25.8c0.1,0,0.3,0,0.4,0
			c0-0.3-0.1-0.3-0.4-0.3C13.3,25.6,13.3,25.7,13.3,25.8z M22.9,26.2c-0.5,0.2-0.8,0.7-0.9,1.3c0.3,0.5,0.7,1,1.4,1.2
			c0.4-0.5,1-0.7,1.6-1c0-1.2-1.2-1.2-2-1.6c0.2,0,0.2-0.4-0.1-0.3C22.9,25.9,22.9,26,22.9,26.2z M11.3,26.3c-0.2,0-0.3-0.2-0.6-0.1
			C10.5,26.6,11.3,26.6,11.3,26.3z M14.7,28.5c0.4,1.1,2.2,0.7,2.4-0.4c-0.3-0.3-0.5-0.7-0.7-1.1C15.2,27,14.9,27.7,14.7,28.5z
			 M11.3,28.5c0.3,0.3,0.4,0.7,0.8,0.8c0.4,0,0.5-0.3,0.8-0.5c-0.1-0.5,0.1-0.6,0.1-1.1c-0.1-0.3-0.5-0.3-0.7-0.6
			c-0.3-0.1-0.8,0.1-0.8,0c0-0.1,0-0.1-0.1-0.1C11.2,27.4,11.3,28,11.3,28.5z M48.1,27.6c0.1,0,0.2,0,0.3,0c0-0.1,0-0.3,0-0.4
			c-0.1,0-0.3,0-0.4,0C47.9,27.4,48,27.5,48.1,27.6z M48.8,27.3c0-0.1-0.1-0.2-0.1,0C48.7,27.4,48.8,27.5,48.8,27.3z M26.1,27.9
			c0.1,0,0.3,0,0.4,0c0-0.3-0.1-0.3-0.4-0.3C26.1,27.7,26.1,27.8,26.1,27.9z M34.7,29.2c-0.4-0.4-0.8-0.7-1.3-1
			c-1,0.2-2.5-0.3-3.2,0c-0.6,0-0.4,0.6-0.3,1c2.3-0.6,3.7,0.9,5.9,1C35.6,29.7,35.2,29.5,34.7,29.2z M47.7,28.6c0-0.2,0-0.4,0-0.6
			c-0.1,0-0.3,0-0.4,0C47.3,28.3,47.3,28.7,47.7,28.6z M55.9,29.2c0.5,0.1,0.6-0.2,0.6-0.7c-0.1,0-0.3,0-0.4,0
			C56.1,28.9,55.8,28.9,55.9,29.2z M56,28.5C56.5,27.8,55.2,28.3,56,28.5L56,28.5z M45.8,28.8c0.2,0.4,0.6,0.6,0.7,1
			c0.4-0.5-0.2-0.8-0.4-1c0.4,0.1,0.3-0.3,0.3-0.6C46,28.2,45.8,28.4,45.8,28.8z M18.9,28.3c-0.7,0.5-0.7,1.5-0.7,2.4
			c0.6,0.5,1.6,0,2.3-0.1c0.2-0.4,0.3-0.9,0.3-1.4c-0.2-0.2-0.4-0.4-0.4-0.7C19.7,28.5,19.5,28.2,18.9,28.3z M26.1,28.6
			c0.1,0,0.2,0,0.3,0c0-0.1,0-0.2,0-0.3c-0.1,0-0.2,0-0.3,0C26.1,28.4,26.1,28.5,26.1,28.6z M46.7,28.8c0.4,0.2,0.4-0.6,0-0.4
			C46.7,28.5,46.7,28.6,46.7,28.8z M46.9,29.2c0.2,0,0.5,0,0.4-0.3c-0.1,0-0.2,0-0.3,0C47.1,29.1,47,29.1,46.9,29.2z M48.8,28.9
			c-0.1,0-0.3,0-0.3,0.1C48.6,29,48.8,29.1,48.8,28.9z M28.4,29.6c0.1,0,0.2,0,0.3,0c0-0.1,0-0.2,0-0.3c-0.1,0-0.2,0-0.3,0
			C28.4,29.4,28.4,29.5,28.4,29.6z M48.2,29.6c0.2,0,0.4-0.1,0.4-0.3C48.4,29.4,48.2,29.3,48.2,29.6z M48.8,29.8c0.1,0,0.2,0,0.3,0
			c0-0.1,0-0.2,0-0.3c-0.1,0-0.2,0-0.3,0C48.8,29.6,48.8,29.7,48.8,29.8z M43.2,30.1c0-0.1-0.1-0.2-0.1,0
			C43.1,30.2,43.2,30.2,43.2,30.1z M46.1,30.5c0.4,0,0.5-0.2,0.4-0.6C46.1,29.9,46.1,30.2,46.1,30.5z M48.1,30.1c0,0.2,0,0.4,0,0.6
			c0.7,0.2,0.6-0.4,1.2-0.3C49.3,29.6,48.5,30.1,48.1,30.1z M28.8,30.4c0.1,0,0.2,0,0.3,0c0-0.1,0-0.2,0-0.3c-0.1,0-0.2,0-0.3,0
			C28.8,30.2,28.8,30.3,28.8,30.4z M70.4,30.2c-0.1,0.6,0.8,0.5,0.6-0.1C70.7,30,70.7,30.2,70.4,30.2z M28.2,30.6c0.1,0,0.2,0,0.3,0
			c0-0.1,0-0.3,0-0.4c-0.1,0-0.3,0-0.4,0C28.1,30.4,28.2,30.5,28.2,30.6z M11.4,30.6c0.1,0,0.2,0,0.3,0c0.2-0.4-0.5-0.4-0.4-0.1
			C11.3,30.5,11.4,30.5,11.4,30.6z M29.5,30.5c0-0.1-0.1-0.2-0.1,0C29.4,30.6,29.5,30.7,29.5,30.5z M42.8,30.9c0.2,0,0.4,0,0.6,0
			c0-0.2,0.1-0.5-0.1-0.6C43.1,30.6,42.5,30.4,42.8,30.9z M52.4,30.9c0,0.2,0,0.3,0.3,0.3c0.2-0.5-0.2-0.3-0.3-0.6
			c0-0.4-0.5-0.3-0.4,0.1C52.1,30.8,52.4,30.8,52.4,30.9z M13.1,31.4c-0.1,1.4,0.9,1.6,2,1.7c0.3-0.4,0.6-0.8,0.6-1.4
			C15.6,30.5,13.4,30,13.1,31.4z M54,30.6c-0.2,0-0.2-0.2-0.3,0C53.7,30.8,54,30.8,54,30.6z M54.4,30.6c0-0.1-0.3-0.2-0.3,0
			C54.2,30.8,54.3,30.7,54.4,30.6z M11.5,31.7c0.5-0.2,0.7,0.1,0.9-0.3c-0.1,0-0.3,0-0.3-0.1c0-0.4,0.3-0.5-0.1-0.6
			C11.9,31.1,11.5,31.1,11.5,31.7z M36.4,34.8c-0.1,0-0.2,0-0.3,0c0,0.1,0,0.2,0,0.3c0.1,0,0.2,0,0.3,0C36.4,35,36.4,34.9,36.4,34.8
			z M37.3,34.7c-0.6,0.1-0.9,0.4-1,1c1-0.2,1.6-0.4,2.7-0.3c0.2-0.4,0.8-0.5,0.7-1.3c-0.6-0.2-1-0.5-1.2-1c0.4-0.8-0.4-1.4,0-2.3
			c-0.8-0.1-0.8,0.8-1,1.3c-0.4,0.1-0.5,0.6-0.9,0.7c-0.3,0.3-0.9,0.2-0.9,0.7c0.5,0.3,1.5,0.1,2,0.4C37.6,34.1,37.6,34.5,37.3,34.7
			z M12.7,31.1c0-0.1-0.1-0.2-0.1,0C12.6,31.2,12.7,31.2,12.7,31.1z M29.1,30.9c0,0-0.2,0.1-0.1,0.1C29,31.1,29.2,31,29.1,30.9z
			 M51.8,31.2c0.1,0,0.2,0,0.3,0c0-0.1,0-0.2,0-0.3c-0.1,0-0.2,0-0.3,0C51.8,31,51.8,31.1,51.8,31.2z M20.6,31.4
			c0.2,0,0.2,0.2,0.4,0.1c0-0.1,0-0.2,0-0.3C21,30.9,20.6,31.2,20.6,31.4z M54.1,31.5c0.4,0.2,0.4-0.6,0-0.4
			C54.1,31.2,54.1,31.4,54.1,31.5z M29.7,31.4c0,0-0.2,0.1-0.1,0.1C29.6,31.6,29.7,31.4,29.7,31.4z M45.5,32.1
			c-0.8-0.5-2.5-0.6-3.5-0.1c-0.1,0.9-0.4,2.1,0,2.7c1.9,0.2,2.8-0.6,4-1.2c0-0.6,0.8-1,0.6-1.4C46.3,31.7,46,32.2,45.5,32.1z
			 M11.1,31.9c0-0.1-0.1-0.2-0.1,0C11,32,11.1,32.1,11.1,31.9z M12.3,31.9c0-0.1-0.1-0.2-0.1,0C12.1,32,12.2,32.1,12.3,31.9z
			 M16.3,32.2c0.4,0.2,0.4-0.6,0-0.4C16.3,31.9,16.3,32.1,16.3,32.2z M48.7,32.1c0.1,0,0.2,0,0.3,0c0-0.1,0-0.2,0-0.3
			c-0.1,0-0.2,0-0.3,0C48.7,31.9,48.7,32,48.7,32.1z M18.5,31.9C17.9,32.6,19.3,32.1,18.5,31.9L18.5,31.9z M16.7,32.2
			c0,0.1,0,0.2,0,0.3c0.4,0.2,0.4-0.5,0.1-0.4C16.9,32.2,16.8,32.3,16.7,32.2z M47.9,32.4c0.1,0,0.3,0,0.4,0c0-0.3-0.1-0.3-0.4-0.3
			C47.9,32.2,47.9,32.3,47.9,32.4z M55.7,32.7c0.1,0,0.3,0,0.4,0c0-0.3-0.1-0.3-0.4-0.3C55.7,32.5,55.7,32.6,55.7,32.7z M23.8,33.2
			c0.3,0.3,0.5-0.3,0.4-0.7c-0.1,0-0.3,0-0.4,0c-0.1,0.4,0.3,0.3,0.3,0.6C24,33.1,23.8,33.1,23.8,33.2z M9.2,35.3
			c0.2,0.4,0.5,0.7,0.7,1c0.6,0,0.6-0.5,1.2-0.6c-0.3-0.5-0.2-0.8,0.1-1.3c0.1,0,0.3,0,0.4,0c0.1-0.2,0.2-0.3,0.3-0.4
			c-0.2-0.6,0.2-1-0.3-1.3c0,1-0.8-0.3-0.9,0.4c0-0.2,0-0.4-0.1-0.4C10.1,33.4,9.4,34.1,9.2,35.3z M46.9,32.8c0,0.1,0,0.2,0,0.3
			c0.1,0,0.3,0,0.4,0c0-0.1,0-0.3,0-0.4c-0.1,0-0.2,0-0.3,0C47.1,32.7,47.1,32.8,46.9,32.8z M49.1,32.7c0,0-0.2,0.1-0.1,0.1
			C49,32.8,49.2,32.7,49.1,32.7z M50,32.9c-0.1,0-0.3,0-0.3,0.1C49.8,33.1,50,33.1,50,32.9z M16.9,33.1c0,0-0.2,0.1-0.1,0.1
			C16.8,33.3,16.9,33.2,16.9,33.1z M34.6,34.2c-0.4,0.2-0.6,0.7-1.2,0.9c-0.2,0-0.1-0.3-0.3-0.3c-0.3,0.2,0.1,0.5,0,1
			c0.5,0.3,1.2,0.1,1.7,0c0.4-0.9,0.7-2,0-2.7C34.7,33.4,34.5,33.7,34.6,34.2z M49.1,33.1c0,0-0.2,0.1-0.1,0.1
			C49,33.3,49.2,33.2,49.1,33.1z M15.9,33.8c0.1,0,0.2,0,0.3,0c0.5-0.1-0.2-0.9-0.3-0.4C16.1,33.4,16,33.7,15.9,33.8z M30.5,33.7
			c0-0.1,0-0.3,0-0.4c-0.2,0-0.4,0-0.4,0.1C30.3,33.4,30.3,33.6,30.5,33.7z M55.6,33.5c0.1,0,0.2,0,0.3,0c0-0.1,0-0.2,0-0.3
			c-0.1,0-0.2,0-0.3,0C55.6,33.3,55.6,33.4,55.6,33.5z M55.1,33.4c0,0-0.2,0.1-0.1,0.1C55,33.6,55.2,33.5,55.1,33.4z M14.6,34.2
			c0.1-0.5-0.4-0.4-0.6-0.6C14,34,14.2,34.2,14.6,34.2z M50.1,33.7c-0.5,0.2-0.7-0.2-0.7,0.3c0.1,0.1,0.5,0.1,1,0.1
			c0.2,0.1,0.2,0.5,0.6,0.4C51,34,50.3,34.1,50.1,33.7z M54,34c0.1,0,0.2,0,0.3,0c0-0.1,0-0.2,0-0.3c-0.1,0-0.2,0-0.3,0
			C54,33.8,54,33.9,54,34z M14.7,34.4c0.2,0.2,1,0,0.9-0.6C15,33.7,15,34.2,14.7,34.4z M47.1,34.4c-0.4,0.2-0.7-0.3-0.7,0
			c0.4,0.1,0,0.6-0.3,0.4c0-0.1,0.4-0.6,0-0.6c-0.1,0.3-0.3,0.5-0.4,0.7c-0.5,0.3-1.3,0.4-1.9,0.7c0-0.1,0-0.2,0-0.3
			c-0.5-0.1-0.4,0.4-0.7,0.4c-0.5,0.1-1,0.3-1.4,0.4c0-0.2,0-0.3-0.3-0.3c-0.4,0.1-0.9,0.3-1.2,0.6c-0.1,0.9,0.4,1.1,0.4,1.9
			c-0.3,0.6-1.1,0.7-1.6,1.2c-0.6-0.1-0.7,0.4-0.9,0.7c0.4,0.3,1,0.6,1.7,0.6c0.5-0.1,0.7-0.5,1.3-0.6c0-0.2,0.1-0.4,0.3-0.4
			c1-0.5,1.8-1.3,2.6-2c0.4,0.1,0.4-0.2,0.9-0.1c0.8-1.2,2.6-2.2,2.4-3.9C46.7,33.7,47.4,34.5,47.1,34.4z M55.1,34
			C54.7,33.5,54.7,34.5,55.1,34L55.1,34z M56.6,34c0-0.1-0.4-0.2-0.4,0C56.1,34.3,56.7,34.3,56.6,34z M16.9,36.5
			c0.4,0.1,0.5-0.1,0.9-0.1c0.3-0.5,0.7-1.1,0.6-2c-0.2-0.1-0.4-0.2-0.4-0.4c-0.8-0.1-1.5,0-1.9,0.4c0,0.4,0,0.7-0.3,0.9
			c-0.3,0.4-0.5-0.5-0.7,0.1C15.8,35.6,16,36.4,16.9,36.5z M25.4,34.1c0,0.1,0,0.2,0,0.3c0.1,0,0.2,0,0.3,0c0.2-0.2,0.2-0.4-0.1-0.4
			C25.5,34,25.5,34.1,25.4,34.1z M41.6,34.1c0-0.1-0.1-0.2-0.1,0C41.5,34.2,41.6,34.3,41.6,34.1z M29.4,34.7c0.6,0,0.4-0.5,0-0.6
			C29.4,34.3,29.4,34.5,29.4,34.7z M52.6,34.7c0-0.1,0.4-0.6,0-0.6C52.5,34.2,52.2,34.7,52.6,34.7z M20.5,37.1c0.7,1,2.2,1.1,3.6,1
			c-0.2-0.5-0.7-0.6-1-1c-0.2-0.4-0.7-0.6-1-1c0-0.2-0.2-0.2-0.3-0.4c-0.2-0.4-0.4-0.8-0.6-1.3c0-0.1-0.1-0.2-0.3-0.1
			C20.3,34.8,20.8,36.4,20.5,37.1z M57,34.5c0.1,0.3,0.1,0.6,0.4,0.6C57.5,34.7,57.4,34.5,57,34.5z M57.7,34.7
			c0.2-0.4-0.4-0.6-0.4-0.3C57.5,34.4,57.4,34.8,57.7,34.7z M48.5,34.7c0.2,0,0.3,0.2,0.6,0.1c0-0.1,0-0.3,0-0.4
			C48.8,34.3,48.6,34.4,48.5,34.7z M14.4,35.3c0.1,0,0.3,0,0.4,0c0-0.4-0.1-0.6-0.4-0.6C14.4,34.9,14.4,35.1,14.4,35.3z M41.9,34.8
			c0-0.1-0.1-0.2-0.1,0C41.8,34.9,41.9,35,41.9,34.8z M49.7,35.1c0.1,0,0.2,0,0.3,0c0-0.1,0-0.3,0-0.4c-0.1,0-0.3,0-0.4,0
			C49.5,34.9,49.6,35,49.7,35.1z M11.8,35.4c0.4,0,0.6-0.2,0.6-0.6C12,34.8,11.8,34.9,11.8,35.4z M29.2,35.4c0.4,0.2,0.4-0.6,0-0.4
			C29.2,35.1,29.2,35.3,29.2,35.4z M50.1,36.1c0.4,0.1,0.5-0.3,0.4-0.7C50,35.2,50.1,35.7,50.1,36.1z M50.5,35c-0.1,0-0.1,0.4,0,0.4
			C51,35.6,50.9,34.9,50.5,35z M53.4,35.7c0-0.5-0.2-0.6-0.6-0.7C53,35.3,52.8,35.8,53.4,35.7z M41.9,35.3c-0.2,0-0.3-0.2-0.6-0.1
			C41.2,35.6,41.9,35.7,41.9,35.3z M56.3,35.5c0-0.2-0.1-0.4-0.3-0.4C55.8,35.3,55.8,35.7,56.3,35.5z M51.4,35.7c0.1,0,0.2,0,0.3,0
			c0-0.1,0-0.2,0-0.3c-0.1,0-0.2,0-0.3,0C51.4,35.5,51.4,35.6,51.4,35.7z M11.7,35.7c0,0.1,0,0.2,0,0.3c0.1,0,0.3,0,0.4,0
			c0-0.1,0-0.3,0-0.4c-0.1,0-0.2,0-0.3,0C11.8,35.6,11.8,35.7,11.7,35.7z M56.2,36c0.2,0,0.2,0.2,0.4,0.1c0-0.1,0-0.2,0-0.3
			C56.6,35.5,56.1,35.8,56.2,36z M12.8,36.5c-0.1-0.3-0.1-0.6-0.3-0.7C12.5,36.2,12.5,36.5,12.8,36.5z M54.4,36.3
			c0.2,0,0.3,0.2,0.6,0.1c0-0.4-0.1-0.6-0.4-0.6C54.6,36,54.5,36.1,54.4,36.3z M48.8,36.1c0-0.1-0.3-0.2-0.3,0
			C48.6,36.3,48.7,36.2,48.8,36.1z M9.8,36.5c0-0.2-0.1-0.4-0.3-0.4C9.3,36.3,9.3,36.7,9.8,36.5z M8.5,36.7c0.2-0.4-0.5-0.6-0.6-0.3
			C8.2,36.4,8.1,36.8,8.5,36.7z M15,36.4c0-0.1-0.1-0.2-0.1,0C14.9,36.5,15,36.6,15,36.4z M29.8,37.3c0.3,0.7,1,1,2,1
			c0.6-0.2,0.9-1.2,0.6-2C31.3,36.4,30.6,36.9,29.8,37.3z M38.6,37c-0.2-0.2-0.6-0.5-0.9-0.6c-0.4,0-0.9-0.1-1.2,0.1
			c0,0.3-0.2,0.3-0.1,0.6c1,0.1,1.2,1,2.2,1.2c0.2,0,0.2-0.2,0.4-0.3C39.2,37.4,38.8,37.2,38.6,37z M11.8,36.7c0-0.1-0.3-0.2-0.3,0
			C11.7,36.7,11.8,36.9,11.8,36.7z M48.2,36.8c0.1,0,0.3,0,0.4,0c0-0.3-0.1-0.3-0.4-0.3C48.2,36.6,48.2,36.7,48.2,36.8z M10.8,36.8
			c0,0.1,0,0.2,0,0.3c0.4,0.2,0.4-0.5,0.1-0.4C11,36.8,10.9,36.9,10.8,36.8z M35.4,36.8c-0.6-0.4-1.1,0.4-1.9,0.3
			c-0.2,0.5-0.4,0.9-0.6,1.4c0.5,0.1,0.7-0.1,1.6,0c0.3-0.3,1-0.2,1-0.7C35.9,37.7,35.2,37.4,35.4,36.8z M7.5,37
			c-0.2,0-0.2-0.2-0.3,0C7.2,37.1,7.5,37.2,7.5,37z M47.1,36.8c-0.4,0.4-0.7,0.9-1.4,1c-0.3,0.8-0.8,1.4-1.9,1.4
			c0,0.7-0.7,0.7-1,1.2c-0.8,0.2-1.3,0.8-2.3,0.9c-0.7,0.7-1.7,1-2.6,1.4c-0.7,0.6-1.4,1.2-2.4,1.6C35,44.4,35,44.1,34.7,44
			c0.1,0.5,0.3,0.9,0.4,1.3c-0.1,0.4-0.8,0.2-0.6,0.9c0.5,0,1.2,0.1,1.3-0.3c0,0.2,0,0.3,0.3,0.3c2-0.3,3.8-0.9,5.8-1.3
			c1.5-0.7,2.4-1.9,3.6-2.9c0.5-1,1-2.1,1.7-3c-0.1-0.8,0.6-1.4,0.3-2C47.3,37,47.3,36.8,47.1,36.8z M53.6,37.1c0.1,0,0.2,0,0.3,0
			c0-0.1,0-0.2,0-0.3c-0.1,0-0.2,0-0.3,0C53.6,36.9,53.6,37,53.6,37.1z M29.4,37.7c-0.1-0.3-0.1-0.6-0.3-0.7
			C28.9,37.2,28.9,37.8,29.4,37.7z M48.2,37c-0.1,0-0.3,0-0.3,0.1C48.1,37.1,48.2,37.1,48.2,37z M11.1,38c0-0.3,0-0.6,0.1-0.7
			c-0.3,0-0.3,0.2-0.4,0.3c-0.2-0.1,0-0.5-0.4-0.4C10.4,37.7,10.8,37.8,11.1,38z M26.7,38c0-0.5-0.2-0.4,0-0.9c-0.1,0-0.3,0-0.4,0
			C26.1,37.6,26.3,37.9,26.7,38z M17,37.3c-0.1,0-0.3,0-0.3,0.1C16.8,37.4,17,37.4,17,37.3z M48.7,37.6c0.3,0.3,0.4-0.6,0-0.1
			C48.6,37.5,48.5,37.4,48.7,37.6z M11.5,38.4c0.4-0.1,0.3-0.1,0.7,0c0.1-0.4-0.2-0.4-0.1-0.7c-0.4,0.2-0.3-0.7-0.6-0.1
			C12.1,37.7,11.7,38.2,11.5,38.4z M17.7,37.6c0-0.1-0.1-0.2-0.1,0C17.6,37.6,17.7,37.7,17.7,37.6z M48.4,37.6c0-0.1-0.1-0.2-0.1,0
			C48.2,37.6,48.4,37.7,48.4,37.6z M48.8,38.4c0.6,0.2,0.3-0.4,0.6-0.4c0.1-0.3,0.5-0.4,0-0.6C49.2,37.8,48.8,37.9,48.8,38.4z
			 M17.2,37.6c-0.1,0-0.3,0-0.3,0.1C17,37.7,17.2,37.7,17.2,37.6z M25.9,37.6c0,0-0.2,0.1-0.1,0.1C25.8,37.7,26,37.6,25.9,37.6z
			 M11.4,37.7C11,38.2,11.9,38.1,11.4,37.7L11.4,37.7z M26.9,38.8c-0.4-0.4-1,0.1-1.2,0.4c0.6,0.6,1.6,0.4,2.6,0.3
			c-0.2-0.7-0.3-0.6,0-1.3c-0.4-0.1-0.5-0.4-0.7-0.6C27.3,38,27.4,38.6,26.9,38.8z M13.4,38.1c0.1,0,0.2,0,0.3,0c0-0.1,0-0.2,0-0.3
			c-0.1,0-0.2,0-0.3,0C13.4,37.9,13.4,38,13.4,38.1z M16,38.4c0.3-0.2,0-0.6-0.4-0.6C15.6,38.1,15.6,38.5,16,38.4z M56,38.1
			c0.1,0,0.2,0,0.3,0c0-0.1,0-0.2,0-0.3c-0.1,0-0.2,0-0.3,0C56,37.9,56,38,56,38.1z M16.3,38.3c0.1,0,0.2,0,0.3,0c0-0.1,0-0.2,0-0.3
			c-0.1,0-0.2,0-0.3,0C16.3,38.1,16.3,38.2,16.3,38.3z M29.4,39.3c0-0.4-0.1-0.8-0.3-1C29.1,38.6,28.8,39.2,29.4,39.3z M51.4,39.4
			c0.1,0,0.3,0,0.4,0c-0.1-0.9,0.2-0.4,0.4-0.9c-0.3-0.1-0.3-0.4-0.7-0.3C51.6,38.8,51.3,38.9,51.4,39.4z M57,38.6
			c0-0.2-0.1-0.4-0.1-0.1C56.9,38.6,56.9,38.8,57,38.6z M10.8,38.6c0,0.3,0.2,0.3,0.3,0.4c-0.3,0.1-0.3,0.2-0.1,0.4
			c0.5,0.1,0.4-0.4,0.6-0.6C11.2,38.8,11.2,38.2,10.8,38.6z M29.8,39c-0.8,1.6,2,2.3,2.7,1.2c-0.3-0.3-0.5-0.7-0.9-1
			c-1,0.2-1.1-0.5-1.9-0.6C29.8,38.8,29.6,38.8,29.8,39z M7.1,38.7c0,0-0.2,0.1-0.1,0.1C7,38.9,7.2,38.8,7.1,38.7z M8.2,39.3
			c0.1-0.4-0.9-1-1-0.3C7.8,38.6,7.8,39.2,8.2,39.3z M8.2,40.1c0.2,0,0.5,0,0.7,0c0.1-0.5-0.4-0.3-0.4-0.6c0-0.2,0.4-0.7,0.1-0.7
			C8.3,39.1,8.2,39.5,8.2,40.1z M9.1,39.6C8.7,40.1,9.6,40,9.1,39.6L9.1,39.6z M16.6,39c0-0.1-0.3-0.2-0.3,0
			C16.3,39.2,16.5,39.1,16.6,39z M23.2,39.4c-0.5-0.1-1.6-0.6-1.9,0c0.5,0.4,0.8,1.1,1.6,1.2c0.5,0,0.6-0.3,0.9-0.6
			c0.3-0.2,0.7-0.6,0.4-0.9C23.8,39.1,23.5,39.3,23.2,39.4z M35.9,39.1c-0.6,0.4-1,0.1-1.9,0.1c0.2,0.8,1.3,0.8,1.7,1.4
			c0.6-0.1,0.8,0.1,1.3,0.1c0.2-0.5,0.9-0.6,1-1.2C37.3,39.5,36.6,39.3,35.9,39.1z M49.1,39.4c0-0.2-0.1-0.4-0.1-0.1
			C48.9,39.4,49,39.6,49.1,39.4z M7.4,39.7c0-0.3-0.1-0.5-0.4-0.4C6.9,39.6,7.1,39.7,7.4,39.7z M11.4,39.7c0-0.1-0.1-0.2-0.1,0
			C11.3,39.8,11.4,39.9,11.4,39.7z M54,40.1c0.2,0,0.3,0.1,0.4,0.1c-0.2-0.5,0.5-0.2,0.4-0.7C54.4,39.6,54,39.7,54,40.1z M12.8,40.1
			c-1.2-0.9-2.1,0.6-2,2.3c0.8,0.2,1.6-0.2,2.3-0.6C13.2,41.1,13,40.6,12.8,40.1z M18.7,39.9c-0.4,0-0.4,0.2-0.6,0.3
			c-0.4,0.3-0.9,0.6-1,1c0.2,0.8,0.9,1.2,2.2,1c0.2-0.5,0.7-0.6,0.7-1.3C19.8,40.3,19.5,39.9,18.7,39.9z M34.1,39.9
			c0,0-0.2,0.1-0.1,0.1C34,40,34.2,39.9,34.1,39.9z M49.8,40.4c0-0.2-0.1-0.4-0.3-0.4C49.5,40.2,49.5,40.5,49.8,40.4z M8.8,40.4
			c0-0.1-0.1-0.2-0.1,0C8.7,40.5,8.8,40.6,8.8,40.4z M26.2,40.4c0-0.1-0.1-0.2-0.1,0C26.1,40.5,26.2,40.6,26.2,40.4z M52.6,41
			c0.3,0,0.4-0.2,0.9-0.1C53.5,40,52.5,40.3,52.6,41z M26.4,40.7c0.1,0,0.2,0,0.3,0c0-0.1,0-0.2,0-0.3c-0.1,0-0.2,0-0.3,0
			C26.4,40.5,26.4,40.6,26.4,40.7z M33.4,41.3c-0.2,0-0.4,0-0.6,0c0,0.4-0.3,0.4-0.3,0.9c0.3,0.3,0.9,0.2,1,0.6
			c0.1,0.5-0.5,0.4-0.1,0.7c0.8,0,0.2-0.6,0.7-0.7c1.1,0.1,1.7-0.3,2-1c-0.7-0.3-1.4-0.5-1.9-1c-0.4-0.1-0.3,0.4-0.7,0.3
			c0-0.2,0.2-0.3,0.1-0.6c-0.1,0-0.3,0-0.4,0C33.2,40.9,33.4,41,33.4,41.3z M8.7,41c0.1,0,0.2,0,0.3,0c0-0.1,0-0.2,0-0.3
			c-0.1,0-0.2,0-0.3,0C8.7,40.8,8.7,40.9,8.7,41z M16.2,40.7c0,0-0.2,0.1-0.1,0.1C16,40.9,16.2,40.8,16.2,40.7z M29,41.4
			c-0.7,0.6-1-0.2-2,0c0.4,0.8,1.4,1,2.6,1c0.1-0.3,0.4-0.4,0.4-0.9c-0.3-0.4-0.7-0.7-1.2-0.9C28.8,41.1,28.8,41.3,29,41.4z
			 M22,41.4c0.2,0,0.2,0.2,0.4,0.1c0-0.2-0.1-0.4-0.3-0.4C22.2,41.3,22.1,41.3,22,41.4z M47.7,41.3c0-0.1-0.1-0.2-0.1,0
			C47.5,41.4,47.6,41.5,47.7,41.3z M15.9,42c-0.4-0.2,0.5-0.1,0.3-0.6c-0.2,0-0.4,0-0.6,0C15.5,41.7,15.6,42.5,15.9,42z M24.4,43.2
			c0.5,0.2,0.8,0.5,1.3,0.6c0.6-0.2,1.4-0.4,1.2-1.4c-1-0.1-2.3-0.7-3.3-0.4C24,42.1,24.1,42.7,24.4,43.2z M9.1,42.6
			c0.1-0.5-0.3-0.4,0-0.7C8.5,41.8,8.6,42.6,9.1,42.6z M48.1,41.9c0,0-0.2,0.1-0.1,0.1C48,42.1,48.2,41.9,48.1,41.9z M15.7,42.6
			c-0.2,0-0.1-0.4-0.4-0.3C15.1,42.7,15.7,42.9,15.7,42.6z M49.2,42.9c0-0.2,0.4-0.1,0.3-0.4c-0.1,0-0.3,0-0.4,0
			C49.1,42.6,49.1,42.9,49.2,42.9z M29.4,43.6c-0.6-0.1-0.8-0.5-1.4-0.6c0.2,1.4,2,1.3,2.7,2.2c-0.4,0.1,0.1,0.5,0.3,0.6
			c0.1-0.3-0.2-0.8,0.1-0.9c0.5,0.1,0.7,0.2,1.2,0c0.2-0.6-0.4-0.3-0.4-0.7c0.1-0.3,0.3-0.4,0.3-0.7c-0.4-0.4-0.5-0.9-1.3-0.9
			C30.7,43.6,29.7,42.9,29.4,43.6z M9.8,42.9c0-0.1-0.1-0.2-0.1,0C9.7,43,9.8,43,9.8,42.9z M22.6,43.3c-0.3,0-0.2-0.4-0.6-0.3
			C21.9,43.4,22.5,43.7,22.6,43.3z M49,43.3c-0.3,0.3-1-0.1-0.7,0.1C48.4,43.7,49,44,49,43.3z M47.8,44.2c0.6,0.1,0.6-0.7,0-0.6
			C47.8,43.8,47.8,44,47.8,44.2z M32.4,44.2c0-0.1-0.3-0.2-0.3,0C32.3,44.2,32.3,44.4,32.4,44.2z M51.1,44.7c0.1,0,0.2,0,0.3,0
			c0-0.1,0-0.2,0-0.3c-0.1,0-0.2,0-0.3,0C51.1,44.6,51.1,44.7,51.1,44.7z M21,44.6c-0.1,0-0.3,0-0.3,0.1C20.9,44.7,21,44.7,21,44.6z
			 M48.1,45.2c0.1-0.4-0.6-0.6-0.7-0.3C47.6,45,47.6,45.3,48.1,45.2z M9.2,45c-0.4,0.5-0.7,1.4-0.4,2.2c0.3,0.2,0.6,0.2,1,0.3
			c0.9,0.3,1,0.2,1.6-0.1c0.3-0.2,0.6-0.1,0.7-0.4c0.1-0.7-0.6-0.7-0.7-1.2c-0.5-0.2-0.4-1-1.2-0.9C9.9,44.9,9.7,45.1,9.2,45z
			 M14.7,46.6c0,0.5,0.2,0.9,0.6,1.2c0.5,0.1,0.1,1.1,0.9,1c1.5-0.3,2.3-1.3,2.2-3.2C17.4,44.3,14.7,44.9,14.7,46.6z M46.5,45.5
			c0-0.1-0.3-0.2-0.3,0C46.3,45.6,46.4,45.6,46.5,45.5z M24.2,45.6c-0.7,0.3-0.7-0.2-1.4-0.1c-0.1,0.2-0.3,0.3-0.6,0.3
			c0.2,0.6-0.7,0.8-0.3,1.2c0-0.2,0.2-0.1,0.1,0.1c0.2,0,0.2,0.3,0.3,0.4c0.6-0.1,0.6,0.5,1.2,0.4c0.8-0.2,1.5-0.4,1.7-1.2
			C25.1,46.2,24.5,46,24.2,45.6z M12.6,46.5c0.3,0,0.3-0.2,0.6-0.1c0-0.3-0.1-0.5-0.4-0.4C12.7,46.2,12.5,46.2,12.6,46.5z
			 M28.4,47.8c0.4-0.4-0.3-0.5-0.3-0.9c-0.2,0-0.4,0-0.6,0C27.5,47.8,28.1,47.1,28.4,47.8z M34.6,47.9c-0.1,0-0.3,0-0.3,0.1
			C34.4,48,34.6,48.1,34.6,47.9z M11.8,48.8c0.2,0,0.4,0,0.6,0C12.5,48.2,11.7,48.2,11.8,48.8z M32.6,48.5C33,48.9,33,48,32.6,48.5
			L32.6,48.5z M9.4,49.4C8.8,48.8,9,49.8,9.4,49.4L9.4,49.4z M22.3,49.5c-0.1,0-0.2,0-0.3,0c-0.1,0.8-1.2,0.6-1.3,1.4
			c0.4,1.3,2.7,1.5,3.3,0.3c-0.4-0.1,0.1-0.5,0-0.7C23.5,50.2,23.2,49.5,22.3,49.5z M29.4,50.4c-0.4,0-0.3,0.5-0.1,0.7
			c0.4,0,0.4-0.2,0.7-0.3c0-0.3,0-0.6,0-0.9c-0.3-0.1-0.5-0.5-1-0.4C28.8,50.1,29.3,50,29.4,50.4z M30,49.8c0.2,0,0.4-0.1,0.4-0.3
			C30.2,49.5,29.9,49.5,30,49.8z M16.2,50.6c0.1,0,0.3,0,0.4,0c0-0.1,0-0.3,0-0.4c-0.1,0-0.3,0-0.4,0C16.2,50.4,16.2,50.5,16.2,50.6
			z M9,51.4c0.1,0,0.2,0,0.3,0c0-0.2,0.2-0.2,0.1-0.4c-0.1,0-0.3,0-0.4,0C9,51.1,9,51.2,9,51.4z M12.6,51.4c0.4-0.1-0.1-0.8-0.3-0.3
			C12.2,51.2,12.5,51.4,12.6,51.4z M13.3,52.1c0.1-0.3,0.4-0.3,0.3-0.7c-0.5-0.1-0.4,0.3-0.7,0C12.8,51.8,13,52,13.3,52.1z
			 M16.9,52.7c0,0.4,0.2,0.4,0.3,0.7c0.9,0.1,1.4-0.8,1-1.4C17.5,52,17.5,52.7,16.9,52.7z M13.8,53.5c-0.1,0.4,0.8,0.5,0.9,0.3
			c-0.3-0.1-0.1-0.6-0.6-0.4C14.1,53.5,14,53.5,13.8,53.5z M13,55.4c0.1,0,0.2,0,0.3,0c0-0.1,0-0.2,0-0.3c-0.1,0-0.2,0-0.3,0
			C13,55.2,13,55.3,13,55.4z M16.9,55.3C16.5,55.7,17.4,54.9,16.9,55.3L16.9,55.3z M19.9,55.7c0.2,0,0.2,0.2,0.4,0.3
			c0-0.2,0.1-0.3,0.1-0.4C20.3,55.4,19.9,55.4,19.9,55.7z M17.2,56.1c0-0.1,0.4-0.6,0-0.6C17.1,55.6,16.8,56.1,17.2,56.1z
			 M22.8,58.6c0.2-0.4,0.1-1-0.4-1C22.4,58,22.2,58.7,22.8,58.6z M22.5,57.4c0-0.1,0-0.2,0-0.3c-0.1,0-0.2,0-0.3,0
			c0,0.1,0,0.2-0.1,0.1c0,0.1,0,0.2,0,0.3c0.1,0,0.2,0,0.3,0C22.3,57.5,22.4,57.4,22.5,57.4z M24.9,58c0.1,0,0.3,0,0.4,0
			c0-0.3-0.1-0.3-0.4-0.3C24.9,57.8,24.9,57.9,24.9,58z M16.6,59.9c-1.1,0.1-2.6-0.3-2.9,0.6c0.6,0.8,1.9,0.7,2.9,0.7
			c0.8,1.3-1.4,3,0.4,3.3c0.3-1.3,0.6-2.7,0.3-4.2C16.9,60.3,16.8,60,16.6,59.9z M21.9,62.7c0.7-0.3,1.1,0,1.7,0.1
			c0.4-0.7,0.4-2-0.4-2.2C22.9,61.5,21.9,61.6,21.9,62.7z M18.5,63.6c0.2-0.6,0.7-2.2-0.3-2.3C17.9,62.1,17.4,63.3,18.5,63.6z
			 M12.6,62c0-0.1-0.1-0.2-0.1,0C12.4,62.1,12.5,62.2,12.6,62z M19.5,64.3c0.7,0,0.9-1,0.6-1.6c-0.1,0-0.3,0-0.4,0
			C19.3,63,19.1,63.9,19.5,64.3z M21.9,63.2c0,0.6,0.5,0.8,0.9,1.2c-0.1,0.6,0.1,0.9,0.7,0.9c0.4-0.6-0.2-1.3-0.3-1.9
			C22.7,63.3,22.3,62.8,21.9,63.2z M17.7,63.6c-0.1,0-0.3,0-0.3,0.1C17.6,63.7,17.7,63.7,17.7,63.6z M11.7,64.9
			c0.2-0.2,0.6,0.4,0.6,0.9c0.2,0,0.5,0,0.7,0c-0.2-0.8-0.3-1.7-1-2C12,64.2,11.3,64.6,11.7,64.9z M20.5,65.5
			c0.7-0.1,0.6-0.9,0.7-1.6c-0.2,0-0.2-0.2-0.4-0.1C20.5,64.2,20.2,64.9,20.5,65.5z M18.2,64.3c0.1,0,0.2,0,0.3,0c0-0.1,0-0.2,0-0.3
			c-0.1,0-0.2,0-0.3,0C18.2,64.1,18.2,64.2,18.2,64.3z M30.5,65.2c0.4,0.1,0.6,0.5,1.2,0.4c0.1-0.3,0.2-0.7,0.1-1.2
			C31.2,64.1,30.7,64.6,30.5,65.2z M22,66c0.8,0,0.5-1.7-0.1-1.6C22,65,21.8,65.7,22,66z M32.7,65.5c0-0.1-0.1-0.2-0.1,0
			C32.6,65.5,32.7,65.6,32.7,65.5z M30.7,66.3c-0.1,0.5,0.2,0.6,0.3,0.9c0.4,0,0.7-0.1,0.9-0.4c0.3-0.1,0.9,0,0.9-0.6
			C32.2,65.9,31.2,66.2,30.7,66.3z M13.1,66.3c-0.2,0-0.4,0-0.4,0.1C12.9,66.5,13.1,66.5,13.1,66.3z M21.5,66.6
			c0.2,0.2,0.4,0.2,0.4-0.1c-0.2,0-0.3-0.1-0.4-0.1C21.5,66.4,21.5,66.5,21.5,66.6z M30,68.3c0.1,0.6,0.4,0.5,0.1,1.2
			c0.2,0.2,0.5,0.2,0.9,0.1c0.3-0.5,0.2-0.7,0.3-1.3C30.9,68.2,30.3,68.1,30,68.3z M29.2,70.8c0,0.3,0.5,0.1,0.7,0.1
			c0,0.3-0.4,0.2-0.3,0.6c0.3,0,0.6,0,0.9,0c0-0.5,0.4-0.6,0.3-1.2C30.3,70.1,29.3,70.2,29.2,70.8z M29,70.9c0-0.2-0.1-0.4-0.3-0.4
			C28.7,70.7,28.6,71,29,70.9z M29,72.7c0.1,0,0.2,0.1,0.1,0.3c0.5,0.1,0.8-0.1,0.9-0.6c-0.2,0-0.2-0.2-0.4-0.3
			C29.4,72.3,29,72.3,29,72.7z M29.8,73.7c-1.4-0.1-1.6,1-2.3,1.6c-0.3,0.2-0.7,0.2-1,0.4c-0.1,0.3,0.3,0.3,0.1,0.7
			c0.4,0.2,1,0.2,1.6,0.1c0.4-0.4,0.9-0.7,1.7-0.6c0.4-0.5,1.1-0.8,1.2-1.7C30.4,74.3,30.4,73.7,29.8,73.7z M22.3,75.3
			c0.5,0.2,1.1,0.1,1.6,0c0-0.7-0.7-0.9-1.3-1C22.8,74.8,22.2,74.7,22.3,75.3z M25.1,75.7c0.4,0,0.8,0.1,0.9-0.3
			c-0.4-0.6-0.9-0.7-1.6-0.7C24.4,75.2,25,75.2,25.1,75.7z M31.4,75.8c0.6,0.3,1.7,0,1.9-0.6C32.7,74.6,31.4,75,31.4,75.8z
			 M25.6,77.4c0.1-0.3,0.4-0.4,0.3-0.9c-0.3-0.1-0.4-0.4-0.9-0.3C25.2,76.7,25.2,77.3,25.6,77.4z M24.2,78.3
			c0.1-0.6-0.1-0.8-0.7-0.7C23.4,78.1,23.7,78.3,24.2,78.3z M21.2,79c0.2,0,0.2,0.2,0.4,0.3c0.3-0.3,1-0.2,1-0.9
			C22.2,78.1,21,78.2,21.2,79z"/>
		<path id="XMLID_4_" class="st0" d="M64.9,18.8c0.1,0.3,1.1,0.2,1-0.1c0.4,0.1-0.3,0.6,0.1,0.9c0,0.4-0.2,0.5-0.4,0.6
			c0.1,0.4-0.1,0.5-0.1,0.9c-1.1,0.9-1.6,2.4-2.4,3.6c-0.2,0.4,0.1,0.5,0,1.2c-0.3,0.5-0.6,1.1-0.4,2c-0.9,0-0.5,1.4-1.3,1.6
			c-0.1,0.3,0.3,0.3,0.1,0.7c-0.2,0.4-1.1,0.7-1.6,0.3c-0.1-0.5,0.5-0.2,0.4-0.6c0-0.2-0.7-0.6-0.6,0c-0.4-0.2-0.4-0.7-0.6-1.2
			c0.2,0,0.3,0,0.3-0.1c-0.6-0.2-0.2-1.4-0.7-1.6c0.2-0.5,0.1-0.6,0-1.2c-0.3-0.2-0.5-0.4-0.7-0.7c0.1-0.5,0.5-0.8,0.6-1.3
			c0.1,0,0.1,0.1,0.3,0.1c0.9-1.5,2-2.7,3-4c0.2-1.2,0.8-2,1.6-2.6c-0.1-0.5,0.2-0.6,0.4-0.7c0-0.5,0.1-0.9,0.3-1.3
			c0.5,0,0.5,0.4,0.6,0.7c0.3,0,0.6,0,0.7,0.1c0.3,0.5,0.4,1.3,1,1.6c0.2,0,0.3,0,0.3-0.1c0.4,0.2-0.1,0.2-0.1,0.3
			c-0.1,0.1-0.2,0.4-0.3,0.6c-0.4,0-0.7,0-0.9,0.3C65.3,18.5,65,18.5,64.9,18.8z M65.9,17.8c-0.5-0.3-0.6,0.7-0.1,0.6
			C65.8,18.2,65.8,18,65.9,17.8z M63.9,17.8c0-0.1-0.1-0.2-0.1,0C63.8,17.9,63.9,18,63.9,17.8z M64.8,19.3c-0.2,0-0.3-0.3-0.4,0
			C64.5,19.3,64.7,19.5,64.8,19.3z M64.6,20c0.1,0,0.2,0,0.3,0c0-0.1,0-0.2,0-0.3c-0.1,0-0.2,0-0.3,0C64.6,19.8,64.6,19.9,64.6,20z
			 M63.3,20.1c0.1,0,0.2,0,0.3,0c0-0.1,0-0.2,0-0.3c-0.1,0-0.2,0-0.3,0C63.3,20,63.3,20,63.3,20.1z M64.2,20.6
			c-0.5-0.1-0.5,0.3-0.7,0.4C63.7,21.2,64.2,21,64.2,20.6z M63.5,20.6c-0.3,0.1-0.3-0.3-0.7-0.1c0,0.3,0.2,0.3,0.3,0.4
			c-0.1,0.2-0.2,0.2,0,0.4c0.1,0,0.3,0,0.4,0C63.5,20.9,63.2,20.8,63.5,20.6z M63.5,21.9c0.1,0,0.2,0,0.3,0c0-0.1,0-0.3,0-0.4
			c-0.1,0-0.3,0-0.4,0C63.3,21.6,63.4,21.8,63.5,21.9z M62,22.3c-0.1,0.6,0.1,0.9,0.7,0.9c0-0.2,0.1-0.5-0.1-0.6
			c0,0.2-0.2,0-0.3-0.1c0.1,0,0.3,0,0.3-0.1C62.3,22.1,62.4,22.3,62,22.3z M63.2,22.7c0-0.3,0.4-0.2,0.3-0.6
			C63.1,22,62.9,22.6,63.2,22.7z M62.5,23.3c0,0-0.2,0.1-0.1,0.1C62.4,23.5,62.6,23.4,62.5,23.3z M60.3,24.9c-0.2,0-0.4-0.6-0.6-0.1
			C59.9,24.7,60.2,25.3,60.3,24.9z M60.5,25.6c0.4,0.2,0.4-0.6,0-0.4C60.5,25.3,60.5,25.5,60.5,25.6z M60.2,25.8
			c-0.2,0-0.2-0.2-0.3,0C59.9,25.9,60.1,25.9,60.2,25.8z M61.5,26.3C61.1,26.8,61.9,25.9,61.5,26.3L61.5,26.3z M61.2,27.6
			c0.1-0.3,0.4-0.3,0.3-0.7c-0.4,0.1-0.3,0.1-0.7,0C60.8,27.2,61.1,27.4,61.2,27.6z"/>
	</g>
</g>
</svg>
