<?xml version="1.0" encoding="utf-8"?>
<!-- Generator: Adobe Illustrator 19.0.0, SVG Export Plug-In . SVG Version: 6.00 Build 0)  -->
<svg version="1.1" id="Layer_1" xmlns="http://www.w3.org/2000/svg" xmlns:xlink="http://www.w3.org/1999/xlink" x="0px" y="0px"
	 viewBox="503 89.6 1509.4 183.4" style="enable-background:new 503 89.6 1509.4 183.4;" xml:space="preserve">
<style type="text/css">
	.st0{clip-path:url(#SVGID_2_);}
	.st1{fill:#00AEEF;}
	.st2{clip-path:url(#SVGID_4_);}
	.st3{clip-path:url(#SVGID_6_);}
	.st4{fill:#00ABC5;}
</style>
<g>
	<g>
		<defs>
			<polygon id="SVGID_1_" points="503,104.5 2012,89.6 2012.4,273 504.5,241 			"/>
		</defs>
		<clipPath id="SVGID_2_">
			<use xlink:href="#SVGID_1_"  style="overflow:visible;"/>
		</clipPath>
		<g class="st0">
			<g>
				<g>
					
						<rect x="-136.9" y="-96.5" transform="matrix(0.7071 0.7071 -0.7071 0.7071 296.43 234.9545)" class="st1" width="3" height="1143.5"/>
				</g>
				<g>
					
						<rect x="-121.6" y="-96.5" transform="matrix(0.7071 0.7071 -0.7071 0.7071 300.9114 224.1356)" class="st1" width="3" height="1143.5"/>
				</g>
				<g>
					
						<rect x="-106.3" y="-96.5" transform="matrix(0.7071 0.7071 -0.7071 0.7071 305.3926 213.317)" class="st1" width="3" height="1143.5"/>
				</g>
				<g>
					
						<rect x="-91" y="-96.5" transform="matrix(0.7071 0.7071 -0.7071 0.7071 309.8739 202.4982)" class="st1" width="3" height="1143.5"/>
				</g>
				<g>
					<polygon class="st1" points="-477.4,880.7 -479.6,878.5 -226.9,625.9 329,69.9 331.2,72.1 -224.7,628.1 					"/>
				</g>
				<g>
					
						<rect x="-60.3" y="-96.4" transform="matrix(0.7071 0.7071 -0.7071 0.7071 318.851 180.8254)" class="st1" width="3" height="1143.5"/>
				</g>
				<g>
					
						<rect x="-45" y="-96.5" transform="matrix(0.7071 0.7071 -0.7071 0.7071 323.347 169.9713)" class="st1" width="3" height="1143.5"/>
				</g>
				<g>
					
						<rect x="-29.7" y="-96.5" transform="matrix(0.7071 0.7071 -0.7071 0.7071 327.8282 159.1525)" class="st1" width="3" height="1143.5"/>
				</g>
				<g>
					
						<rect x="-14.4" y="-96.5" transform="matrix(0.7071 0.7071 -0.7071 0.7071 332.3094 148.3339)" class="st1" width="3" height="1143.5"/>
				</g>
				<g>
					
						<rect x="0.9" y="-96.5" transform="matrix(0.7071 0.7071 -0.7071 0.7071 336.7908 137.515)" class="st1" width="3" height="1143.5"/>
				</g>
				<g>
					
						<rect x="16.2" y="-96.5" transform="matrix(0.7071 0.7071 -0.7071 0.7071 341.272 126.6964)" class="st1" width="3" height="1143.5"/>
				</g>
				<g>
					
						<rect x="31.6" y="-96.5" transform="matrix(0.7071 0.7071 -0.7071 0.7071 345.7825 115.807)" class="st1" width="3" height="1143.5"/>
				</g>
				<g>
					
						<rect x="46.9" y="-96.5" transform="matrix(0.7071 0.7071 -0.7071 0.7071 350.2639 104.9881)" class="st1" width="3" height="1143.5"/>
				</g>
				<g>
					
						<rect x="62.2" y="-96.5" transform="matrix(0.7071 0.7071 -0.7071 0.7071 354.7451 94.1695)" class="st1" width="3" height="1143.5"/>
				</g>
				<g>
					
						<rect x="77.5" y="-96.5" transform="matrix(0.7071 0.7071 -0.7071 0.7071 359.2264 83.3507)" class="st1" width="3" height="1143.5"/>
				</g>
				<g>
					
						<rect x="92.8" y="-96.5" transform="matrix(0.7071 0.7071 -0.7071 0.7071 363.7077 72.5319)" class="st1" width="3" height="1143.5"/>
				</g>
				<g>
					
						<rect x="108.1" y="-96.5" transform="matrix(0.7071 0.7071 -0.7071 0.7071 368.1889 61.7133)" class="st1" width="3" height="1143.5"/>
				</g>
				<g>
					
						<rect x="123.5" y="-96.5" transform="matrix(0.7071 0.7071 -0.7071 0.7071 372.6995 50.8238)" class="st1" width="3" height="1143.5"/>
				</g>
				<g>
					
						<rect x="138.8" y="-96.5" transform="matrix(0.7071 0.7071 -0.7071 0.7071 377.1808 40.005)" class="st1" width="3" height="1143.5"/>
				</g>
				<g>
					
						<rect x="154.1" y="-96.5" transform="matrix(0.7071 0.7071 -0.7071 0.7071 381.662 29.1864)" class="st1" width="3" height="1143.5"/>
				</g>
				<g>
					
						<rect x="169.4" y="-96.5" transform="matrix(0.7071 0.7071 -0.7071 0.7071 386.1433 18.3675)" class="st1" width="3" height="1143.5"/>
				</g>
				<g>
					
						<rect x="184.7" y="-96.5" transform="matrix(0.7071 0.7071 -0.7071 0.7071 390.6245 7.5489)" class="st1" width="3" height="1143.5"/>
				</g>
				<g>
					
						<rect x="200" y="-96.5" transform="matrix(0.7071 0.7071 -0.7071 0.7071 395.1058 -3.2699)" class="st1" width="3" height="1143.5"/>
				</g>
				<g>
					
						<rect x="215.4" y="-96.5" transform="matrix(0.7071 0.7071 -0.7071 0.7071 399.6164 -14.1594)" class="st1" width="3" height="1143.5"/>
				</g>
				<g>
					
						<rect x="230.7" y="-96.5" transform="matrix(0.7071 0.7071 -0.7071 0.7071 404.0976 -24.978)" class="st1" width="3" height="1143.5"/>
				</g>
				<g>
					
						<rect x="246" y="-96.5" transform="matrix(0.7071 0.7071 -0.7071 0.7071 408.5789 -35.7968)" class="st1" width="3" height="1143.5"/>
				</g>
				<g>
					
						<rect x="261.3" y="-96.5" transform="matrix(0.7071 0.7071 -0.7071 0.7071 413.0602 -46.6156)" class="st1" width="3" height="1143.5"/>
				</g>
				<g>
					
						<rect x="276.6" y="-96.5" transform="matrix(0.7071 0.7071 -0.7071 0.7071 417.5414 -57.4342)" class="st1" width="3" height="1143.5"/>
				</g>
				<g>
					
						<rect x="292" y="-96.4" transform="matrix(0.7071 0.7071 -0.7071 0.7071 422.0374 -68.2885)" class="st1" width="3" height="1143.5"/>
				</g>
				<g>
					
						<rect x="307.3" y="-96.5" transform="matrix(0.7071 0.7071 -0.7071 0.7071 426.5333 -79.1425)" class="st1" width="3" height="1143.5"/>
				</g>
				<g>
					
						<rect x="322.6" y="-96.5" transform="matrix(0.7071 0.7071 -0.7071 0.7071 431.0145 -89.9611)" class="st1" width="3" height="1143.5"/>
				</g>
				<g>
					
						<rect x="337.9" y="-96.5" transform="matrix(0.7071 0.7071 -0.7071 0.7071 435.4958 -100.78)" class="st1" width="3" height="1143.5"/>
				</g>
				<g>
					
						<rect x="353.2" y="-96.5" transform="matrix(0.7071 0.7071 -0.7071 0.7071 439.977 -111.5986)" class="st1" width="3" height="1143.5"/>
				</g>
				<g>
					
						<rect x="368.5" y="-96.5" transform="matrix(0.7071 0.7071 -0.7071 0.7071 444.4583 -122.4174)" class="st1" width="3" height="1143.5"/>
				</g>
				<g>
					
						<rect x="383.9" y="-96.5" transform="matrix(0.7071 0.7071 -0.7071 0.7071 448.9689 -133.3069)" class="st1" width="3" height="1143.5"/>
				</g>
				<g>
					
						<rect x="399.2" y="-96.5" transform="matrix(0.7071 0.7071 -0.7071 0.7071 453.4501 -144.1255)" class="st1" width="3" height="1143.5"/>
				</g>
				<g>
					
						<rect x="414.5" y="-96.5" transform="matrix(0.7071 0.7071 -0.7071 0.7071 457.9314 -154.9443)" class="st1" width="3" height="1143.5"/>
				</g>
				<g>
					
						<rect x="429.8" y="-96.5" transform="matrix(0.7071 0.7071 -0.7071 0.7071 462.4127 -165.7631)" class="st1" width="3" height="1143.5"/>
				</g>
				<g>
					
						<rect x="445.1" y="-96.5" transform="matrix(0.7071 0.7071 -0.7071 0.7071 466.8939 -176.5816)" class="st1" width="3" height="1143.5"/>
				</g>
				<g>
					
						<rect x="460.4" y="-96.5" transform="matrix(0.7071 0.7071 -0.7071 0.7071 471.3752 -187.4006)" class="st1" width="3" height="1143.5"/>
				</g>
				<g>
					
						<rect x="475.8" y="-96.5" transform="matrix(0.7071 0.7071 -0.7071 0.7071 475.8858 -198.29)" class="st1" width="3" height="1143.5"/>
				</g>
				<g>
					
						<rect x="491.1" y="-96.5" transform="matrix(0.7071 0.7071 -0.7071 0.7071 480.367 -209.1086)" class="st1" width="3" height="1143.5"/>
				</g>
				<g>
					
						<rect x="506.4" y="-96.5" transform="matrix(0.7071 0.7071 -0.7071 0.7071 484.8483 -219.9275)" class="st1" width="3" height="1143.5"/>
				</g>
				<g>
					
						<rect x="521.7" y="-96.5" transform="matrix(0.7071 0.7071 -0.7071 0.7071 489.3295 -230.7461)" class="st1" width="3" height="1143.5"/>
				</g>
				<g>
					
						<rect x="552.3" y="-96.5" transform="matrix(0.7071 0.7071 -0.7071 0.7071 498.2921 -252.3836)" class="st1" width="3" height="1143.5"/>
				</g>
				<g>
					
						<rect x="537" y="-96.5" transform="matrix(0.7071 0.7071 -0.7071 0.7071 493.8108 -241.5649)" class="st1" width="3" height="1143.5"/>
				</g>
			</g>
			<g>
				<g>
					
						<rect x="567.8" y="-96.5" transform="matrix(0.7071 0.7071 -0.7071 0.7071 502.8319 -263.3438)" class="st1" width="3" height="1143.5"/>
				</g>
				<g>
					
						<rect x="583.1" y="-96.5" transform="matrix(0.7071 0.7071 -0.7071 0.7071 507.3131 -274.1624)" class="st1" width="3" height="1143.5"/>
				</g>
				<g>
					
						<rect x="598.4" y="-96.5" transform="matrix(0.7071 0.7071 -0.7071 0.7071 511.7945 -284.9813)" class="st1" width="3" height="1143.5"/>
				</g>
				<g>
					
						<rect x="613.7" y="-96.5" transform="matrix(0.7071 0.7071 -0.7071 0.7071 516.2757 -295.7999)" class="st1" width="3" height="1143.5"/>
				</g>
				<g>
					<polygon class="st1" points="227.3,880.7 225.1,878.5 477.8,625.9 1033.7,69.9 1035.9,72.1 480,628.1 					"/>
				</g>
				<g>
					
						<rect x="644.4" y="-96.5" transform="matrix(0.7071 0.7071 -0.7071 0.7071 525.2676 -317.5082)" class="st1" width="3" height="1143.5"/>
				</g>
				<g>
					
						<rect x="659.7" y="-96.5" transform="matrix(0.7071 0.7071 -0.7071 0.7071 529.7488 -328.3268)" class="st1" width="3" height="1143.5"/>
				</g>
				<g>
					
						<rect x="675" y="-96.5" transform="matrix(0.7071 0.7071 -0.7071 0.7071 534.2301 -339.1456)" class="st1" width="3" height="1143.5"/>
				</g>
				<g>
					
						<rect x="690.3" y="-96.5" transform="matrix(0.7071 0.7071 -0.7071 0.7071 538.7114 -349.9644)" class="st1" width="3" height="1143.5"/>
				</g>
				<g>
					
						<rect x="705.6" y="-96.5" transform="matrix(0.7071 0.7071 -0.7071 0.7071 543.1926 -360.783)" class="st1" width="3" height="1143.5"/>
				</g>
				<g>
					
						<rect x="720.9" y="-96.5" transform="matrix(0.7071 0.7071 -0.7071 0.7071 547.674 -371.6019)" class="st1" width="3" height="1143.5"/>
				</g>
				<g>
					
						<rect x="736.3" y="-96.5" transform="matrix(0.7071 0.7071 -0.7071 0.7071 552.1844 -382.4913)" class="st1" width="3" height="1143.5"/>
				</g>
				<g>
					
						<rect x="751.6" y="-96.5" transform="matrix(0.7071 0.7071 -0.7071 0.7071 556.6656 -393.3099)" class="st1" width="3" height="1143.5"/>
				</g>
				<g>
					
						<rect x="766.9" y="-96.5" transform="matrix(0.7071 0.7071 -0.7071 0.7071 561.147 -404.1288)" class="st1" width="3" height="1143.5"/>
				</g>
				<g>
					
						<rect x="782.2" y="-96.5" transform="matrix(0.7071 0.7071 -0.7071 0.7071 565.6282 -414.9474)" class="st1" width="3" height="1143.5"/>
				</g>
				<g>
					
						<rect x="797.5" y="-96.5" transform="matrix(0.7071 0.7071 -0.7071 0.7071 570.1095 -425.7662)" class="st1" width="3" height="1143.5"/>
				</g>
				<g>
					
						<rect x="812.9" y="-96.4" transform="matrix(0.7071 0.7071 -0.7071 0.7071 574.6055 -436.6203)" class="st1" width="3" height="1143.5"/>
				</g>
				<g>
					
						<rect x="828.2" y="-96.5" transform="matrix(0.7071 0.7071 -0.7071 0.7071 579.1013 -447.4743)" class="st1" width="3" height="1143.5"/>
				</g>
				<g>
					
						<rect x="843.5" y="-96.5" transform="matrix(0.7071 0.7071 -0.7071 0.7071 583.5826 -458.2931)" class="st1" width="3" height="1143.5"/>
				</g>
				<g>
					
						<rect x="858.8" y="-96.5" transform="matrix(0.7071 0.7071 -0.7071 0.7071 588.0638 -469.1117)" class="st1" width="3" height="1143.5"/>
				</g>
				<g>
					
						<rect x="874.1" y="-96.5" transform="matrix(0.7071 0.7071 -0.7071 0.7071 592.5452 -479.9306)" class="st1" width="3" height="1143.5"/>
				</g>
				<g>
					
						<rect x="889.4" y="-96.5" transform="matrix(0.7071 0.7071 -0.7071 0.7071 597.0264 -490.7494)" class="st1" width="3" height="1143.5"/>
				</g>
				<g>
					
						<rect x="904.8" y="-96.5" transform="matrix(0.7071 0.7071 -0.7071 0.7071 601.5369 -501.6386)" class="st1" width="3" height="1143.5"/>
				</g>
				<g>
					
						<rect x="920.1" y="-96.5" transform="matrix(0.7071 0.7071 -0.7071 0.7071 606.0182 -512.4575)" class="st1" width="3" height="1143.5"/>
				</g>
				<g>
					
						<rect x="935.4" y="-96.5" transform="matrix(0.7071 0.7071 -0.7071 0.7071 610.4995 -523.2763)" class="st1" width="3" height="1143.5"/>
				</g>
				<g>
					
						<rect x="950.7" y="-96.5" transform="matrix(0.7071 0.7071 -0.7071 0.7071 614.9807 -534.0949)" class="st1" width="3" height="1143.5"/>
				</g>
				<g>
					
						<rect x="966" y="-96.5" transform="matrix(0.7071 0.7071 -0.7071 0.7071 619.462 -544.9137)" class="st1" width="3" height="1143.5"/>
				</g>
				<g>
					
						<rect x="981.3" y="-96.5" transform="matrix(0.7071 0.7071 -0.7071 0.7071 623.9432 -555.7323)" class="st1" width="3" height="1143.5"/>
				</g>
				<g>
					
						<rect x="996.7" y="-96.5" transform="matrix(0.7071 0.7071 -0.7071 0.7071 628.4538 -566.6218)" class="st1" width="3" height="1143.5"/>
				</g>
				<g>
					
						<rect x="1012" y="-96.5" transform="matrix(0.7071 0.7071 -0.7071 0.7071 632.9351 -577.4406)" class="st1" width="3" height="1143.5"/>
				</g>
				<g>
					
						<rect x="1027.3" y="-96.5" transform="matrix(0.7071 0.7071 -0.7071 0.7071 637.4163 -588.2592)" class="st1" width="3" height="1143.5"/>
				</g>
				<g>
					
						<rect x="1042.6" y="-96.5" transform="matrix(0.7071 0.7071 -0.7071 0.7071 641.8976 -599.0781)" class="st1" width="3" height="1143.5"/>
				</g>
				<g>
					
						<rect x="1057.9" y="-96.5" transform="matrix(0.7071 0.7071 -0.7071 0.7071 646.379 -609.8969)" class="st1" width="3" height="1143.5"/>
				</g>
				<g>
					
						<rect x="1073.2" y="-96.5" transform="matrix(0.7071 0.7071 -0.7071 0.7071 650.8602 -620.7155)" class="st1" width="3" height="1143.5"/>
				</g>
				<g>
					
						<rect x="1088.6" y="-96.5" transform="matrix(0.7071 0.7071 -0.7071 0.7071 655.3707 -631.605)" class="st1" width="3" height="1143.5"/>
				</g>
				<g>
					
						<rect x="1103.9" y="-96.5" transform="matrix(0.7071 0.7071 -0.7071 0.7071 659.8521 -642.4238)" class="st1" width="3" height="1143.5"/>
				</g>
				<g>
					
						<rect x="1119.2" y="-96.5" transform="matrix(0.7071 0.7071 -0.7071 0.7071 664.3333 -653.2424)" class="st1" width="3" height="1143.5"/>
				</g>
				<g>
					
						<rect x="1134.5" y="-96.5" transform="matrix(0.7071 0.7071 -0.7071 0.7071 668.8145 -664.0612)" class="st1" width="3" height="1143.5"/>
				</g>
				<g>
					
						<rect x="1149.8" y="-96.5" transform="matrix(0.7071 0.7071 -0.7071 0.7071 673.2957 -674.8798)" class="st1" width="3" height="1143.5"/>
				</g>
				<g>
					
						<rect x="1165.2" y="-96.4" transform="matrix(0.7071 0.7071 -0.7071 0.7071 677.7917 -685.7341)" class="st1" width="3" height="1143.5"/>
				</g>
				<g>
					
						<rect x="1180.5" y="-96.5" transform="matrix(0.7071 0.7071 -0.7071 0.7071 682.2876 -696.5881)" class="st1" width="3" height="1143.5"/>
				</g>
				<g>
					
						<rect x="1195.8" y="-96.5" transform="matrix(0.7071 0.7071 -0.7071 0.7071 686.7688 -707.4067)" class="st1" width="3" height="1143.5"/>
				</g>
				<g>
					
						<rect x="1211.1" y="-96.5" transform="matrix(0.7071 0.7071 -0.7071 0.7071 691.2502 -718.2256)" class="st1" width="3" height="1143.5"/>
				</g>
				<g>
					
						<rect x="1226.4" y="-96.5" transform="matrix(0.7071 0.7071 -0.7071 0.7071 695.7314 -729.0444)" class="st1" width="3" height="1143.5"/>
				</g>
				<g>
					
						<rect x="1257.1" y="-96.5" transform="matrix(0.7071 0.7071 -0.7071 0.7071 704.7233 -750.7525)" class="st1" width="3" height="1143.5"/>
				</g>
				<g>
					
						<rect x="1241.7" y="-96.5" transform="matrix(0.7071 0.7071 -0.7071 0.7071 700.2126 -739.863)" class="st1" width="3" height="1143.5"/>
				</g>
			</g>
			<g>
				<g>
					
						<rect x="1272.4" y="-96.5" transform="matrix(0.7071 0.7071 -0.7071 0.7071 709.2045 -761.5713)" class="st1" width="3" height="1143.5"/>
				</g>
				<g>
					
						<rect x="1287.7" y="-96.5" transform="matrix(0.7071 0.7071 -0.7071 0.7071 713.6857 -772.3899)" class="st1" width="3" height="1143.5"/>
				</g>
				<g>
					
						<rect x="1303.1" y="-96.5" transform="matrix(0.7071 0.7071 -0.7071 0.7071 718.1964 -783.2794)" class="st1" width="3" height="1143.5"/>
				</g>
				<g>
					
						<rect x="1318.4" y="-96.5" transform="matrix(0.7071 0.7071 -0.7071 0.7071 722.6776 -794.0982)" class="st1" width="3" height="1143.5"/>
				</g>
				<g>
					
						<rect x="1333.7" y="-96.5" transform="matrix(0.7071 0.7071 -0.7071 0.7071 727.1588 -804.9168)" class="st1" width="3" height="1143.5"/>
				</g>
				<g>
					
						<rect x="1349" y="-96.5" transform="matrix(0.7071 0.7071 -0.7071 0.7071 731.6401 -815.7356)" class="st1" width="3" height="1143.5"/>
				</g>
				<g>
					
						<rect x="1364.3" y="-96.5" transform="matrix(0.7071 0.7071 -0.7071 0.7071 736.1213 -826.5542)" class="st1" width="3" height="1143.5"/>
				</g>
				<g>
					
						<rect x="1379.6" y="-96.5" transform="matrix(0.7071 0.7071 -0.7071 0.7071 740.6027 -837.3731)" class="st1" width="3" height="1143.5"/>
				</g>
				<g>
					
						<rect x="1395" y="-96.5" transform="matrix(0.7071 0.7071 -0.7071 0.7071 745.1132 -848.2625)" class="st1" width="3" height="1143.5"/>
				</g>
				<g>
					
						<rect x="1410.3" y="-96.5" transform="matrix(0.7071 0.7071 -0.7071 0.7071 749.5944 -859.0811)" class="st1" width="3" height="1143.5"/>
				</g>
				<g>
					
						<rect x="1425.6" y="-96.5" transform="matrix(0.7071 0.7071 -0.7071 0.7071 754.0757 -869.9)" class="st1" width="3" height="1143.5"/>
				</g>
				<g>
					
						<rect x="1440.9" y="-96.5" transform="matrix(0.7071 0.7071 -0.7071 0.7071 758.5571 -880.7188)" class="st1" width="3" height="1143.5"/>
				</g>
				<g>
					
						<rect x="1456.2" y="-96.5" transform="matrix(0.7071 0.7071 -0.7071 0.7071 763.0383 -891.5374)" class="st1" width="3" height="1143.5"/>
				</g>
				<g>
					
						<rect x="1471.5" y="-96.4" transform="matrix(0.7071 0.7071 -0.7071 0.7071 767.5341 -902.3914)" class="st1" width="3" height="1143.5"/>
				</g>
				<g>
					
						<rect x="1486.9" y="-96.5" transform="matrix(0.7071 0.7071 -0.7071 0.7071 772.0302 -913.2457)" class="st1" width="3" height="1143.5"/>
				</g>
				<g>
					
						<rect x="1502.2" y="-96.5" transform="matrix(0.7071 0.7071 -0.7071 0.7071 776.5114 -924.0643)" class="st1" width="3" height="1143.5"/>
				</g>
				<g>
					
						<rect x="1517.5" y="-96.5" transform="matrix(0.7071 0.7071 -0.7071 0.7071 780.9926 -934.8831)" class="st1" width="3" height="1143.5"/>
				</g>
				<g>
					
						<rect x="1532.8" y="-96.5" transform="matrix(0.7071 0.7071 -0.7071 0.7071 785.4738 -945.7017)" class="st1" width="3" height="1143.5"/>
				</g>
				<g>
					
						<rect x="1548.1" y="-96.5" transform="matrix(0.7071 0.7071 -0.7071 0.7071 789.9552 -956.5206)" class="st1" width="3" height="1143.5"/>
				</g>
				<g>
					
						<rect x="1563.5" y="-96.5" transform="matrix(0.7071 0.7071 -0.7071 0.7071 794.4657 -967.41)" class="st1" width="3" height="1143.5"/>
				</g>
				<g>
					
						<rect x="1578.8" y="-96.5" transform="matrix(0.7071 0.7071 -0.7071 0.7071 798.9469 -978.2286)" class="st1" width="3" height="1143.5"/>
				</g>
				<g>
					
						<rect x="1594.1" y="-96.5" transform="matrix(0.7071 0.7071 -0.7071 0.7071 803.4283 -989.0475)" class="st1" width="3" height="1143.5"/>
				</g>
				<g>
					
						<rect x="1609.4" y="-96.5" transform="matrix(0.7071 0.7071 -0.7071 0.7071 807.9095 -999.8663)" class="st1" width="3" height="1143.5"/>
				</g>
				<g>
					
						<rect x="1624.7" y="-96.5" transform="matrix(0.7071 0.7071 -0.7071 0.7071 812.3907 -1010.6849)" class="st1" width="3" height="1143.5"/>
				</g>
				<g>
					
						<rect x="1640" y="-96.5" transform="matrix(0.7071 0.7071 -0.7071 0.7071 816.8721 -1021.5037)" class="st1" width="3" height="1143.5"/>
				</g>
				<g>
					
						<rect x="1655.4" y="-96.5" transform="matrix(0.7071 0.7071 -0.7071 0.7071 821.3826 -1032.3932)" class="st1" width="3" height="1143.5"/>
				</g>
				<g>
					
						<rect x="1670.7" y="-96.5" transform="matrix(0.7071 0.7071 -0.7071 0.7071 825.8639 -1043.2119)" class="st1" width="3" height="1143.5"/>
				</g>
				<g>
					
						<rect x="1686" y="-96.5" transform="matrix(0.7071 0.7071 -0.7071 0.7071 830.3452 -1054.0305)" class="st1" width="3" height="1143.5"/>
				</g>
				<g>
					
						<rect x="1701.3" y="-96.5" transform="matrix(0.7071 0.7071 -0.7071 0.7071 834.8264 -1064.8491)" class="st1" width="3" height="1143.5"/>
				</g>
				<g>
					
						<rect x="1716.6" y="-96.5" transform="matrix(0.7071 0.7071 -0.7071 0.7071 839.3077 -1075.6681)" class="st1" width="3" height="1143.5"/>
				</g>
				<g>
					
						<rect x="1731.9" y="-96.5" transform="matrix(0.7071 0.7071 -0.7071 0.7071 843.7889 -1086.4867)" class="st1" width="3" height="1143.5"/>
				</g>
				<g>
					
						<rect x="1747.3" y="-96.5" transform="matrix(0.7071 0.7071 -0.7071 0.7071 848.2994 -1097.3761)" class="st1" width="3" height="1143.5"/>
				</g>
				<g>
					
						<rect x="1762.6" y="-96.5" transform="matrix(0.7071 0.7071 -0.7071 0.7071 852.7808 -1108.1951)" class="st1" width="3" height="1143.5"/>
				</g>
				<g>
					
						<rect x="1777.9" y="-96.5" transform="matrix(0.7071 0.7071 -0.7071 0.7071 857.262 -1119.0135)" class="st1" width="3" height="1143.5"/>
				</g>
				<g>
					
						<rect x="1793.2" y="-96.5" transform="matrix(0.7071 0.7071 -0.7071 0.7071 861.7433 -1129.8325)" class="st1" width="3" height="1143.5"/>
				</g>
				<g>
					
						<rect x="1808.5" y="-96.5" transform="matrix(0.7071 0.7071 -0.7071 0.7071 866.2245 -1140.6511)" class="st1" width="3" height="1143.5"/>
				</g>
				<g>
					
						<rect x="1823.8" y="-96.4" transform="matrix(0.7071 0.7071 -0.7071 0.7071 870.7203 -1151.505)" class="st1" width="3" height="1143.5"/>
				</g>
				<g>
					
						<rect x="1839.2" y="-96.5" transform="matrix(0.7071 0.7071 -0.7071 0.7071 875.2164 -1162.3595)" class="st1" width="3" height="1143.5"/>
				</g>
				<g>
					
						<rect x="1854.5" y="-96.5" transform="matrix(0.7071 0.7071 -0.7071 0.7071 879.6976 -1173.1781)" class="st1" width="3" height="1143.5"/>
				</g>
				<g>
					
						<rect x="1869.8" y="-96.5" transform="matrix(0.7071 0.7071 -0.7071 0.7071 884.1788 -1183.9967)" class="st1" width="3" height="1143.5"/>
				</g>
				<g>
					
						<rect x="1885.1" y="-96.5" transform="matrix(0.7071 0.7071 -0.7071 0.7071 888.6602 -1194.8156)" class="st1" width="3" height="1143.5"/>
				</g>
				<g>
					
						<rect x="1900.4" y="-96.5" transform="matrix(0.7071 0.7071 -0.7071 0.7071 893.1414 -1205.6342)" class="st1" width="3" height="1143.5"/>
				</g>
				<g>
					
						<rect x="1915.8" y="-96.5" transform="matrix(0.7071 0.7071 -0.7071 0.7071 897.6519 -1216.5236)" class="st1" width="3" height="1143.5"/>
				</g>
				<g>
					
						<rect x="1931.1" y="-96.5" transform="matrix(0.7071 0.7071 -0.7071 0.7071 902.1333 -1227.3425)" class="st1" width="3" height="1143.5"/>
				</g>
				<g>
					
						<rect x="1961.7" y="-96.5" transform="matrix(0.7071 0.7071 -0.7071 0.7071 911.0958 -1248.98)" class="st1" width="3" height="1143.5"/>
				</g>
				<g>
					
						<rect x="1946.4" y="-96.5" transform="matrix(0.7071 0.7071 -0.7071 0.7071 906.6145 -1238.1611)" class="st1" width="3" height="1143.5"/>
				</g>
			</g>
		</g>
	</g>
</g>
<g>
	<g>
		<defs>
			<polygon id="SVGID_3_" points="503,104.5 2012,89.6 2012.4,273 504.5,241 			"/>
		</defs>
		<clipPath id="SVGID_4_">
			<use xlink:href="#SVGID_3_"  style="overflow:visible;"/>
		</clipPath>
		<g class="st2">
			<g>
				<g>
					
						<rect x="-136.9" y="-96.5" transform="matrix(0.7071 0.7071 -0.7071 0.7071 296.43 234.9545)" class="st1" width="3" height="1143.5"/>
				</g>
				<g>
					
						<rect x="-121.6" y="-96.5" transform="matrix(0.7071 0.7071 -0.7071 0.7071 300.9114 224.1356)" class="st1" width="3" height="1143.5"/>
				</g>
				<g>
					
						<rect x="-106.3" y="-96.5" transform="matrix(0.7071 0.7071 -0.7071 0.7071 305.3926 213.317)" class="st1" width="3" height="1143.5"/>
				</g>
				<g>
					
						<rect x="-91" y="-96.5" transform="matrix(0.7071 0.7071 -0.7071 0.7071 309.8739 202.4982)" class="st1" width="3" height="1143.5"/>
				</g>
				<g>
					<polygon class="st1" points="-477.4,880.7 -479.6,878.5 -226.9,625.9 329,69.9 331.2,72.1 -224.7,628.1 					"/>
				</g>
				<g>
					
						<rect x="-60.3" y="-96.4" transform="matrix(0.7071 0.7071 -0.7071 0.7071 318.851 180.8254)" class="st1" width="3" height="1143.5"/>
				</g>
				<g>
					
						<rect x="-45" y="-96.5" transform="matrix(0.7071 0.7071 -0.7071 0.7071 323.347 169.9713)" class="st1" width="3" height="1143.5"/>
				</g>
				<g>
					
						<rect x="-29.7" y="-96.5" transform="matrix(0.7071 0.7071 -0.7071 0.7071 327.8282 159.1525)" class="st1" width="3" height="1143.5"/>
				</g>
				<g>
					
						<rect x="-14.4" y="-96.5" transform="matrix(0.7071 0.7071 -0.7071 0.7071 332.3094 148.3339)" class="st1" width="3" height="1143.5"/>
				</g>
				<g>
					
						<rect x="0.9" y="-96.5" transform="matrix(0.7071 0.7071 -0.7071 0.7071 336.7908 137.515)" class="st1" width="3" height="1143.5"/>
				</g>
				<g>
					
						<rect x="16.2" y="-96.5" transform="matrix(0.7071 0.7071 -0.7071 0.7071 341.272 126.6964)" class="st1" width="3" height="1143.5"/>
				</g>
				<g>
					
						<rect x="31.6" y="-96.5" transform="matrix(0.7071 0.7071 -0.7071 0.7071 345.7825 115.807)" class="st1" width="3" height="1143.5"/>
				</g>
				<g>
					
						<rect x="46.9" y="-96.5" transform="matrix(0.7071 0.7071 -0.7071 0.7071 350.2639 104.9881)" class="st1" width="3" height="1143.5"/>
				</g>
				<g>
					
						<rect x="62.2" y="-96.5" transform="matrix(0.7071 0.7071 -0.7071 0.7071 354.7451 94.1695)" class="st1" width="3" height="1143.5"/>
				</g>
				<g>
					
						<rect x="77.5" y="-96.5" transform="matrix(0.7071 0.7071 -0.7071 0.7071 359.2264 83.3507)" class="st1" width="3" height="1143.5"/>
				</g>
				<g>
					
						<rect x="92.8" y="-96.5" transform="matrix(0.7071 0.7071 -0.7071 0.7071 363.7077 72.5319)" class="st1" width="3" height="1143.5"/>
				</g>
				<g>
					
						<rect x="108.1" y="-96.5" transform="matrix(0.7071 0.7071 -0.7071 0.7071 368.1889 61.7133)" class="st1" width="3" height="1143.5"/>
				</g>
				<g>
					
						<rect x="123.5" y="-96.5" transform="matrix(0.7071 0.7071 -0.7071 0.7071 372.6995 50.8238)" class="st1" width="3" height="1143.5"/>
				</g>
				<g>
					
						<rect x="138.8" y="-96.5" transform="matrix(0.7071 0.7071 -0.7071 0.7071 377.1808 40.005)" class="st1" width="3" height="1143.5"/>
				</g>
				<g>
					
						<rect x="154.1" y="-96.5" transform="matrix(0.7071 0.7071 -0.7071 0.7071 381.662 29.1864)" class="st1" width="3" height="1143.5"/>
				</g>
				<g>
					
						<rect x="169.4" y="-96.5" transform="matrix(0.7071 0.7071 -0.7071 0.7071 386.1433 18.3675)" class="st1" width="3" height="1143.5"/>
				</g>
				<g>
					
						<rect x="184.7" y="-96.5" transform="matrix(0.7071 0.7071 -0.7071 0.7071 390.6245 7.5489)" class="st1" width="3" height="1143.5"/>
				</g>
				<g>
					
						<rect x="200" y="-96.5" transform="matrix(0.7071 0.7071 -0.7071 0.7071 395.1058 -3.2699)" class="st1" width="3" height="1143.5"/>
				</g>
				<g>
					
						<rect x="215.4" y="-96.5" transform="matrix(0.7071 0.7071 -0.7071 0.7071 399.6164 -14.1594)" class="st1" width="3" height="1143.5"/>
				</g>
				<g>
					
						<rect x="230.7" y="-96.5" transform="matrix(0.7071 0.7071 -0.7071 0.7071 404.0976 -24.978)" class="st1" width="3" height="1143.5"/>
				</g>
				<g>
					
						<rect x="246" y="-96.5" transform="matrix(0.7071 0.7071 -0.7071 0.7071 408.5789 -35.7968)" class="st1" width="3" height="1143.5"/>
				</g>
				<g>
					
						<rect x="261.3" y="-96.5" transform="matrix(0.7071 0.7071 -0.7071 0.7071 413.0602 -46.6156)" class="st1" width="3" height="1143.5"/>
				</g>
				<g>
					
						<rect x="276.6" y="-96.5" transform="matrix(0.7071 0.7071 -0.7071 0.7071 417.5414 -57.4342)" class="st1" width="3" height="1143.5"/>
				</g>
				<g>
					
						<rect x="292" y="-96.4" transform="matrix(0.7071 0.7071 -0.7071 0.7071 422.0374 -68.2885)" class="st1" width="3" height="1143.5"/>
				</g>
				<g>
					
						<rect x="307.3" y="-96.5" transform="matrix(0.7071 0.7071 -0.7071 0.7071 426.5333 -79.1425)" class="st1" width="3" height="1143.5"/>
				</g>
				<g>
					
						<rect x="322.6" y="-96.5" transform="matrix(0.7071 0.7071 -0.7071 0.7071 431.0145 -89.9611)" class="st1" width="3" height="1143.5"/>
				</g>
				<g>
					
						<rect x="337.9" y="-96.5" transform="matrix(0.7071 0.7071 -0.7071 0.7071 435.4958 -100.78)" class="st1" width="3" height="1143.5"/>
				</g>
				<g>
					
						<rect x="353.2" y="-96.5" transform="matrix(0.7071 0.7071 -0.7071 0.7071 439.977 -111.5986)" class="st1" width="3" height="1143.5"/>
				</g>
				<g>
					
						<rect x="368.5" y="-96.5" transform="matrix(0.7071 0.7071 -0.7071 0.7071 444.4583 -122.4174)" class="st1" width="3" height="1143.5"/>
				</g>
				<g>
					
						<rect x="383.9" y="-96.5" transform="matrix(0.7071 0.7071 -0.7071 0.7071 448.9689 -133.3069)" class="st1" width="3" height="1143.5"/>
				</g>
				<g>
					
						<rect x="399.2" y="-96.5" transform="matrix(0.7071 0.7071 -0.7071 0.7071 453.4501 -144.1255)" class="st1" width="3" height="1143.5"/>
				</g>
				<g>
					
						<rect x="414.5" y="-96.5" transform="matrix(0.7071 0.7071 -0.7071 0.7071 457.9314 -154.9443)" class="st1" width="3" height="1143.5"/>
				</g>
				<g>
					
						<rect x="429.8" y="-96.5" transform="matrix(0.7071 0.7071 -0.7071 0.7071 462.4127 -165.7631)" class="st1" width="3" height="1143.5"/>
				</g>
				<g>
					
						<rect x="445.1" y="-96.5" transform="matrix(0.7071 0.7071 -0.7071 0.7071 466.8939 -176.5816)" class="st1" width="3" height="1143.5"/>
				</g>
				<g>
					
						<rect x="460.4" y="-96.5" transform="matrix(0.7071 0.7071 -0.7071 0.7071 471.3752 -187.4006)" class="st1" width="3" height="1143.5"/>
				</g>
				<g>
					
						<rect x="475.8" y="-96.5" transform="matrix(0.7071 0.7071 -0.7071 0.7071 475.8858 -198.29)" class="st1" width="3" height="1143.5"/>
				</g>
				<g>
					
						<rect x="491.1" y="-96.5" transform="matrix(0.7071 0.7071 -0.7071 0.7071 480.367 -209.1086)" class="st1" width="3" height="1143.5"/>
				</g>
				<g>
					
						<rect x="506.4" y="-96.5" transform="matrix(0.7071 0.7071 -0.7071 0.7071 484.8483 -219.9275)" class="st1" width="3" height="1143.5"/>
				</g>
				<g>
					
						<rect x="521.7" y="-96.5" transform="matrix(0.7071 0.7071 -0.7071 0.7071 489.3295 -230.7461)" class="st1" width="3" height="1143.5"/>
				</g>
				<g>
					
						<rect x="552.3" y="-96.5" transform="matrix(0.7071 0.7071 -0.7071 0.7071 498.2921 -252.3836)" class="st1" width="3" height="1143.5"/>
				</g>
				<g>
					
						<rect x="537" y="-96.5" transform="matrix(0.7071 0.7071 -0.7071 0.7071 493.8108 -241.5649)" class="st1" width="3" height="1143.5"/>
				</g>
			</g>
			<g>
				<g>
					
						<rect x="567.8" y="-96.5" transform="matrix(0.7071 0.7071 -0.7071 0.7071 502.8319 -263.3438)" class="st1" width="3" height="1143.5"/>
				</g>
				<g>
					
						<rect x="583.1" y="-96.5" transform="matrix(0.7071 0.7071 -0.7071 0.7071 507.3131 -274.1624)" class="st1" width="3" height="1143.5"/>
				</g>
				<g>
					
						<rect x="598.4" y="-96.5" transform="matrix(0.7071 0.7071 -0.7071 0.7071 511.7945 -284.9813)" class="st1" width="3" height="1143.5"/>
				</g>
				<g>
					
						<rect x="613.7" y="-96.5" transform="matrix(0.7071 0.7071 -0.7071 0.7071 516.2757 -295.7999)" class="st1" width="3" height="1143.5"/>
				</g>
				<g>
					<polygon class="st1" points="227.3,880.7 225.1,878.5 477.8,625.9 1033.7,69.9 1035.9,72.1 480,628.1 					"/>
				</g>
				<g>
					
						<rect x="644.4" y="-96.5" transform="matrix(0.7071 0.7071 -0.7071 0.7071 525.2676 -317.5082)" class="st1" width="3" height="1143.5"/>
				</g>
				<g>
					
						<rect x="659.7" y="-96.5" transform="matrix(0.7071 0.7071 -0.7071 0.7071 529.7488 -328.3268)" class="st1" width="3" height="1143.5"/>
				</g>
				<g>
					
						<rect x="675" y="-96.5" transform="matrix(0.7071 0.7071 -0.7071 0.7071 534.2301 -339.1456)" class="st1" width="3" height="1143.5"/>
				</g>
				<g>
					
						<rect x="690.3" y="-96.5" transform="matrix(0.7071 0.7071 -0.7071 0.7071 538.7114 -349.9644)" class="st1" width="3" height="1143.5"/>
				</g>
				<g>
					
						<rect x="705.6" y="-96.5" transform="matrix(0.7071 0.7071 -0.7071 0.7071 543.1926 -360.783)" class="st1" width="3" height="1143.5"/>
				</g>
				<g>
					
						<rect x="720.9" y="-96.5" transform="matrix(0.7071 0.7071 -0.7071 0.7071 547.674 -371.6019)" class="st1" width="3" height="1143.5"/>
				</g>
				<g>
					
						<rect x="736.3" y="-96.5" transform="matrix(0.7071 0.7071 -0.7071 0.7071 552.1844 -382.4913)" class="st1" width="3" height="1143.5"/>
				</g>
				<g>
					
						<rect x="751.6" y="-96.5" transform="matrix(0.7071 0.7071 -0.7071 0.7071 556.6656 -393.3099)" class="st1" width="3" height="1143.5"/>
				</g>
				<g>
					
						<rect x="766.9" y="-96.5" transform="matrix(0.7071 0.7071 -0.7071 0.7071 561.147 -404.1288)" class="st1" width="3" height="1143.5"/>
				</g>
				<g>
					
						<rect x="782.2" y="-96.5" transform="matrix(0.7071 0.7071 -0.7071 0.7071 565.6282 -414.9474)" class="st1" width="3" height="1143.5"/>
				</g>
				<g>
					
						<rect x="797.5" y="-96.5" transform="matrix(0.7071 0.7071 -0.7071 0.7071 570.1095 -425.7662)" class="st1" width="3" height="1143.5"/>
				</g>
				<g>
					
						<rect x="812.9" y="-96.4" transform="matrix(0.7071 0.7071 -0.7071 0.7071 574.6055 -436.6203)" class="st1" width="3" height="1143.5"/>
				</g>
				<g>
					
						<rect x="828.2" y="-96.5" transform="matrix(0.7071 0.7071 -0.7071 0.7071 579.1013 -447.4743)" class="st1" width="3" height="1143.5"/>
				</g>
				<g>
					
						<rect x="843.5" y="-96.5" transform="matrix(0.7071 0.7071 -0.7071 0.7071 583.5826 -458.2931)" class="st1" width="3" height="1143.5"/>
				</g>
				<g>
					
						<rect x="858.8" y="-96.5" transform="matrix(0.7071 0.7071 -0.7071 0.7071 588.0638 -469.1117)" class="st1" width="3" height="1143.5"/>
				</g>
				<g>
					
						<rect x="874.1" y="-96.5" transform="matrix(0.7071 0.7071 -0.7071 0.7071 592.5452 -479.9306)" class="st1" width="3" height="1143.5"/>
				</g>
				<g>
					
						<rect x="889.4" y="-96.5" transform="matrix(0.7071 0.7071 -0.7071 0.7071 597.0264 -490.7494)" class="st1" width="3" height="1143.5"/>
				</g>
				<g>
					
						<rect x="904.8" y="-96.5" transform="matrix(0.7071 0.7071 -0.7071 0.7071 601.5369 -501.6386)" class="st1" width="3" height="1143.5"/>
				</g>
				<g>
					
						<rect x="920.1" y="-96.5" transform="matrix(0.7071 0.7071 -0.7071 0.7071 606.0182 -512.4575)" class="st1" width="3" height="1143.5"/>
				</g>
				<g>
					
						<rect x="935.4" y="-96.5" transform="matrix(0.7071 0.7071 -0.7071 0.7071 610.4995 -523.2763)" class="st1" width="3" height="1143.5"/>
				</g>
				<g>
					
						<rect x="950.7" y="-96.5" transform="matrix(0.7071 0.7071 -0.7071 0.7071 614.9807 -534.0949)" class="st1" width="3" height="1143.5"/>
				</g>
				<g>
					
						<rect x="966" y="-96.5" transform="matrix(0.7071 0.7071 -0.7071 0.7071 619.462 -544.9137)" class="st1" width="3" height="1143.5"/>
				</g>
				<g>
					
						<rect x="981.3" y="-96.5" transform="matrix(0.7071 0.7071 -0.7071 0.7071 623.9432 -555.7323)" class="st1" width="3" height="1143.5"/>
				</g>
				<g>
					
						<rect x="996.7" y="-96.5" transform="matrix(0.7071 0.7071 -0.7071 0.7071 628.4538 -566.6218)" class="st1" width="3" height="1143.5"/>
				</g>
				<g>
					
						<rect x="1012" y="-96.5" transform="matrix(0.7071 0.7071 -0.7071 0.7071 632.9351 -577.4406)" class="st1" width="3" height="1143.5"/>
				</g>
				<g>
					
						<rect x="1027.3" y="-96.5" transform="matrix(0.7071 0.7071 -0.7071 0.7071 637.4163 -588.2592)" class="st1" width="3" height="1143.5"/>
				</g>
				<g>
					
						<rect x="1042.6" y="-96.5" transform="matrix(0.7071 0.7071 -0.7071 0.7071 641.8976 -599.0781)" class="st1" width="3" height="1143.5"/>
				</g>
				<g>
					
						<rect x="1057.9" y="-96.5" transform="matrix(0.7071 0.7071 -0.7071 0.7071 646.379 -609.8969)" class="st1" width="3" height="1143.5"/>
				</g>
				<g>
					
						<rect x="1073.2" y="-96.5" transform="matrix(0.7071 0.7071 -0.7071 0.7071 650.8602 -620.7155)" class="st1" width="3" height="1143.5"/>
				</g>
				<g>
					
						<rect x="1088.6" y="-96.5" transform="matrix(0.7071 0.7071 -0.7071 0.7071 655.3707 -631.605)" class="st1" width="3" height="1143.5"/>
				</g>
				<g>
					
						<rect x="1103.9" y="-96.5" transform="matrix(0.7071 0.7071 -0.7071 0.7071 659.8521 -642.4238)" class="st1" width="3" height="1143.5"/>
				</g>
				<g>
					
						<rect x="1119.2" y="-96.5" transform="matrix(0.7071 0.7071 -0.7071 0.7071 664.3333 -653.2424)" class="st1" width="3" height="1143.5"/>
				</g>
				<g>
					
						<rect x="1134.5" y="-96.5" transform="matrix(0.7071 0.7071 -0.7071 0.7071 668.8145 -664.0612)" class="st1" width="3" height="1143.5"/>
				</g>
				<g>
					
						<rect x="1149.8" y="-96.5" transform="matrix(0.7071 0.7071 -0.7071 0.7071 673.2957 -674.8798)" class="st1" width="3" height="1143.5"/>
				</g>
				<g>
					
						<rect x="1165.2" y="-96.4" transform="matrix(0.7071 0.7071 -0.7071 0.7071 677.7917 -685.7341)" class="st1" width="3" height="1143.5"/>
				</g>
				<g>
					
						<rect x="1180.5" y="-96.5" transform="matrix(0.7071 0.7071 -0.7071 0.7071 682.2876 -696.5881)" class="st1" width="3" height="1143.5"/>
				</g>
				<g>
					
						<rect x="1195.8" y="-96.5" transform="matrix(0.7071 0.7071 -0.7071 0.7071 686.7688 -707.4067)" class="st1" width="3" height="1143.5"/>
				</g>
				<g>
					
						<rect x="1211.1" y="-96.5" transform="matrix(0.7071 0.7071 -0.7071 0.7071 691.2502 -718.2256)" class="st1" width="3" height="1143.5"/>
				</g>
				<g>
					
						<rect x="1226.4" y="-96.5" transform="matrix(0.7071 0.7071 -0.7071 0.7071 695.7314 -729.0444)" class="st1" width="3" height="1143.5"/>
				</g>
				<g>
					
						<rect x="1257.1" y="-96.5" transform="matrix(0.7071 0.7071 -0.7071 0.7071 704.7233 -750.7525)" class="st1" width="3" height="1143.5"/>
				</g>
				<g>
					
						<rect x="1241.7" y="-96.5" transform="matrix(0.7071 0.7071 -0.7071 0.7071 700.2126 -739.863)" class="st1" width="3" height="1143.5"/>
				</g>
			</g>
			<g>
				<g>
					
						<rect x="1272.4" y="-96.5" transform="matrix(0.7071 0.7071 -0.7071 0.7071 709.2045 -761.5713)" class="st1" width="3" height="1143.5"/>
				</g>
				<g>
					
						<rect x="1287.7" y="-96.5" transform="matrix(0.7071 0.7071 -0.7071 0.7071 713.6857 -772.3899)" class="st1" width="3" height="1143.5"/>
				</g>
				<g>
					
						<rect x="1303.1" y="-96.5" transform="matrix(0.7071 0.7071 -0.7071 0.7071 718.1964 -783.2794)" class="st1" width="3" height="1143.5"/>
				</g>
				<g>
					
						<rect x="1318.4" y="-96.5" transform="matrix(0.7071 0.7071 -0.7071 0.7071 722.6776 -794.0982)" class="st1" width="3" height="1143.5"/>
				</g>
				<g>
					
						<rect x="1333.7" y="-96.5" transform="matrix(0.7071 0.7071 -0.7071 0.7071 727.1588 -804.9168)" class="st1" width="3" height="1143.5"/>
				</g>
				<g>
					
						<rect x="1349" y="-96.5" transform="matrix(0.7071 0.7071 -0.7071 0.7071 731.6401 -815.7356)" class="st1" width="3" height="1143.5"/>
				</g>
				<g>
					
						<rect x="1364.3" y="-96.5" transform="matrix(0.7071 0.7071 -0.7071 0.7071 736.1213 -826.5542)" class="st1" width="3" height="1143.5"/>
				</g>
				<g>
					
						<rect x="1379.6" y="-96.5" transform="matrix(0.7071 0.7071 -0.7071 0.7071 740.6027 -837.3731)" class="st1" width="3" height="1143.5"/>
				</g>
				<g>
					
						<rect x="1395" y="-96.5" transform="matrix(0.7071 0.7071 -0.7071 0.7071 745.1132 -848.2625)" class="st1" width="3" height="1143.5"/>
				</g>
				<g>
					
						<rect x="1410.3" y="-96.5" transform="matrix(0.7071 0.7071 -0.7071 0.7071 749.5944 -859.0811)" class="st1" width="3" height="1143.5"/>
				</g>
				<g>
					
						<rect x="1425.6" y="-96.5" transform="matrix(0.7071 0.7071 -0.7071 0.7071 754.0757 -869.9)" class="st1" width="3" height="1143.5"/>
				</g>
				<g>
					
						<rect x="1440.9" y="-96.5" transform="matrix(0.7071 0.7071 -0.7071 0.7071 758.5571 -880.7188)" class="st1" width="3" height="1143.5"/>
				</g>
				<g>
					
						<rect x="1456.2" y="-96.5" transform="matrix(0.7071 0.7071 -0.7071 0.7071 763.0383 -891.5374)" class="st1" width="3" height="1143.5"/>
				</g>
				<g>
					
						<rect x="1471.5" y="-96.4" transform="matrix(0.7071 0.7071 -0.7071 0.7071 767.5341 -902.3914)" class="st1" width="3" height="1143.5"/>
				</g>
				<g>
					
						<rect x="1486.9" y="-96.5" transform="matrix(0.7071 0.7071 -0.7071 0.7071 772.0302 -913.2457)" class="st1" width="3" height="1143.5"/>
				</g>
				<g>
					
						<rect x="1502.2" y="-96.5" transform="matrix(0.7071 0.7071 -0.7071 0.7071 776.5114 -924.0643)" class="st1" width="3" height="1143.5"/>
				</g>
				<g>
					
						<rect x="1517.5" y="-96.5" transform="matrix(0.7071 0.7071 -0.7071 0.7071 780.9926 -934.8831)" class="st1" width="3" height="1143.5"/>
				</g>
				<g>
					
						<rect x="1532.8" y="-96.5" transform="matrix(0.7071 0.7071 -0.7071 0.7071 785.4738 -945.7017)" class="st1" width="3" height="1143.5"/>
				</g>
				<g>
					
						<rect x="1548.1" y="-96.5" transform="matrix(0.7071 0.7071 -0.7071 0.7071 789.9552 -956.5206)" class="st1" width="3" height="1143.5"/>
				</g>
				<g>
					
						<rect x="1563.5" y="-96.5" transform="matrix(0.7071 0.7071 -0.7071 0.7071 794.4657 -967.41)" class="st1" width="3" height="1143.5"/>
				</g>
				<g>
					
						<rect x="1578.8" y="-96.5" transform="matrix(0.7071 0.7071 -0.7071 0.7071 798.9469 -978.2286)" class="st1" width="3" height="1143.5"/>
				</g>
				<g>
					
						<rect x="1594.1" y="-96.5" transform="matrix(0.7071 0.7071 -0.7071 0.7071 803.4283 -989.0475)" class="st1" width="3" height="1143.5"/>
				</g>
				<g>
					
						<rect x="1609.4" y="-96.5" transform="matrix(0.7071 0.7071 -0.7071 0.7071 807.9095 -999.8663)" class="st1" width="3" height="1143.5"/>
				</g>
				<g>
					
						<rect x="1624.7" y="-96.5" transform="matrix(0.7071 0.7071 -0.7071 0.7071 812.3907 -1010.6849)" class="st1" width="3" height="1143.5"/>
				</g>
				<g>
					
						<rect x="1640" y="-96.5" transform="matrix(0.7071 0.7071 -0.7071 0.7071 816.8721 -1021.5037)" class="st1" width="3" height="1143.5"/>
				</g>
				<g>
					
						<rect x="1655.4" y="-96.5" transform="matrix(0.7071 0.7071 -0.7071 0.7071 821.3826 -1032.3932)" class="st1" width="3" height="1143.5"/>
				</g>
				<g>
					
						<rect x="1670.7" y="-96.5" transform="matrix(0.7071 0.7071 -0.7071 0.7071 825.8639 -1043.2119)" class="st1" width="3" height="1143.5"/>
				</g>
				<g>
					
						<rect x="1686" y="-96.5" transform="matrix(0.7071 0.7071 -0.7071 0.7071 830.3452 -1054.0305)" class="st1" width="3" height="1143.5"/>
				</g>
				<g>
					
						<rect x="1701.3" y="-96.5" transform="matrix(0.7071 0.7071 -0.7071 0.7071 834.8264 -1064.8491)" class="st1" width="3" height="1143.5"/>
				</g>
				<g>
					
						<rect x="1716.6" y="-96.5" transform="matrix(0.7071 0.7071 -0.7071 0.7071 839.3077 -1075.6681)" class="st1" width="3" height="1143.5"/>
				</g>
				<g>
					
						<rect x="1731.9" y="-96.5" transform="matrix(0.7071 0.7071 -0.7071 0.7071 843.7889 -1086.4867)" class="st1" width="3" height="1143.5"/>
				</g>
				<g>
					
						<rect x="1747.3" y="-96.5" transform="matrix(0.7071 0.7071 -0.7071 0.7071 848.2994 -1097.3761)" class="st1" width="3" height="1143.5"/>
				</g>
				<g>
					
						<rect x="1762.6" y="-96.5" transform="matrix(0.7071 0.7071 -0.7071 0.7071 852.7808 -1108.1951)" class="st1" width="3" height="1143.5"/>
				</g>
				<g>
					
						<rect x="1777.9" y="-96.5" transform="matrix(0.7071 0.7071 -0.7071 0.7071 857.262 -1119.0135)" class="st1" width="3" height="1143.5"/>
				</g>
				<g>
					
						<rect x="1793.2" y="-96.5" transform="matrix(0.7071 0.7071 -0.7071 0.7071 861.7433 -1129.8325)" class="st1" width="3" height="1143.5"/>
				</g>
				<g>
					
						<rect x="1808.5" y="-96.5" transform="matrix(0.7071 0.7071 -0.7071 0.7071 866.2245 -1140.6511)" class="st1" width="3" height="1143.5"/>
				</g>
				<g>
					
						<rect x="1823.8" y="-96.4" transform="matrix(0.7071 0.7071 -0.7071 0.7071 870.7203 -1151.505)" class="st1" width="3" height="1143.5"/>
				</g>
				<g>
					
						<rect x="1839.2" y="-96.5" transform="matrix(0.7071 0.7071 -0.7071 0.7071 875.2164 -1162.3595)" class="st1" width="3" height="1143.5"/>
				</g>
				<g>
					
						<rect x="1854.5" y="-96.5" transform="matrix(0.7071 0.7071 -0.7071 0.7071 879.6976 -1173.1781)" class="st1" width="3" height="1143.5"/>
				</g>
				<g>
					
						<rect x="1869.8" y="-96.5" transform="matrix(0.7071 0.7071 -0.7071 0.7071 884.1788 -1183.9967)" class="st1" width="3" height="1143.5"/>
				</g>
				<g>
					
						<rect x="1885.1" y="-96.5" transform="matrix(0.7071 0.7071 -0.7071 0.7071 888.6602 -1194.8156)" class="st1" width="3" height="1143.5"/>
				</g>
				<g>
					
						<rect x="1900.4" y="-96.5" transform="matrix(0.7071 0.7071 -0.7071 0.7071 893.1414 -1205.6342)" class="st1" width="3" height="1143.5"/>
				</g>
				<g>
					
						<rect x="1915.8" y="-96.5" transform="matrix(0.7071 0.7071 -0.7071 0.7071 897.6519 -1216.5236)" class="st1" width="3" height="1143.5"/>
				</g>
				<g>
					
						<rect x="1931.1" y="-96.5" transform="matrix(0.7071 0.7071 -0.7071 0.7071 902.1333 -1227.3425)" class="st1" width="3" height="1143.5"/>
				</g>
				<g>
					
						<rect x="1961.7" y="-96.5" transform="matrix(0.7071 0.7071 -0.7071 0.7071 911.0958 -1248.98)" class="st1" width="3" height="1143.5"/>
				</g>
				<g>
					
						<rect x="1946.4" y="-96.5" transform="matrix(0.7071 0.7071 -0.7071 0.7071 906.6145 -1238.1611)" class="st1" width="3" height="1143.5"/>
				</g>
			</g>
		</g>
	</g>
</g>
<g>
	<g>
		<defs>
			<polygon id="SVGID_5_" points="503,104.5 2012,89.6 2012.4,273 504.5,241 			"/>
		</defs>
		<clipPath id="SVGID_6_">
			<use xlink:href="#SVGID_5_"  style="overflow:visible;"/>
		</clipPath>
		<g class="st3">
			<g>
				<g>
					
						<rect x="-136.9" y="-96.5" transform="matrix(0.7071 0.7071 -0.7071 0.7071 296.43 234.9545)" class="st4" width="3" height="1143.5"/>
				</g>
				<g>
					
						<rect x="-121.6" y="-96.5" transform="matrix(0.7071 0.7071 -0.7071 0.7071 300.9114 224.1356)" class="st4" width="3" height="1143.5"/>
				</g>
				<g>
					
						<rect x="-106.3" y="-96.5" transform="matrix(0.7071 0.7071 -0.7071 0.7071 305.3926 213.317)" class="st4" width="3" height="1143.5"/>
				</g>
				<g>
					
						<rect x="-91" y="-96.5" transform="matrix(0.7071 0.7071 -0.7071 0.7071 309.8739 202.4982)" class="st4" width="3" height="1143.5"/>
				</g>
				<g>
					<polygon class="st4" points="-477.4,880.7 -479.6,878.5 -226.9,625.9 329,69.9 331.2,72.1 -224.7,628.1 					"/>
				</g>
				<g>
					
						<rect x="-60.3" y="-96.4" transform="matrix(0.7071 0.7071 -0.7071 0.7071 318.851 180.8254)" class="st4" width="3" height="1143.5"/>
				</g>
				<g>
					
						<rect x="-45" y="-96.5" transform="matrix(0.7071 0.7071 -0.7071 0.7071 323.347 169.9713)" class="st4" width="3" height="1143.5"/>
				</g>
				<g>
					
						<rect x="-29.7" y="-96.5" transform="matrix(0.7071 0.7071 -0.7071 0.7071 327.8282 159.1525)" class="st4" width="3" height="1143.5"/>
				</g>
				<g>
					
						<rect x="-14.4" y="-96.5" transform="matrix(0.7071 0.7071 -0.7071 0.7071 332.3094 148.3339)" class="st4" width="3" height="1143.5"/>
				</g>
				<g>
					
						<rect x="0.9" y="-96.5" transform="matrix(0.7071 0.7071 -0.7071 0.7071 336.7908 137.515)" class="st4" width="3" height="1143.5"/>
				</g>
				<g>
					
						<rect x="16.2" y="-96.5" transform="matrix(0.7071 0.7071 -0.7071 0.7071 341.272 126.6964)" class="st4" width="3" height="1143.5"/>
				</g>
				<g>
					
						<rect x="31.6" y="-96.5" transform="matrix(0.7071 0.7071 -0.7071 0.7071 345.7825 115.807)" class="st4" width="3" height="1143.5"/>
				</g>
				<g>
					
						<rect x="46.9" y="-96.5" transform="matrix(0.7071 0.7071 -0.7071 0.7071 350.2639 104.9881)" class="st4" width="3" height="1143.5"/>
				</g>
				<g>
					
						<rect x="62.2" y="-96.5" transform="matrix(0.7071 0.7071 -0.7071 0.7071 354.7451 94.1695)" class="st4" width="3" height="1143.5"/>
				</g>
				<g>
					
						<rect x="77.5" y="-96.5" transform="matrix(0.7071 0.7071 -0.7071 0.7071 359.2264 83.3507)" class="st4" width="3" height="1143.5"/>
				</g>
				<g>
					
						<rect x="92.8" y="-96.5" transform="matrix(0.7071 0.7071 -0.7071 0.7071 363.7077 72.5319)" class="st4" width="3" height="1143.5"/>
				</g>
				<g>
					
						<rect x="108.1" y="-96.5" transform="matrix(0.7071 0.7071 -0.7071 0.7071 368.1889 61.7133)" class="st4" width="3" height="1143.5"/>
				</g>
				<g>
					
						<rect x="123.5" y="-96.5" transform="matrix(0.7071 0.7071 -0.7071 0.7071 372.6995 50.8238)" class="st4" width="3" height="1143.5"/>
				</g>
				<g>
					
						<rect x="138.8" y="-96.5" transform="matrix(0.7071 0.7071 -0.7071 0.7071 377.1808 40.005)" class="st4" width="3" height="1143.5"/>
				</g>
				<g>
					
						<rect x="154.1" y="-96.5" transform="matrix(0.7071 0.7071 -0.7071 0.7071 381.662 29.1864)" class="st4" width="3" height="1143.5"/>
				</g>
				<g>
					
						<rect x="169.4" y="-96.5" transform="matrix(0.7071 0.7071 -0.7071 0.7071 386.1433 18.3675)" class="st4" width="3" height="1143.5"/>
				</g>
				<g>
					
						<rect x="184.7" y="-96.5" transform="matrix(0.7071 0.7071 -0.7071 0.7071 390.6245 7.5489)" class="st4" width="3" height="1143.5"/>
				</g>
				<g>
					
						<rect x="200" y="-96.5" transform="matrix(0.7071 0.7071 -0.7071 0.7071 395.1058 -3.2699)" class="st4" width="3" height="1143.5"/>
				</g>
				<g>
					
						<rect x="215.4" y="-96.5" transform="matrix(0.7071 0.7071 -0.7071 0.7071 399.6164 -14.1594)" class="st4" width="3" height="1143.5"/>
				</g>
				<g>
					
						<rect x="230.7" y="-96.5" transform="matrix(0.7071 0.7071 -0.7071 0.7071 404.0976 -24.978)" class="st4" width="3" height="1143.5"/>
				</g>
				<g>
					
						<rect x="246" y="-96.5" transform="matrix(0.7071 0.7071 -0.7071 0.7071 408.5789 -35.7968)" class="st4" width="3" height="1143.5"/>
				</g>
				<g>
					
						<rect x="261.3" y="-96.5" transform="matrix(0.7071 0.7071 -0.7071 0.7071 413.0602 -46.6156)" class="st4" width="3" height="1143.5"/>
				</g>
				<g>
					
						<rect x="276.6" y="-96.5" transform="matrix(0.7071 0.7071 -0.7071 0.7071 417.5414 -57.4342)" class="st4" width="3" height="1143.5"/>
				</g>
				<g>
					
						<rect x="292" y="-96.4" transform="matrix(0.7071 0.7071 -0.7071 0.7071 422.0374 -68.2885)" class="st4" width="3" height="1143.5"/>
				</g>
				<g>
					
						<rect x="307.3" y="-96.5" transform="matrix(0.7071 0.7071 -0.7071 0.7071 426.5333 -79.1425)" class="st4" width="3" height="1143.5"/>
				</g>
				<g>
					
						<rect x="322.6" y="-96.5" transform="matrix(0.7071 0.7071 -0.7071 0.7071 431.0145 -89.9611)" class="st4" width="3" height="1143.5"/>
				</g>
				<g>
					
						<rect x="337.9" y="-96.5" transform="matrix(0.7071 0.7071 -0.7071 0.7071 435.4958 -100.78)" class="st4" width="3" height="1143.5"/>
				</g>
				<g>
					
						<rect x="353.2" y="-96.5" transform="matrix(0.7071 0.7071 -0.7071 0.7071 439.977 -111.5986)" class="st4" width="3" height="1143.5"/>
				</g>
				<g>
					
						<rect x="368.5" y="-96.5" transform="matrix(0.7071 0.7071 -0.7071 0.7071 444.4583 -122.4174)" class="st4" width="3" height="1143.5"/>
				</g>
				<g>
					
						<rect x="383.9" y="-96.5" transform="matrix(0.7071 0.7071 -0.7071 0.7071 448.9689 -133.3069)" class="st4" width="3" height="1143.5"/>
				</g>
				<g>
					
						<rect x="399.2" y="-96.5" transform="matrix(0.7071 0.7071 -0.7071 0.7071 453.4501 -144.1255)" class="st4" width="3" height="1143.5"/>
				</g>
				<g>
					
						<rect x="414.5" y="-96.5" transform="matrix(0.7071 0.7071 -0.7071 0.7071 457.9314 -154.9443)" class="st4" width="3" height="1143.5"/>
				</g>
				<g>
					
						<rect x="429.8" y="-96.5" transform="matrix(0.7071 0.7071 -0.7071 0.7071 462.4127 -165.7631)" class="st4" width="3" height="1143.5"/>
				</g>
				<g>
					
						<rect x="445.1" y="-96.5" transform="matrix(0.7071 0.7071 -0.7071 0.7071 466.8939 -176.5816)" class="st4" width="3" height="1143.5"/>
				</g>
				<g>
					
						<rect x="460.4" y="-96.5" transform="matrix(0.7071 0.7071 -0.7071 0.7071 471.3752 -187.4006)" class="st4" width="3" height="1143.5"/>
				</g>
				<g>
					
						<rect x="475.8" y="-96.5" transform="matrix(0.7071 0.7071 -0.7071 0.7071 475.8858 -198.29)" class="st4" width="3" height="1143.5"/>
				</g>
				<g>
					
						<rect x="491.1" y="-96.5" transform="matrix(0.7071 0.7071 -0.7071 0.7071 480.367 -209.1086)" class="st4" width="3" height="1143.5"/>
				</g>
				<g>
					
						<rect x="506.4" y="-96.5" transform="matrix(0.7071 0.7071 -0.7071 0.7071 484.8483 -219.9275)" class="st4" width="3" height="1143.5"/>
				</g>
				<g>
					
						<rect x="521.7" y="-96.5" transform="matrix(0.7071 0.7071 -0.7071 0.7071 489.3295 -230.7461)" class="st4" width="3" height="1143.5"/>
				</g>
				<g>
					
						<rect x="552.3" y="-96.5" transform="matrix(0.7071 0.7071 -0.7071 0.7071 498.2921 -252.3836)" class="st4" width="3" height="1143.5"/>
				</g>
				<g>
					
						<rect x="537" y="-96.5" transform="matrix(0.7071 0.7071 -0.7071 0.7071 493.8108 -241.5649)" class="st4" width="3" height="1143.5"/>
				</g>
			</g>
			<g>
				<g>
					
						<rect x="567.8" y="-96.5" transform="matrix(0.7071 0.7071 -0.7071 0.7071 502.8319 -263.3438)" class="st4" width="3" height="1143.5"/>
				</g>
				<g>
					
						<rect x="583.1" y="-96.5" transform="matrix(0.7071 0.7071 -0.7071 0.7071 507.3131 -274.1624)" class="st4" width="3" height="1143.5"/>
				</g>
				<g>
					
						<rect x="598.4" y="-96.5" transform="matrix(0.7071 0.7071 -0.7071 0.7071 511.7945 -284.9813)" class="st4" width="3" height="1143.5"/>
				</g>
				<g>
					
						<rect x="613.7" y="-96.5" transform="matrix(0.7071 0.7071 -0.7071 0.7071 516.2757 -295.7999)" class="st4" width="3" height="1143.5"/>
				</g>
				<g>
					<polygon class="st4" points="227.3,880.7 225.1,878.5 477.8,625.9 1033.7,69.9 1035.9,72.1 480,628.1 					"/>
				</g>
				<g>
					
						<rect x="644.4" y="-96.5" transform="matrix(0.7071 0.7071 -0.7071 0.7071 525.2676 -317.5082)" class="st4" width="3" height="1143.5"/>
				</g>
				<g>
					
						<rect x="659.7" y="-96.5" transform="matrix(0.7071 0.7071 -0.7071 0.7071 529.7488 -328.3268)" class="st4" width="3" height="1143.5"/>
				</g>
				<g>
					
						<rect x="675" y="-96.5" transform="matrix(0.7071 0.7071 -0.7071 0.7071 534.2301 -339.1456)" class="st4" width="3" height="1143.5"/>
				</g>
				<g>
					
						<rect x="690.3" y="-96.5" transform="matrix(0.7071 0.7071 -0.7071 0.7071 538.7114 -349.9644)" class="st4" width="3" height="1143.5"/>
				</g>
				<g>
					
						<rect x="705.6" y="-96.5" transform="matrix(0.7071 0.7071 -0.7071 0.7071 543.1926 -360.783)" class="st4" width="3" height="1143.5"/>
				</g>
				<g>
					
						<rect x="720.9" y="-96.5" transform="matrix(0.7071 0.7071 -0.7071 0.7071 547.674 -371.6019)" class="st4" width="3" height="1143.5"/>
				</g>
				<g>
					
						<rect x="736.3" y="-96.5" transform="matrix(0.7071 0.7071 -0.7071 0.7071 552.1844 -382.4913)" class="st4" width="3" height="1143.5"/>
				</g>
				<g>
					
						<rect x="751.6" y="-96.5" transform="matrix(0.7071 0.7071 -0.7071 0.7071 556.6656 -393.3099)" class="st4" width="3" height="1143.5"/>
				</g>
				<g>
					
						<rect x="766.9" y="-96.5" transform="matrix(0.7071 0.7071 -0.7071 0.7071 561.147 -404.1288)" class="st4" width="3" height="1143.5"/>
				</g>
				<g>
					
						<rect x="782.2" y="-96.5" transform="matrix(0.7071 0.7071 -0.7071 0.7071 565.6282 -414.9474)" class="st4" width="3" height="1143.5"/>
				</g>
				<g>
					
						<rect x="797.5" y="-96.5" transform="matrix(0.7071 0.7071 -0.7071 0.7071 570.1095 -425.7662)" class="st4" width="3" height="1143.5"/>
				</g>
				<g>
					
						<rect x="812.9" y="-96.4" transform="matrix(0.7071 0.7071 -0.7071 0.7071 574.6055 -436.6203)" class="st4" width="3" height="1143.5"/>
				</g>
				<g>
					
						<rect x="828.2" y="-96.5" transform="matrix(0.7071 0.7071 -0.7071 0.7071 579.1013 -447.4743)" class="st4" width="3" height="1143.5"/>
				</g>
				<g>
					
						<rect x="843.5" y="-96.5" transform="matrix(0.7071 0.7071 -0.7071 0.7071 583.5826 -458.2931)" class="st4" width="3" height="1143.5"/>
				</g>
				<g>
					
						<rect x="858.8" y="-96.5" transform="matrix(0.7071 0.7071 -0.7071 0.7071 588.0638 -469.1117)" class="st4" width="3" height="1143.5"/>
				</g>
				<g>
					
						<rect x="874.1" y="-96.5" transform="matrix(0.7071 0.7071 -0.7071 0.7071 592.5452 -479.9306)" class="st4" width="3" height="1143.5"/>
				</g>
				<g>
					
						<rect x="889.4" y="-96.5" transform="matrix(0.7071 0.7071 -0.7071 0.7071 597.0264 -490.7494)" class="st4" width="3" height="1143.5"/>
				</g>
				<g>
					
						<rect x="904.8" y="-96.5" transform="matrix(0.7071 0.7071 -0.7071 0.7071 601.5369 -501.6386)" class="st4" width="3" height="1143.5"/>
				</g>
				<g>
					
						<rect x="920.1" y="-96.5" transform="matrix(0.7071 0.7071 -0.7071 0.7071 606.0182 -512.4575)" class="st4" width="3" height="1143.5"/>
				</g>
				<g>
					
						<rect x="935.4" y="-96.5" transform="matrix(0.7071 0.7071 -0.7071 0.7071 610.4995 -523.2763)" class="st4" width="3" height="1143.5"/>
				</g>
				<g>
					
						<rect x="950.7" y="-96.5" transform="matrix(0.7071 0.7071 -0.7071 0.7071 614.9807 -534.0949)" class="st4" width="3" height="1143.5"/>
				</g>
				<g>
					
						<rect x="966" y="-96.5" transform="matrix(0.7071 0.7071 -0.7071 0.7071 619.462 -544.9137)" class="st4" width="3" height="1143.5"/>
				</g>
				<g>
					
						<rect x="981.3" y="-96.5" transform="matrix(0.7071 0.7071 -0.7071 0.7071 623.9432 -555.7323)" class="st4" width="3" height="1143.5"/>
				</g>
				<g>
					
						<rect x="996.7" y="-96.5" transform="matrix(0.7071 0.7071 -0.7071 0.7071 628.4538 -566.6218)" class="st4" width="3" height="1143.5"/>
				</g>
				<g>
					
						<rect x="1012" y="-96.5" transform="matrix(0.7071 0.7071 -0.7071 0.7071 632.9351 -577.4406)" class="st4" width="3" height="1143.5"/>
				</g>
				<g>
					
						<rect x="1027.3" y="-96.5" transform="matrix(0.7071 0.7071 -0.7071 0.7071 637.4163 -588.2592)" class="st4" width="3" height="1143.5"/>
				</g>
				<g>
					
						<rect x="1042.6" y="-96.5" transform="matrix(0.7071 0.7071 -0.7071 0.7071 641.8976 -599.0781)" class="st4" width="3" height="1143.5"/>
				</g>
				<g>
					
						<rect x="1057.9" y="-96.5" transform="matrix(0.7071 0.7071 -0.7071 0.7071 646.379 -609.8969)" class="st4" width="3" height="1143.5"/>
				</g>
				<g>
					
						<rect x="1073.2" y="-96.5" transform="matrix(0.7071 0.7071 -0.7071 0.7071 650.8602 -620.7155)" class="st4" width="3" height="1143.5"/>
				</g>
				<g>
					
						<rect x="1088.6" y="-96.5" transform="matrix(0.7071 0.7071 -0.7071 0.7071 655.3707 -631.605)" class="st4" width="3" height="1143.5"/>
				</g>
				<g>
					
						<rect x="1103.9" y="-96.5" transform="matrix(0.7071 0.7071 -0.7071 0.7071 659.8521 -642.4238)" class="st4" width="3" height="1143.5"/>
				</g>
				<g>
					
						<rect x="1119.2" y="-96.5" transform="matrix(0.7071 0.7071 -0.7071 0.7071 664.3333 -653.2424)" class="st4" width="3" height="1143.5"/>
				</g>
				<g>
					
						<rect x="1134.5" y="-96.5" transform="matrix(0.7071 0.7071 -0.7071 0.7071 668.8145 -664.0612)" class="st4" width="3" height="1143.5"/>
				</g>
				<g>
					
						<rect x="1149.8" y="-96.5" transform="matrix(0.7071 0.7071 -0.7071 0.7071 673.2957 -674.8798)" class="st4" width="3" height="1143.5"/>
				</g>
				<g>
					
						<rect x="1165.2" y="-96.4" transform="matrix(0.7071 0.7071 -0.7071 0.7071 677.7917 -685.7341)" class="st4" width="3" height="1143.5"/>
				</g>
				<g>
					
						<rect x="1180.5" y="-96.5" transform="matrix(0.7071 0.7071 -0.7071 0.7071 682.2876 -696.5881)" class="st4" width="3" height="1143.5"/>
				</g>
				<g>
					
						<rect x="1195.8" y="-96.5" transform="matrix(0.7071 0.7071 -0.7071 0.7071 686.7688 -707.4067)" class="st4" width="3" height="1143.5"/>
				</g>
				<g>
					
						<rect x="1211.1" y="-96.5" transform="matrix(0.7071 0.7071 -0.7071 0.7071 691.2502 -718.2256)" class="st4" width="3" height="1143.5"/>
				</g>
				<g>
					
						<rect x="1226.4" y="-96.5" transform="matrix(0.7071 0.7071 -0.7071 0.7071 695.7314 -729.0444)" class="st4" width="3" height="1143.5"/>
				</g>
				<g>
					
						<rect x="1257.1" y="-96.5" transform="matrix(0.7071 0.7071 -0.7071 0.7071 704.7233 -750.7525)" class="st4" width="3" height="1143.5"/>
				</g>
				<g>
					
						<rect x="1241.7" y="-96.5" transform="matrix(0.7071 0.7071 -0.7071 0.7071 700.2126 -739.863)" class="st4" width="3" height="1143.5"/>
				</g>
			</g>
			<g>
				<g>
					
						<rect x="1272.4" y="-96.5" transform="matrix(0.7071 0.7071 -0.7071 0.7071 709.2045 -761.5713)" class="st4" width="3" height="1143.5"/>
				</g>
				<g>
					
						<rect x="1287.7" y="-96.5" transform="matrix(0.7071 0.7071 -0.7071 0.7071 713.6857 -772.3899)" class="st4" width="3" height="1143.5"/>
				</g>
				<g>
					
						<rect x="1303.1" y="-96.5" transform="matrix(0.7071 0.7071 -0.7071 0.7071 718.1964 -783.2794)" class="st4" width="3" height="1143.5"/>
				</g>
				<g>
					
						<rect x="1318.4" y="-96.5" transform="matrix(0.7071 0.7071 -0.7071 0.7071 722.6776 -794.0982)" class="st4" width="3" height="1143.5"/>
				</g>
				<g>
					
						<rect x="1333.7" y="-96.5" transform="matrix(0.7071 0.7071 -0.7071 0.7071 727.1588 -804.9168)" class="st4" width="3" height="1143.5"/>
				</g>
				<g>
					
						<rect x="1349" y="-96.5" transform="matrix(0.7071 0.7071 -0.7071 0.7071 731.6401 -815.7356)" class="st4" width="3" height="1143.5"/>
				</g>
				<g>
					
						<rect x="1364.3" y="-96.5" transform="matrix(0.7071 0.7071 -0.7071 0.7071 736.1213 -826.5542)" class="st4" width="3" height="1143.5"/>
				</g>
				<g>
					
						<rect x="1379.6" y="-96.5" transform="matrix(0.7071 0.7071 -0.7071 0.7071 740.6027 -837.3731)" class="st4" width="3" height="1143.5"/>
				</g>
				<g>
					
						<rect x="1395" y="-96.5" transform="matrix(0.7071 0.7071 -0.7071 0.7071 745.1132 -848.2625)" class="st4" width="3" height="1143.5"/>
				</g>
				<g>
					
						<rect x="1410.3" y="-96.5" transform="matrix(0.7071 0.7071 -0.7071 0.7071 749.5944 -859.0811)" class="st4" width="3" height="1143.5"/>
				</g>
				<g>
					
						<rect x="1425.6" y="-96.5" transform="matrix(0.7071 0.7071 -0.7071 0.7071 754.0757 -869.9)" class="st4" width="3" height="1143.5"/>
				</g>
				<g>
					
						<rect x="1440.9" y="-96.5" transform="matrix(0.7071 0.7071 -0.7071 0.7071 758.5571 -880.7188)" class="st4" width="3" height="1143.5"/>
				</g>
				<g>
					
						<rect x="1456.2" y="-96.5" transform="matrix(0.7071 0.7071 -0.7071 0.7071 763.0383 -891.5374)" class="st4" width="3" height="1143.5"/>
				</g>
				<g>
					
						<rect x="1471.5" y="-96.4" transform="matrix(0.7071 0.7071 -0.7071 0.7071 767.5341 -902.3914)" class="st4" width="3" height="1143.5"/>
				</g>
				<g>
					
						<rect x="1486.9" y="-96.5" transform="matrix(0.7071 0.7071 -0.7071 0.7071 772.0302 -913.2457)" class="st4" width="3" height="1143.5"/>
				</g>
				<g>
					
						<rect x="1502.2" y="-96.5" transform="matrix(0.7071 0.7071 -0.7071 0.7071 776.5114 -924.0643)" class="st4" width="3" height="1143.5"/>
				</g>
				<g>
					
						<rect x="1517.5" y="-96.5" transform="matrix(0.7071 0.7071 -0.7071 0.7071 780.9926 -934.8831)" class="st4" width="3" height="1143.5"/>
				</g>
				<g>
					
						<rect x="1532.8" y="-96.5" transform="matrix(0.7071 0.7071 -0.7071 0.7071 785.4738 -945.7017)" class="st4" width="3" height="1143.5"/>
				</g>
				<g>
					
						<rect x="1548.1" y="-96.5" transform="matrix(0.7071 0.7071 -0.7071 0.7071 789.9552 -956.5206)" class="st4" width="3" height="1143.5"/>
				</g>
				<g>
					
						<rect x="1563.5" y="-96.5" transform="matrix(0.7071 0.7071 -0.7071 0.7071 794.4657 -967.41)" class="st4" width="3" height="1143.5"/>
				</g>
				<g>
					
						<rect x="1578.8" y="-96.5" transform="matrix(0.7071 0.7071 -0.7071 0.7071 798.9469 -978.2286)" class="st4" width="3" height="1143.5"/>
				</g>
				<g>
					
						<rect x="1594.1" y="-96.5" transform="matrix(0.7071 0.7071 -0.7071 0.7071 803.4283 -989.0475)" class="st4" width="3" height="1143.5"/>
				</g>
				<g>
					
						<rect x="1609.4" y="-96.5" transform="matrix(0.7071 0.7071 -0.7071 0.7071 807.9095 -999.8663)" class="st4" width="3" height="1143.5"/>
				</g>
				<g>
					
						<rect x="1624.7" y="-96.5" transform="matrix(0.7071 0.7071 -0.7071 0.7071 812.3907 -1010.6849)" class="st4" width="3" height="1143.5"/>
				</g>
				<g>
					
						<rect x="1640" y="-96.5" transform="matrix(0.7071 0.7071 -0.7071 0.7071 816.8721 -1021.5037)" class="st4" width="3" height="1143.5"/>
				</g>
				<g>
					
						<rect x="1655.4" y="-96.5" transform="matrix(0.7071 0.7071 -0.7071 0.7071 821.3826 -1032.3932)" class="st4" width="3" height="1143.5"/>
				</g>
				<g>
					
						<rect x="1670.7" y="-96.5" transform="matrix(0.7071 0.7071 -0.7071 0.7071 825.8639 -1043.2119)" class="st4" width="3" height="1143.5"/>
				</g>
				<g>
					
						<rect x="1686" y="-96.5" transform="matrix(0.7071 0.7071 -0.7071 0.7071 830.3452 -1054.0305)" class="st4" width="3" height="1143.5"/>
				</g>
				<g>
					
						<rect x="1701.3" y="-96.5" transform="matrix(0.7071 0.7071 -0.7071 0.7071 834.8264 -1064.8491)" class="st4" width="3" height="1143.5"/>
				</g>
				<g>
					
						<rect x="1716.6" y="-96.5" transform="matrix(0.7071 0.7071 -0.7071 0.7071 839.3077 -1075.6681)" class="st4" width="3" height="1143.5"/>
				</g>
				<g>
					
						<rect x="1731.9" y="-96.5" transform="matrix(0.7071 0.7071 -0.7071 0.7071 843.7889 -1086.4867)" class="st4" width="3" height="1143.5"/>
				</g>
				<g>
					
						<rect x="1747.3" y="-96.5" transform="matrix(0.7071 0.7071 -0.7071 0.7071 848.2994 -1097.3761)" class="st4" width="3" height="1143.5"/>
				</g>
				<g>
					
						<rect x="1762.6" y="-96.5" transform="matrix(0.7071 0.7071 -0.7071 0.7071 852.7808 -1108.1951)" class="st4" width="3" height="1143.5"/>
				</g>
				<g>
					
						<rect x="1777.9" y="-96.5" transform="matrix(0.7071 0.7071 -0.7071 0.7071 857.262 -1119.0135)" class="st4" width="3" height="1143.5"/>
				</g>
				<g>
					
						<rect x="1793.2" y="-96.5" transform="matrix(0.7071 0.7071 -0.7071 0.7071 861.7433 -1129.8325)" class="st4" width="3" height="1143.5"/>
				</g>
				<g>
					
						<rect x="1808.5" y="-96.5" transform="matrix(0.7071 0.7071 -0.7071 0.7071 866.2245 -1140.6511)" class="st4" width="3" height="1143.5"/>
				</g>
				<g>
					
						<rect x="1823.8" y="-96.4" transform="matrix(0.7071 0.7071 -0.7071 0.7071 870.7203 -1151.505)" class="st4" width="3" height="1143.5"/>
				</g>
				<g>
					
						<rect x="1839.2" y="-96.5" transform="matrix(0.7071 0.7071 -0.7071 0.7071 875.2164 -1162.3595)" class="st4" width="3" height="1143.5"/>
				</g>
				<g>
					
						<rect x="1854.5" y="-96.5" transform="matrix(0.7071 0.7071 -0.7071 0.7071 879.6976 -1173.1781)" class="st4" width="3" height="1143.5"/>
				</g>
				<g>
					
						<rect x="1869.8" y="-96.5" transform="matrix(0.7071 0.7071 -0.7071 0.7071 884.1788 -1183.9967)" class="st4" width="3" height="1143.5"/>
				</g>
				<g>
					
						<rect x="1885.1" y="-96.5" transform="matrix(0.7071 0.7071 -0.7071 0.7071 888.6602 -1194.8156)" class="st4" width="3" height="1143.5"/>
				</g>
				<g>
					
						<rect x="1900.4" y="-96.5" transform="matrix(0.7071 0.7071 -0.7071 0.7071 893.1414 -1205.6342)" class="st4" width="3" height="1143.5"/>
				</g>
				<g>
					
						<rect x="1915.8" y="-96.5" transform="matrix(0.7071 0.7071 -0.7071 0.7071 897.6519 -1216.5236)" class="st4" width="3" height="1143.5"/>
				</g>
				<g>
					
						<rect x="1931.1" y="-96.5" transform="matrix(0.7071 0.7071 -0.7071 0.7071 902.1333 -1227.3425)" class="st4" width="3" height="1143.5"/>
				</g>
				<g>
					
						<rect x="1961.7" y="-96.5" transform="matrix(0.7071 0.7071 -0.7071 0.7071 911.0958 -1248.98)" class="st4" width="3" height="1143.5"/>
				</g>
				<g>
					
						<rect x="1946.4" y="-96.5" transform="matrix(0.7071 0.7071 -0.7071 0.7071 906.6145 -1238.1611)" class="st4" width="3" height="1143.5"/>
				</g>
			</g>
		</g>
	</g>
</g>
</svg>
