<?xml version="1.0" encoding="utf-8"?>
<!-- Generator: Adobe Illustrator 19.0.0, SVG Export Plug-In . SVG Version: 6.00 Build 0)  -->
<svg version="1.1" id="Layer_1" xmlns="http://www.w3.org/2000/svg" xmlns:xlink="http://www.w3.org/1999/xlink" x="0px" y="0px"
	 viewBox="0 0 1509.4 183.4" style="enable-background:new 0 0 1509.4 183.4;" xml:space="preserve">
<style type="text/css">
	.st0{clip-path:url(#SVGID_2_);}
	.st1{fill:none;stroke:#00AEEF;stroke-width:3;stroke-miterlimit:10;}
	.st2{clip-path:url(#SVGID_4_);}
	.st3{clip-path:url(#SVGID_6_);}
</style>
<g>
	<defs>
		<polygon id="SVGID_1_" points="0,14.9 1509,0 1509.4,183.4 1.5,151.4 		"/>
	</defs>
	<clipPath id="SVGID_2_">
		<use xlink:href="#SVGID_1_"  style="overflow:visible;"/>
	</clipPath>
	<g class="st0">
		<g>
			<line class="st1" x1="-1042.7" y1="790" x2="-234.1" y2="-18.6"/>
			<line class="st1" x1="-1027.4" y1="790" x2="-218.8" y2="-18.6"/>
			<line class="st1" x1="-1012.1" y1="790" x2="-203.5" y2="-18.6"/>
			<line class="st1" x1="-996.8" y1="790" x2="-188.2" y2="-18.6"/>
			<polyline class="st1" points="-981.5,790 -728.8,537.4 -172.9,-18.6 			"/>
			<line class="st1" x1="-966.1" y1="790" x2="-157.6" y2="-18.6"/>
			<line class="st1" x1="-950.8" y1="790" x2="-142.2" y2="-18.6"/>
			<line class="st1" x1="-935.5" y1="790" x2="-126.9" y2="-18.6"/>
			<line class="st1" x1="-920.2" y1="790" x2="-111.6" y2="-18.6"/>
			<line class="st1" x1="-904.9" y1="790" x2="-96.3" y2="-18.6"/>
			<line class="st1" x1="-889.6" y1="790" x2="-81" y2="-18.6"/>
			<line class="st1" x1="-874.2" y1="790" x2="-65.6" y2="-18.6"/>
			<line class="st1" x1="-858.9" y1="790" x2="-50.3" y2="-18.6"/>
			<line class="st1" x1="-843.6" y1="790" x2="-35" y2="-18.6"/>
			<line class="st1" x1="-828.3" y1="790" x2="-19.7" y2="-18.6"/>
			<line class="st1" x1="-813" y1="790" x2="-4.4" y2="-18.6"/>
			<line class="st1" x1="-797.7" y1="790" x2="10.9" y2="-18.6"/>
			<line class="st1" x1="-782.3" y1="790" x2="26.3" y2="-18.6"/>
			<line class="st1" x1="-767" y1="790" x2="41.6" y2="-18.6"/>
			<line class="st1" x1="-751.7" y1="790" x2="56.9" y2="-18.6"/>
			<line class="st1" x1="-736.4" y1="790" x2="72.2" y2="-18.6"/>
			<line class="st1" x1="-721.1" y1="790" x2="87.5" y2="-18.6"/>
			<line class="st1" x1="-705.8" y1="790" x2="102.8" y2="-18.6"/>
			<line class="st1" x1="-690.4" y1="790" x2="118.2" y2="-18.6"/>
			<line class="st1" x1="-675.1" y1="790" x2="133.5" y2="-18.6"/>
			<line class="st1" x1="-659.8" y1="790" x2="148.8" y2="-18.6"/>
			<line class="st1" x1="-644.5" y1="790" x2="164.1" y2="-18.6"/>
			<line class="st1" x1="-629.2" y1="790" x2="179.4" y2="-18.6"/>
			<line class="st1" x1="-613.8" y1="790" x2="194.7" y2="-18.6"/>
			<line class="st1" x1="-598.5" y1="790" x2="210.1" y2="-18.6"/>
			<line class="st1" x1="-583.2" y1="790" x2="225.4" y2="-18.6"/>
			<line class="st1" x1="-567.9" y1="790" x2="240.7" y2="-18.6"/>
			<line class="st1" x1="-552.6" y1="790" x2="256" y2="-18.6"/>
			<line class="st1" x1="-537.3" y1="790" x2="271.3" y2="-18.6"/>
			<line class="st1" x1="-521.9" y1="790" x2="286.7" y2="-18.6"/>
			<line class="st1" x1="-506.6" y1="790" x2="302" y2="-18.6"/>
			<line class="st1" x1="-491.3" y1="790" x2="317.3" y2="-18.6"/>
			<line class="st1" x1="-476" y1="790" x2="332.6" y2="-18.6"/>
			<line class="st1" x1="-460.7" y1="790" x2="347.9" y2="-18.6"/>
			<line class="st1" x1="-445.4" y1="790" x2="363.2" y2="-18.6"/>
			<line class="st1" x1="-430" y1="790" x2="378.6" y2="-18.6"/>
			<line class="st1" x1="-414.7" y1="790" x2="393.9" y2="-18.6"/>
			<line class="st1" x1="-399.4" y1="790" x2="409.2" y2="-18.6"/>
			<line class="st1" x1="-384.1" y1="790" x2="424.5" y2="-18.6"/>
			<line class="st1" x1="-353.5" y1="790" x2="455.1" y2="-18.6"/>
			<line class="st1" x1="-368.8" y1="790" x2="439.8" y2="-18.6"/>
		</g>
		<g>
			<line class="st1" x1="-338" y1="790" x2="470.6" y2="-18.6"/>
			<line class="st1" x1="-322.7" y1="790" x2="485.9" y2="-18.6"/>
			<line class="st1" x1="-307.4" y1="790" x2="501.2" y2="-18.6"/>
			<line class="st1" x1="-292.1" y1="790" x2="516.5" y2="-18.6"/>
			<polyline class="st1" points="-276.8,790 -24.1,537.4 531.8,-18.6 			"/>
			<line class="st1" x1="-261.4" y1="790" x2="547.2" y2="-18.6"/>
			<line class="st1" x1="-246.1" y1="790" x2="562.5" y2="-18.6"/>
			<line class="st1" x1="-230.8" y1="790" x2="577.8" y2="-18.6"/>
			<line class="st1" x1="-215.5" y1="790" x2="593.1" y2="-18.6"/>
			<line class="st1" x1="-200.2" y1="790" x2="608.4" y2="-18.6"/>
			<line class="st1" x1="-184.9" y1="790" x2="623.7" y2="-18.6"/>
			<line class="st1" x1="-169.5" y1="790" x2="639.1" y2="-18.6"/>
			<line class="st1" x1="-154.2" y1="790" x2="654.4" y2="-18.6"/>
			<line class="st1" x1="-138.9" y1="790" x2="669.7" y2="-18.6"/>
			<line class="st1" x1="-123.6" y1="790" x2="685" y2="-18.6"/>
			<line class="st1" x1="-108.3" y1="790" x2="700.3" y2="-18.6"/>
			<line class="st1" x1="-92.9" y1="790" x2="715.6" y2="-18.6"/>
			<line class="st1" x1="-77.6" y1="790" x2="731" y2="-18.6"/>
			<line class="st1" x1="-62.3" y1="790" x2="746.3" y2="-18.6"/>
			<line class="st1" x1="-47" y1="790" x2="761.6" y2="-18.6"/>
			<line class="st1" x1="-31.7" y1="790" x2="776.9" y2="-18.6"/>
			<line class="st1" x1="-16.4" y1="790" x2="792.2" y2="-18.6"/>
			<line class="st1" x1="-1" y1="790" x2="807.6" y2="-18.6"/>
			<line class="st1" x1="14.3" y1="790" x2="822.9" y2="-18.6"/>
			<line class="st1" x1="29.6" y1="790" x2="838.2" y2="-18.6"/>
			<line class="st1" x1="44.9" y1="790" x2="853.5" y2="-18.6"/>
			<line class="st1" x1="60.2" y1="790" x2="868.8" y2="-18.6"/>
			<line class="st1" x1="75.5" y1="790" x2="884.1" y2="-18.6"/>
			<line class="st1" x1="90.9" y1="790" x2="899.5" y2="-18.6"/>
			<line class="st1" x1="106.2" y1="790" x2="914.8" y2="-18.6"/>
			<line class="st1" x1="121.5" y1="790" x2="930.1" y2="-18.6"/>
			<line class="st1" x1="136.8" y1="790" x2="945.4" y2="-18.6"/>
			<line class="st1" x1="152.1" y1="790" x2="960.7" y2="-18.6"/>
			<line class="st1" x1="167.4" y1="790" x2="976" y2="-18.6"/>
			<line class="st1" x1="182.8" y1="790" x2="991.4" y2="-18.6"/>
			<line class="st1" x1="198.1" y1="790" x2="1006.7" y2="-18.6"/>
			<line class="st1" x1="213.4" y1="790" x2="1022" y2="-18.6"/>
			<line class="st1" x1="228.7" y1="790" x2="1037.3" y2="-18.6"/>
			<line class="st1" x1="244" y1="790" x2="1052.6" y2="-18.6"/>
			<line class="st1" x1="259.4" y1="790" x2="1067.9" y2="-18.6"/>
			<line class="st1" x1="274.7" y1="790" x2="1083.3" y2="-18.6"/>
			<line class="st1" x1="290" y1="790" x2="1098.6" y2="-18.6"/>
			<line class="st1" x1="305.3" y1="790" x2="1113.9" y2="-18.6"/>
			<line class="st1" x1="320.6" y1="790" x2="1129.2" y2="-18.6"/>
			<line class="st1" x1="351.3" y1="790" x2="1159.9" y2="-18.6"/>
			<line class="st1" x1="335.9" y1="790" x2="1144.5" y2="-18.6"/>
		</g>
		<g>
			<line class="st1" x1="366.6" y1="790" x2="1175.2" y2="-18.6"/>
			<line class="st1" x1="381.9" y1="790" x2="1190.5" y2="-18.6"/>
			<line class="st1" x1="397.3" y1="790" x2="1205.9" y2="-18.6"/>
			<line class="st1" x1="412.6" y1="790" x2="1221.2" y2="-18.6"/>
			<polyline class="st1" points="427.9,790 680.5,537.4 1236.5,-18.6 			"/>
			<line class="st1" x1="443.2" y1="790" x2="1251.8" y2="-18.6"/>
			<line class="st1" x1="458.5" y1="790" x2="1267.1" y2="-18.6"/>
			<line class="st1" x1="473.8" y1="790" x2="1282.4" y2="-18.6"/>
			<line class="st1" x1="489.2" y1="790" x2="1297.8" y2="-18.6"/>
			<line class="st1" x1="504.5" y1="790" x2="1313.1" y2="-18.6"/>
			<line class="st1" x1="519.8" y1="790" x2="1328.4" y2="-18.6"/>
			<line class="st1" x1="535.1" y1="790" x2="1343.7" y2="-18.6"/>
			<line class="st1" x1="550.4" y1="790" x2="1359" y2="-18.6"/>
			<line class="st1" x1="565.8" y1="790" x2="1374.3" y2="-18.6"/>
			<line class="st1" x1="581.1" y1="790" x2="1389.7" y2="-18.6"/>
			<line class="st1" x1="596.4" y1="790" x2="1405" y2="-18.6"/>
			<line class="st1" x1="611.7" y1="790" x2="1420.3" y2="-18.6"/>
			<line class="st1" x1="627" y1="790" x2="1435.6" y2="-18.6"/>
			<line class="st1" x1="642.3" y1="790" x2="1450.9" y2="-18.6"/>
			<line class="st1" x1="657.7" y1="790" x2="1466.3" y2="-18.6"/>
			<line class="st1" x1="673" y1="790" x2="1481.6" y2="-18.6"/>
			<line class="st1" x1="688.3" y1="790" x2="1496.9" y2="-18.6"/>
			<line class="st1" x1="703.6" y1="790" x2="1512.2" y2="-18.6"/>
			<line class="st1" x1="718.9" y1="790" x2="1527.5" y2="-18.6"/>
			<line class="st1" x1="734.2" y1="790" x2="1542.8" y2="-18.6"/>
			<line class="st1" x1="749.6" y1="790" x2="1558.2" y2="-18.6"/>
			<line class="st1" x1="764.9" y1="790" x2="1573.5" y2="-18.6"/>
			<line class="st1" x1="780.2" y1="790" x2="1588.8" y2="-18.6"/>
			<line class="st1" x1="795.5" y1="790" x2="1604.1" y2="-18.6"/>
			<line class="st1" x1="810.8" y1="790" x2="1619.4" y2="-18.6"/>
			<line class="st1" x1="826.1" y1="790" x2="1634.7" y2="-18.6"/>
			<line class="st1" x1="841.5" y1="790" x2="1650.1" y2="-18.6"/>
			<line class="st1" x1="856.8" y1="790" x2="1665.4" y2="-18.6"/>
			<line class="st1" x1="872.1" y1="790" x2="1680.7" y2="-18.6"/>
			<line class="st1" x1="887.4" y1="790" x2="1696" y2="-18.6"/>
			<line class="st1" x1="902.7" y1="790" x2="1711.3" y2="-18.6"/>
			<line class="st1" x1="918.1" y1="790" x2="1726.6" y2="-18.6"/>
			<line class="st1" x1="933.4" y1="790" x2="1742" y2="-18.6"/>
			<line class="st1" x1="948.7" y1="790" x2="1757.3" y2="-18.6"/>
			<line class="st1" x1="964" y1="790" x2="1772.6" y2="-18.6"/>
			<line class="st1" x1="979.3" y1="790" x2="1787.9" y2="-18.6"/>
			<line class="st1" x1="994.6" y1="790" x2="1803.2" y2="-18.6"/>
			<line class="st1" x1="1010" y1="790" x2="1818.6" y2="-18.6"/>
			<line class="st1" x1="1025.3" y1="790" x2="1833.9" y2="-18.6"/>
			<line class="st1" x1="1055.9" y1="790" x2="1864.5" y2="-18.6"/>
			<line class="st1" x1="1040.6" y1="790" x2="1849.2" y2="-18.6"/>
		</g>
	</g>
</g>
<g>
	<defs>
		<polygon id="SVGID_3_" points="0,14.9 1509,0 1509.4,183.4 1.5,151.4 		"/>
	</defs>
	<clipPath id="SVGID_4_">
		<use xlink:href="#SVGID_3_"  style="overflow:visible;"/>
	</clipPath>
	<g class="st2">
		<g>
			<line class="st1" x1="-1042.7" y1="790" x2="-234.1" y2="-18.6"/>
			<line class="st1" x1="-1027.4" y1="790" x2="-218.8" y2="-18.6"/>
			<line class="st1" x1="-1012.1" y1="790" x2="-203.5" y2="-18.6"/>
			<line class="st1" x1="-996.8" y1="790" x2="-188.2" y2="-18.6"/>
			<polyline class="st1" points="-981.5,790 -728.8,537.4 -172.9,-18.6 			"/>
			<line class="st1" x1="-966.1" y1="790" x2="-157.6" y2="-18.6"/>
			<line class="st1" x1="-950.8" y1="790" x2="-142.2" y2="-18.6"/>
			<line class="st1" x1="-935.5" y1="790" x2="-126.9" y2="-18.6"/>
			<line class="st1" x1="-920.2" y1="790" x2="-111.6" y2="-18.6"/>
			<line class="st1" x1="-904.9" y1="790" x2="-96.3" y2="-18.6"/>
			<line class="st1" x1="-889.6" y1="790" x2="-81" y2="-18.6"/>
			<line class="st1" x1="-874.2" y1="790" x2="-65.6" y2="-18.6"/>
			<line class="st1" x1="-858.9" y1="790" x2="-50.3" y2="-18.6"/>
			<line class="st1" x1="-843.6" y1="790" x2="-35" y2="-18.6"/>
			<line class="st1" x1="-828.3" y1="790" x2="-19.7" y2="-18.6"/>
			<line class="st1" x1="-813" y1="790" x2="-4.4" y2="-18.6"/>
			<line class="st1" x1="-797.7" y1="790" x2="10.9" y2="-18.6"/>
			<line class="st1" x1="-782.3" y1="790" x2="26.3" y2="-18.6"/>
			<line class="st1" x1="-767" y1="790" x2="41.6" y2="-18.6"/>
			<line class="st1" x1="-751.7" y1="790" x2="56.9" y2="-18.6"/>
			<line class="st1" x1="-736.4" y1="790" x2="72.2" y2="-18.6"/>
			<line class="st1" x1="-721.1" y1="790" x2="87.5" y2="-18.6"/>
			<line class="st1" x1="-705.8" y1="790" x2="102.8" y2="-18.6"/>
			<line class="st1" x1="-690.4" y1="790" x2="118.2" y2="-18.6"/>
			<line class="st1" x1="-675.1" y1="790" x2="133.5" y2="-18.6"/>
			<line class="st1" x1="-659.8" y1="790" x2="148.8" y2="-18.6"/>
			<line class="st1" x1="-644.5" y1="790" x2="164.1" y2="-18.6"/>
			<line class="st1" x1="-629.2" y1="790" x2="179.4" y2="-18.6"/>
			<line class="st1" x1="-613.8" y1="790" x2="194.7" y2="-18.6"/>
			<line class="st1" x1="-598.5" y1="790" x2="210.1" y2="-18.6"/>
			<line class="st1" x1="-583.2" y1="790" x2="225.4" y2="-18.6"/>
			<line class="st1" x1="-567.9" y1="790" x2="240.7" y2="-18.6"/>
			<line class="st1" x1="-552.6" y1="790" x2="256" y2="-18.6"/>
			<line class="st1" x1="-537.3" y1="790" x2="271.3" y2="-18.6"/>
			<line class="st1" x1="-521.9" y1="790" x2="286.7" y2="-18.6"/>
			<line class="st1" x1="-506.6" y1="790" x2="302" y2="-18.6"/>
			<line class="st1" x1="-491.3" y1="790" x2="317.3" y2="-18.6"/>
			<line class="st1" x1="-476" y1="790" x2="332.6" y2="-18.6"/>
			<line class="st1" x1="-460.7" y1="790" x2="347.9" y2="-18.6"/>
			<line class="st1" x1="-445.4" y1="790" x2="363.2" y2="-18.6"/>
			<line class="st1" x1="-430" y1="790" x2="378.6" y2="-18.6"/>
			<line class="st1" x1="-414.7" y1="790" x2="393.9" y2="-18.6"/>
			<line class="st1" x1="-399.4" y1="790" x2="409.2" y2="-18.6"/>
			<line class="st1" x1="-384.1" y1="790" x2="424.5" y2="-18.6"/>
			<line class="st1" x1="-353.5" y1="790" x2="455.1" y2="-18.6"/>
			<line class="st1" x1="-368.8" y1="790" x2="439.8" y2="-18.6"/>
		</g>
		<g>
			<line class="st1" x1="-338" y1="790" x2="470.6" y2="-18.6"/>
			<line class="st1" x1="-322.7" y1="790" x2="485.9" y2="-18.6"/>
			<line class="st1" x1="-307.4" y1="790" x2="501.2" y2="-18.6"/>
			<line class="st1" x1="-292.1" y1="790" x2="516.5" y2="-18.6"/>
			<polyline class="st1" points="-276.8,790 -24.1,537.4 531.8,-18.6 			"/>
			<line class="st1" x1="-261.4" y1="790" x2="547.2" y2="-18.6"/>
			<line class="st1" x1="-246.1" y1="790" x2="562.5" y2="-18.6"/>
			<line class="st1" x1="-230.8" y1="790" x2="577.8" y2="-18.6"/>
			<line class="st1" x1="-215.5" y1="790" x2="593.1" y2="-18.6"/>
			<line class="st1" x1="-200.2" y1="790" x2="608.4" y2="-18.6"/>
			<line class="st1" x1="-184.9" y1="790" x2="623.7" y2="-18.6"/>
			<line class="st1" x1="-169.5" y1="790" x2="639.1" y2="-18.6"/>
			<line class="st1" x1="-154.2" y1="790" x2="654.4" y2="-18.6"/>
			<line class="st1" x1="-138.9" y1="790" x2="669.7" y2="-18.6"/>
			<line class="st1" x1="-123.6" y1="790" x2="685" y2="-18.6"/>
			<line class="st1" x1="-108.3" y1="790" x2="700.3" y2="-18.6"/>
			<line class="st1" x1="-92.9" y1="790" x2="715.6" y2="-18.6"/>
			<line class="st1" x1="-77.6" y1="790" x2="731" y2="-18.6"/>
			<line class="st1" x1="-62.3" y1="790" x2="746.3" y2="-18.6"/>
			<line class="st1" x1="-47" y1="790" x2="761.6" y2="-18.6"/>
			<line class="st1" x1="-31.7" y1="790" x2="776.9" y2="-18.6"/>
			<line class="st1" x1="-16.4" y1="790" x2="792.2" y2="-18.6"/>
			<line class="st1" x1="-1" y1="790" x2="807.6" y2="-18.6"/>
			<line class="st1" x1="14.3" y1="790" x2="822.9" y2="-18.6"/>
			<line class="st1" x1="29.6" y1="790" x2="838.2" y2="-18.6"/>
			<line class="st1" x1="44.9" y1="790" x2="853.5" y2="-18.6"/>
			<line class="st1" x1="60.2" y1="790" x2="868.8" y2="-18.6"/>
			<line class="st1" x1="75.5" y1="790" x2="884.1" y2="-18.6"/>
			<line class="st1" x1="90.9" y1="790" x2="899.5" y2="-18.6"/>
			<line class="st1" x1="106.2" y1="790" x2="914.8" y2="-18.6"/>
			<line class="st1" x1="121.5" y1="790" x2="930.1" y2="-18.6"/>
			<line class="st1" x1="136.8" y1="790" x2="945.4" y2="-18.6"/>
			<line class="st1" x1="152.1" y1="790" x2="960.7" y2="-18.6"/>
			<line class="st1" x1="167.4" y1="790" x2="976" y2="-18.6"/>
			<line class="st1" x1="182.8" y1="790" x2="991.4" y2="-18.6"/>
			<line class="st1" x1="198.1" y1="790" x2="1006.7" y2="-18.6"/>
			<line class="st1" x1="213.4" y1="790" x2="1022" y2="-18.6"/>
			<line class="st1" x1="228.7" y1="790" x2="1037.3" y2="-18.6"/>
			<line class="st1" x1="244" y1="790" x2="1052.6" y2="-18.6"/>
			<line class="st1" x1="259.4" y1="790" x2="1067.9" y2="-18.6"/>
			<line class="st1" x1="274.7" y1="790" x2="1083.3" y2="-18.6"/>
			<line class="st1" x1="290" y1="790" x2="1098.6" y2="-18.6"/>
			<line class="st1" x1="305.3" y1="790" x2="1113.9" y2="-18.6"/>
			<line class="st1" x1="320.6" y1="790" x2="1129.2" y2="-18.6"/>
			<line class="st1" x1="351.3" y1="790" x2="1159.9" y2="-18.6"/>
			<line class="st1" x1="335.9" y1="790" x2="1144.5" y2="-18.6"/>
		</g>
		<g>
			<line class="st1" x1="366.6" y1="790" x2="1175.2" y2="-18.6"/>
			<line class="st1" x1="381.9" y1="790" x2="1190.5" y2="-18.6"/>
			<line class="st1" x1="397.3" y1="790" x2="1205.9" y2="-18.6"/>
			<line class="st1" x1="412.6" y1="790" x2="1221.2" y2="-18.6"/>
			<polyline class="st1" points="427.9,790 680.5,537.4 1236.5,-18.6 			"/>
			<line class="st1" x1="443.2" y1="790" x2="1251.8" y2="-18.6"/>
			<line class="st1" x1="458.5" y1="790" x2="1267.1" y2="-18.6"/>
			<line class="st1" x1="473.8" y1="790" x2="1282.4" y2="-18.6"/>
			<line class="st1" x1="489.2" y1="790" x2="1297.8" y2="-18.6"/>
			<line class="st1" x1="504.5" y1="790" x2="1313.1" y2="-18.6"/>
			<line class="st1" x1="519.8" y1="790" x2="1328.4" y2="-18.6"/>
			<line class="st1" x1="535.1" y1="790" x2="1343.7" y2="-18.6"/>
			<line class="st1" x1="550.4" y1="790" x2="1359" y2="-18.6"/>
			<line class="st1" x1="565.8" y1="790" x2="1374.3" y2="-18.6"/>
			<line class="st1" x1="581.1" y1="790" x2="1389.7" y2="-18.6"/>
			<line class="st1" x1="596.4" y1="790" x2="1405" y2="-18.6"/>
			<line class="st1" x1="611.7" y1="790" x2="1420.3" y2="-18.6"/>
			<line class="st1" x1="627" y1="790" x2="1435.6" y2="-18.6"/>
			<line class="st1" x1="642.3" y1="790" x2="1450.9" y2="-18.6"/>
			<line class="st1" x1="657.7" y1="790" x2="1466.3" y2="-18.6"/>
			<line class="st1" x1="673" y1="790" x2="1481.6" y2="-18.6"/>
			<line class="st1" x1="688.3" y1="790" x2="1496.9" y2="-18.6"/>
			<line class="st1" x1="703.6" y1="790" x2="1512.2" y2="-18.6"/>
			<line class="st1" x1="718.9" y1="790" x2="1527.5" y2="-18.6"/>
			<line class="st1" x1="734.2" y1="790" x2="1542.8" y2="-18.6"/>
			<line class="st1" x1="749.6" y1="790" x2="1558.2" y2="-18.6"/>
			<line class="st1" x1="764.9" y1="790" x2="1573.5" y2="-18.6"/>
			<line class="st1" x1="780.2" y1="790" x2="1588.8" y2="-18.6"/>
			<line class="st1" x1="795.5" y1="790" x2="1604.1" y2="-18.6"/>
			<line class="st1" x1="810.8" y1="790" x2="1619.4" y2="-18.6"/>
			<line class="st1" x1="826.1" y1="790" x2="1634.7" y2="-18.6"/>
			<line class="st1" x1="841.5" y1="790" x2="1650.1" y2="-18.6"/>
			<line class="st1" x1="856.8" y1="790" x2="1665.4" y2="-18.6"/>
			<line class="st1" x1="872.1" y1="790" x2="1680.7" y2="-18.6"/>
			<line class="st1" x1="887.4" y1="790" x2="1696" y2="-18.6"/>
			<line class="st1" x1="902.7" y1="790" x2="1711.3" y2="-18.6"/>
			<line class="st1" x1="918.1" y1="790" x2="1726.6" y2="-18.6"/>
			<line class="st1" x1="933.4" y1="790" x2="1742" y2="-18.6"/>
			<line class="st1" x1="948.7" y1="790" x2="1757.3" y2="-18.6"/>
			<line class="st1" x1="964" y1="790" x2="1772.6" y2="-18.6"/>
			<line class="st1" x1="979.3" y1="790" x2="1787.9" y2="-18.6"/>
			<line class="st1" x1="994.6" y1="790" x2="1803.2" y2="-18.6"/>
			<line class="st1" x1="1010" y1="790" x2="1818.6" y2="-18.6"/>
			<line class="st1" x1="1025.3" y1="790" x2="1833.9" y2="-18.6"/>
			<line class="st1" x1="1055.9" y1="790" x2="1864.5" y2="-18.6"/>
			<line class="st1" x1="1040.6" y1="790" x2="1849.2" y2="-18.6"/>
		</g>
	</g>
</g>
<g>
	<defs>
		<polygon id="SVGID_5_" points="0,14.9 1509,0 1509.4,183.4 1.5,151.4 		"/>
	</defs>
	<clipPath id="SVGID_6_">
		<use xlink:href="#SVGID_5_"  style="overflow:visible;"/>
	</clipPath>
	<g class="st3">
		<g>
			<line class="st1" x1="-1042.7" y1="790" x2="-234.1" y2="-18.6"/>
			<line class="st1" x1="-1027.4" y1="790" x2="-218.8" y2="-18.6"/>
			<line class="st1" x1="-1012.1" y1="790" x2="-203.5" y2="-18.6"/>
			<line class="st1" x1="-996.8" y1="790" x2="-188.2" y2="-18.6"/>
			<polyline class="st1" points="-981.5,790 -728.8,537.4 -172.9,-18.6 			"/>
			<line class="st1" x1="-966.1" y1="790" x2="-157.6" y2="-18.6"/>
			<line class="st1" x1="-950.8" y1="790" x2="-142.2" y2="-18.6"/>
			<line class="st1" x1="-935.5" y1="790" x2="-126.9" y2="-18.6"/>
			<line class="st1" x1="-920.2" y1="790" x2="-111.6" y2="-18.6"/>
			<line class="st1" x1="-904.9" y1="790" x2="-96.3" y2="-18.6"/>
			<line class="st1" x1="-889.6" y1="790" x2="-81" y2="-18.6"/>
			<line class="st1" x1="-874.2" y1="790" x2="-65.6" y2="-18.6"/>
			<line class="st1" x1="-858.9" y1="790" x2="-50.3" y2="-18.6"/>
			<line class="st1" x1="-843.6" y1="790" x2="-35" y2="-18.6"/>
			<line class="st1" x1="-828.3" y1="790" x2="-19.7" y2="-18.6"/>
			<line class="st1" x1="-813" y1="790" x2="-4.4" y2="-18.6"/>
			<line class="st1" x1="-797.7" y1="790" x2="10.9" y2="-18.6"/>
			<line class="st1" x1="-782.3" y1="790" x2="26.3" y2="-18.6"/>
			<line class="st1" x1="-767" y1="790" x2="41.6" y2="-18.6"/>
			<line class="st1" x1="-751.7" y1="790" x2="56.9" y2="-18.6"/>
			<line class="st1" x1="-736.4" y1="790" x2="72.2" y2="-18.6"/>
			<line class="st1" x1="-721.1" y1="790" x2="87.5" y2="-18.6"/>
			<line class="st1" x1="-705.8" y1="790" x2="102.8" y2="-18.6"/>
			<line class="st1" x1="-690.4" y1="790" x2="118.2" y2="-18.6"/>
			<line class="st1" x1="-675.1" y1="790" x2="133.5" y2="-18.6"/>
			<line class="st1" x1="-659.8" y1="790" x2="148.8" y2="-18.6"/>
			<line class="st1" x1="-644.5" y1="790" x2="164.1" y2="-18.6"/>
			<line class="st1" x1="-629.2" y1="790" x2="179.4" y2="-18.6"/>
			<line class="st1" x1="-613.8" y1="790" x2="194.7" y2="-18.6"/>
			<line class="st1" x1="-598.5" y1="790" x2="210.1" y2="-18.6"/>
			<line class="st1" x1="-583.2" y1="790" x2="225.4" y2="-18.6"/>
			<line class="st1" x1="-567.9" y1="790" x2="240.7" y2="-18.6"/>
			<line class="st1" x1="-552.6" y1="790" x2="256" y2="-18.6"/>
			<line class="st1" x1="-537.3" y1="790" x2="271.3" y2="-18.6"/>
			<line class="st1" x1="-521.9" y1="790" x2="286.7" y2="-18.6"/>
			<line class="st1" x1="-506.6" y1="790" x2="302" y2="-18.6"/>
			<line class="st1" x1="-491.3" y1="790" x2="317.3" y2="-18.6"/>
			<line class="st1" x1="-476" y1="790" x2="332.6" y2="-18.6"/>
			<line class="st1" x1="-460.7" y1="790" x2="347.9" y2="-18.6"/>
			<line class="st1" x1="-445.4" y1="790" x2="363.2" y2="-18.6"/>
			<line class="st1" x1="-430" y1="790" x2="378.6" y2="-18.6"/>
			<line class="st1" x1="-414.7" y1="790" x2="393.9" y2="-18.6"/>
			<line class="st1" x1="-399.4" y1="790" x2="409.2" y2="-18.6"/>
			<line class="st1" x1="-384.1" y1="790" x2="424.5" y2="-18.6"/>
			<line class="st1" x1="-353.5" y1="790" x2="455.1" y2="-18.6"/>
			<line class="st1" x1="-368.8" y1="790" x2="439.8" y2="-18.6"/>
		</g>
		<g>
			<line class="st1" x1="-338" y1="790" x2="470.6" y2="-18.6"/>
			<line class="st1" x1="-322.7" y1="790" x2="485.9" y2="-18.6"/>
			<line class="st1" x1="-307.4" y1="790" x2="501.2" y2="-18.6"/>
			<line class="st1" x1="-292.1" y1="790" x2="516.5" y2="-18.6"/>
			<polyline class="st1" points="-276.8,790 -24.1,537.4 531.8,-18.6 			"/>
			<line class="st1" x1="-261.4" y1="790" x2="547.2" y2="-18.6"/>
			<line class="st1" x1="-246.1" y1="790" x2="562.5" y2="-18.6"/>
			<line class="st1" x1="-230.8" y1="790" x2="577.8" y2="-18.6"/>
			<line class="st1" x1="-215.5" y1="790" x2="593.1" y2="-18.6"/>
			<line class="st1" x1="-200.2" y1="790" x2="608.4" y2="-18.6"/>
			<line class="st1" x1="-184.9" y1="790" x2="623.7" y2="-18.6"/>
			<line class="st1" x1="-169.5" y1="790" x2="639.1" y2="-18.6"/>
			<line class="st1" x1="-154.2" y1="790" x2="654.4" y2="-18.6"/>
			<line class="st1" x1="-138.9" y1="790" x2="669.7" y2="-18.6"/>
			<line class="st1" x1="-123.6" y1="790" x2="685" y2="-18.6"/>
			<line class="st1" x1="-108.3" y1="790" x2="700.3" y2="-18.6"/>
			<line class="st1" x1="-92.9" y1="790" x2="715.6" y2="-18.6"/>
			<line class="st1" x1="-77.6" y1="790" x2="731" y2="-18.6"/>
			<line class="st1" x1="-62.3" y1="790" x2="746.3" y2="-18.6"/>
			<line class="st1" x1="-47" y1="790" x2="761.6" y2="-18.6"/>
			<line class="st1" x1="-31.7" y1="790" x2="776.9" y2="-18.6"/>
			<line class="st1" x1="-16.4" y1="790" x2="792.2" y2="-18.6"/>
			<line class="st1" x1="-1" y1="790" x2="807.6" y2="-18.6"/>
			<line class="st1" x1="14.3" y1="790" x2="822.9" y2="-18.6"/>
			<line class="st1" x1="29.6" y1="790" x2="838.2" y2="-18.6"/>
			<line class="st1" x1="44.9" y1="790" x2="853.5" y2="-18.6"/>
			<line class="st1" x1="60.2" y1="790" x2="868.8" y2="-18.6"/>
			<line class="st1" x1="75.5" y1="790" x2="884.1" y2="-18.6"/>
			<line class="st1" x1="90.9" y1="790" x2="899.5" y2="-18.6"/>
			<line class="st1" x1="106.2" y1="790" x2="914.8" y2="-18.6"/>
			<line class="st1" x1="121.5" y1="790" x2="930.1" y2="-18.6"/>
			<line class="st1" x1="136.8" y1="790" x2="945.4" y2="-18.6"/>
			<line class="st1" x1="152.1" y1="790" x2="960.7" y2="-18.6"/>
			<line class="st1" x1="167.4" y1="790" x2="976" y2="-18.6"/>
			<line class="st1" x1="182.8" y1="790" x2="991.4" y2="-18.6"/>
			<line class="st1" x1="198.1" y1="790" x2="1006.7" y2="-18.6"/>
			<line class="st1" x1="213.4" y1="790" x2="1022" y2="-18.6"/>
			<line class="st1" x1="228.7" y1="790" x2="1037.3" y2="-18.6"/>
			<line class="st1" x1="244" y1="790" x2="1052.6" y2="-18.6"/>
			<line class="st1" x1="259.4" y1="790" x2="1067.9" y2="-18.6"/>
			<line class="st1" x1="274.7" y1="790" x2="1083.3" y2="-18.6"/>
			<line class="st1" x1="290" y1="790" x2="1098.6" y2="-18.6"/>
			<line class="st1" x1="305.3" y1="790" x2="1113.9" y2="-18.6"/>
			<line class="st1" x1="320.6" y1="790" x2="1129.2" y2="-18.6"/>
			<line class="st1" x1="351.3" y1="790" x2="1159.9" y2="-18.6"/>
			<line class="st1" x1="335.9" y1="790" x2="1144.5" y2="-18.6"/>
		</g>
		<g>
			<line class="st1" x1="366.6" y1="790" x2="1175.2" y2="-18.6"/>
			<line class="st1" x1="381.9" y1="790" x2="1190.5" y2="-18.6"/>
			<line class="st1" x1="397.3" y1="790" x2="1205.9" y2="-18.6"/>
			<line class="st1" x1="412.6" y1="790" x2="1221.2" y2="-18.6"/>
			<polyline class="st1" points="427.9,790 680.5,537.4 1236.5,-18.6 			"/>
			<line class="st1" x1="443.2" y1="790" x2="1251.8" y2="-18.6"/>
			<line class="st1" x1="458.5" y1="790" x2="1267.1" y2="-18.6"/>
			<line class="st1" x1="473.8" y1="790" x2="1282.4" y2="-18.6"/>
			<line class="st1" x1="489.2" y1="790" x2="1297.8" y2="-18.6"/>
			<line class="st1" x1="504.5" y1="790" x2="1313.1" y2="-18.6"/>
			<line class="st1" x1="519.8" y1="790" x2="1328.4" y2="-18.6"/>
			<line class="st1" x1="535.1" y1="790" x2="1343.7" y2="-18.6"/>
			<line class="st1" x1="550.4" y1="790" x2="1359" y2="-18.6"/>
			<line class="st1" x1="565.8" y1="790" x2="1374.3" y2="-18.6"/>
			<line class="st1" x1="581.1" y1="790" x2="1389.7" y2="-18.6"/>
			<line class="st1" x1="596.4" y1="790" x2="1405" y2="-18.6"/>
			<line class="st1" x1="611.7" y1="790" x2="1420.3" y2="-18.6"/>
			<line class="st1" x1="627" y1="790" x2="1435.6" y2="-18.6"/>
			<line class="st1" x1="642.3" y1="790" x2="1450.9" y2="-18.6"/>
			<line class="st1" x1="657.7" y1="790" x2="1466.3" y2="-18.6"/>
			<line class="st1" x1="673" y1="790" x2="1481.6" y2="-18.6"/>
			<line class="st1" x1="688.3" y1="790" x2="1496.9" y2="-18.6"/>
			<line class="st1" x1="703.6" y1="790" x2="1512.2" y2="-18.6"/>
			<line class="st1" x1="718.9" y1="790" x2="1527.5" y2="-18.6"/>
			<line class="st1" x1="734.2" y1="790" x2="1542.8" y2="-18.6"/>
			<line class="st1" x1="749.6" y1="790" x2="1558.2" y2="-18.6"/>
			<line class="st1" x1="764.9" y1="790" x2="1573.5" y2="-18.6"/>
			<line class="st1" x1="780.2" y1="790" x2="1588.8" y2="-18.6"/>
			<line class="st1" x1="795.5" y1="790" x2="1604.1" y2="-18.6"/>
			<line class="st1" x1="810.8" y1="790" x2="1619.4" y2="-18.6"/>
			<line class="st1" x1="826.1" y1="790" x2="1634.7" y2="-18.6"/>
			<line class="st1" x1="841.5" y1="790" x2="1650.1" y2="-18.6"/>
			<line class="st1" x1="856.8" y1="790" x2="1665.4" y2="-18.6"/>
			<line class="st1" x1="872.1" y1="790" x2="1680.7" y2="-18.6"/>
			<line class="st1" x1="887.4" y1="790" x2="1696" y2="-18.6"/>
			<line class="st1" x1="902.7" y1="790" x2="1711.3" y2="-18.6"/>
			<line class="st1" x1="918.1" y1="790" x2="1726.6" y2="-18.6"/>
			<line class="st1" x1="933.4" y1="790" x2="1742" y2="-18.6"/>
			<line class="st1" x1="948.7" y1="790" x2="1757.3" y2="-18.6"/>
			<line class="st1" x1="964" y1="790" x2="1772.6" y2="-18.6"/>
			<line class="st1" x1="979.3" y1="790" x2="1787.9" y2="-18.6"/>
			<line class="st1" x1="994.6" y1="790" x2="1803.2" y2="-18.6"/>
			<line class="st1" x1="1010" y1="790" x2="1818.6" y2="-18.6"/>
			<line class="st1" x1="1025.3" y1="790" x2="1833.9" y2="-18.6"/>
			<line class="st1" x1="1055.9" y1="790" x2="1864.5" y2="-18.6"/>
			<line class="st1" x1="1040.6" y1="790" x2="1849.2" y2="-18.6"/>
		</g>
	</g>
</g>
</svg>
